<?xml version="1.0" encoding="UTF-8" standalone="no"?>
<!DOCTYPE svg PUBLIC "-//W3C//DTD SVG 1.1//EN"
 "http://www.w3.org/Graphics/SVG/1.1/DTD/svg11.dtd">
<!-- Generated by graphviz version 2.42.4 (0)
 -->
<!-- Title: text2ner_process_simple Pages: 1 -->
<svg width="711pt" height="1576pt"
 viewBox="0.00 0.00 710.70 1576.20" xmlns="http://www.w3.org/2000/svg" xmlns:xlink="http://www.w3.org/1999/xlink">
<g id="graph0" class="graph" transform="scale(1 1) rotate(0) translate(21.6 1554.6)">
<title>text2ner_process_simple</title>
<polygon fill="white" stroke="transparent" points="-21.6,21.6 -21.6,-1554.6 689.1,-1554.6 689.1,21.6 -21.6,21.6"/>
<text text-anchor="middle" x="333.75" y="-1513" font-family="Helvetica,sans-Serif" font-size="20.00">TEXT2NER: uproszczony przebieg pracy aplikacji</text>
<!-- start -->
<g id="node1" class="node">
<title>start</title>
<path fill="#e0f2fe" stroke="#0284c7" d="M655.5,-1503C655.5,-1503 227.5,-1503 227.5,-1503 221.5,-1503 215.5,-1497 215.5,-1491 215.5,-1491 215.5,-1479 215.5,-1479 215.5,-1473 221.5,-1467 227.5,-1467 227.5,-1467 655.5,-1467 655.5,-1467 661.5,-1467 667.5,-1473 667.5,-1479 667.5,-1479 667.5,-1491 667.5,-1491 667.5,-1497 661.5,-1503 655.5,-1503"/>
<text text-anchor="middle" x="441.5" y="-1481.9" font-family="Helvetica,sans-Serif" font-size="12.00">1. Tekst do analizy wprowadzony do pola tekstowego (do 5000 znaków)</text>
</g>
<!-- settings -->
<g id="node2" class="node">
<title>settings</title>
<path fill="#f8fafc" stroke="#94a3b8" d="M600,-1412C600,-1412 283,-1412 283,-1412 277,-1412 271,-1406 271,-1400 271,-1400 271,-1354 271,-1354 271,-1348 277,-1342 283,-1342 283,-1342 600,-1342 600,-1342 606,-1342 612,-1348 612,-1354 612,-1354 612,-1400 612,-1400 612,-1406 606,-1412 600,-1412"/>
<text text-anchor="middle" x="441.5" y="-1393.4" font-family="Helvetica,sans-Serif" font-size="12.00">2. Parametry analizy:</text>
<text text-anchor="middle" x="441.5" y="-1380.4" font-family="Helvetica,sans-Serif" font-size="12.00">model Gemini oraz typy tagów,</text>
<text text-anchor="middle" x="441.5" y="-1367.4" font-family="Helvetica,sans-Serif" font-size="12.00">które mają być rozpoznawane</text>
<text text-anchor="middle" x="441.5" y="-1354.4" font-family="Helvetica,sans-Serif" font-size="12.00"> (persName, placeName, roleName, date, orgName)</text>
</g>
<!-- start&#45;&gt;settings -->
<g id="edge1" class="edge">
<title>start&#45;&gt;settings</title>
<path fill="none" stroke="#475569" d="M441.5,-1466.97C441.5,-1454.41 441.5,-1436.75 441.5,-1420.47"/>
<polygon fill="#475569" stroke="#475569" points="444.3,-1420.12 441.5,-1412.12 438.7,-1420.12 444.3,-1420.12"/>
</g>
<!-- recognize -->
<g id="node3" class="node">
<title>recognize</title>
<path fill="#f8fafc" stroke="#94a3b8" d="M596.5,-1287C596.5,-1287 286.5,-1287 286.5,-1287 280.5,-1287 274.5,-1281 274.5,-1275 274.5,-1275 274.5,-1229 274.5,-1229 274.5,-1223 280.5,-1217 286.5,-1217 286.5,-1217 596.5,-1217 596.5,-1217 602.5,-1217 608.5,-1223 608.5,-1229 608.5,-1229 608.5,-1275 608.5,-1275 608.5,-1281 602.5,-1287 596.5,-1287"/>
<text text-anchor="middle" x="441.5" y="-1268.4" font-family="Helvetica,sans-Serif" font-size="12.00">3. Funkcja Rozpoznaj </text>
<text text-anchor="middle" x="441.5" y="-1255.4" font-family="Helvetica,sans-Serif" font-size="12.00">Aplikacja oznacza osoby, miejsca,</text>
<text text-anchor="middle" x="441.5" y="-1242.4" font-family="Helvetica,sans-Serif" font-size="12.00">daty, funkcje i instytucje (tagi zależnie od ustawień)</text>
<text text-anchor="middle" x="441.5" y="-1229.4" font-family="Helvetica,sans-Serif" font-size="12.00"> tworzy zapis w formacie TEI&#45;XML</text>
</g>
<!-- settings&#45;&gt;recognize -->
<g id="edge2" class="edge">
<title>settings&#45;&gt;recognize</title>
<path fill="none" stroke="#475569" d="M441.5,-1341.74C441.5,-1327.34 441.5,-1310.45 441.5,-1295.3"/>
<polygon fill="#475569" stroke="#475569" points="444.3,-1295.08 441.5,-1287.08 438.7,-1295.08 444.3,-1295.08"/>
</g>
<!-- preview -->
<g id="node4" class="node">
<title>preview</title>
<path fill="#f8fafc" stroke="#94a3b8" d="M544.5,-1162C544.5,-1162 338.5,-1162 338.5,-1162 332.5,-1162 326.5,-1156 326.5,-1150 326.5,-1150 326.5,-1130 326.5,-1130 326.5,-1124 332.5,-1118 338.5,-1118 338.5,-1118 544.5,-1118 544.5,-1118 550.5,-1118 556.5,-1124 556.5,-1130 556.5,-1130 556.5,-1150 556.5,-1150 556.5,-1156 550.5,-1162 544.5,-1162"/>
<text text-anchor="middle" x="441.5" y="-1143.4" font-family="Helvetica,sans-Serif" font-size="12.00">4. Użytkownik może obejrzeć XML</text>
<text text-anchor="middle" x="441.5" y="-1130.4" font-family="Helvetica,sans-Serif" font-size="12.00">lub kolorowany podgląd tekstu</text>
</g>
<!-- recognize&#45;&gt;preview -->
<g id="edge3" class="edge">
<title>recognize&#45;&gt;preview</title>
<path fill="none" stroke="#475569" d="M441.5,-1216.8C441.5,-1201.83 441.5,-1184.44 441.5,-1170.1"/>
<polygon fill="#475569" stroke="#475569" points="444.3,-1170.05 441.5,-1162.05 438.7,-1170.05 444.3,-1170.05"/>
</g>
<!-- manual -->
<g id="node5" class="node">
<title>manual</title>
<path fill="#f8fafc" stroke="#94a3b8" d="M458,-1063C458,-1063 241,-1063 241,-1063 235,-1063 229,-1057 229,-1051 229,-1051 229,-1018 229,-1018 229,-1012 235,-1006 241,-1006 241,-1006 458,-1006 458,-1006 464,-1006 470,-1012 470,-1018 470,-1018 470,-1051 470,-1051 470,-1057 464,-1063 458,-1063"/>
<text text-anchor="middle" x="349.5" y="-1044.4" font-family="Helvetica,sans-Serif" font-size="12.00">5. Podgląd umożliwia korektę tagów</text>
<text text-anchor="middle" x="349.5" y="-1031.4" font-family="Helvetica,sans-Serif" font-size="12.00">Można usunąć tag,</text>
<text text-anchor="middle" x="349.5" y="-1018.4" font-family="Helvetica,sans-Serif" font-size="12.00">zmienić jego typ albo dodać nowy</text>
</g>
<!-- preview&#45;&gt;manual -->
<g id="edge4" class="edge">
<title>preview&#45;&gt;manual</title>
<path fill="none" stroke="#475569" d="M422.66,-1117.81C410.32,-1103.92 393.9,-1085.46 379.75,-1069.54"/>
<polygon fill="#475569" stroke="#475569" points="381.66,-1067.47 374.25,-1063.35 377.48,-1071.19 381.66,-1067.47"/>
</g>
<!-- identify -->
<g id="node6" class="node">
<title>identify</title>
<path fill="#f8fafc" stroke="#94a3b8" d="M599,-951C599,-951 284,-951 284,-951 278,-951 272,-945 272,-939 272,-939 272,-867 272,-867 272,-861 278,-855 284,-855 284,-855 599,-855 599,-855 605,-855 611,-861 611,-867 611,-867 611,-939 611,-939 611,-945 605,-951 599,-951"/>
<text text-anchor="middle" x="441.5" y="-932.4" font-family="Helvetica,sans-Serif" font-size="12.00">6. Rozpoznane encje typu persName lub placeName</text>
<text text-anchor="middle" x="441.5" y="-919.4" font-family="Helvetica,sans-Serif" font-size="12.00"> można zidentyfikować w bazach referencyjnych</text>
<text text-anchor="middle" x="441.5" y="-906.4" font-family="Helvetica,sans-Serif" font-size="12.00">Aplikacja określa formę podstawową nazwy,</text>
<text text-anchor="middle" x="441.5" y="-893.4" font-family="Helvetica,sans-Serif" font-size="12.00"> analizuje kontekst wystąpienia encji</text>
<text text-anchor="middle" x="441.5" y="-880.4" font-family="Helvetica,sans-Serif" font-size="12.00"> (np. informacje o urzędzie, funkcji dla osoby,</text>
<text text-anchor="middle" x="441.5" y="-867.4" font-family="Helvetica,sans-Serif" font-size="12.00"> lub infromacje lokalizacyjne dla miejsc)</text>
</g>
<!-- preview&#45;&gt;identify -->
<g id="edge10" class="edge">
<title>preview&#45;&gt;identify</title>
<path fill="none" stroke="#475569" d="M453.76,-1117.83C466.78,-1095.34 485.5,-1063 485.5,-1063 485.5,-1063 485.5,-1006 485.5,-1006 485.5,-1006 475.52,-982.88 465.07,-958.65"/>
<polygon fill="#475569" stroke="#475569" points="467.57,-957.36 461.83,-951.12 462.42,-959.57 467.57,-957.36"/>
<text text-anchor="middle" x="534" y="-1032" font-family="Helvetica,sans-Serif" font-size="10.00">jeśli nie ma korekty</text>
</g>
<!-- manual&#45;&gt;identify -->
<g id="edge5" class="edge">
<title>manual&#45;&gt;identify</title>
<path fill="none" stroke="#475569" d="M369.24,-1005.72C379.12,-991.8 391.44,-974.46 403.1,-958.06"/>
<polygon fill="#475569" stroke="#475569" points="405.69,-959.24 408.04,-951.1 401.12,-956 405.69,-959.24"/>
</g>
<!-- sources -->
<g id="node7" class="node">
<title>sources</title>
<path fill="#f8fafc" stroke="#94a3b8" d="M530,-800C530,-800 353,-800 353,-800 347,-800 341,-794 341,-788 341,-788 341,-768 341,-768 341,-762 347,-756 353,-756 353,-756 530,-756 530,-756 536,-756 542,-762 542,-768 542,-768 542,-788 542,-788 542,-794 536,-800 530,-800"/>
<text text-anchor="middle" x="441.5" y="-781.4" font-family="Helvetica,sans-Serif" font-size="12.00">7. Wyszukiwanie kandydatów</text>
<text text-anchor="middle" x="441.5" y="-768.4" font-family="Helvetica,sans-Serif" font-size="12.00">w WikiHum i va.wiki.kul.pl</text>
</g>
<!-- identify&#45;&gt;sources -->
<g id="edge6" class="edge">
<title>identify&#45;&gt;sources</title>
<path fill="none" stroke="#475569" d="M441.5,-854.8C441.5,-839.2 441.5,-822.3 441.5,-808.43"/>
<polygon fill="#475569" stroke="#475569" points="444.3,-808.22 441.5,-800.22 438.7,-808.22 444.3,-808.22"/>
</g>
<!-- decision -->
<g id="node8" class="node">
<title>decision</title>
<path fill="#f8fafc" stroke="#94a3b8" d="M547.5,-701C547.5,-701 335.5,-701 335.5,-701 329.5,-701 323.5,-695 323.5,-689 323.5,-689 323.5,-630 323.5,-630 323.5,-624 329.5,-618 335.5,-618 335.5,-618 547.5,-618 547.5,-618 553.5,-618 559.5,-624 559.5,-630 559.5,-630 559.5,-689 559.5,-689 559.5,-695 553.5,-701 547.5,-701"/>
<text text-anchor="middle" x="441.5" y="-682.4" font-family="Helvetica,sans-Serif" font-size="12.00">8. Ocena kandydatów</text>
<text text-anchor="middle" x="441.5" y="-669.4" font-family="Helvetica,sans-Serif" font-size="12.00">Model Gemini porównuje kontekst,</text>
<text text-anchor="middle" x="441.5" y="-656.4" font-family="Helvetica,sans-Serif" font-size="12.00">warianty nazwy (dla osób</text>
<text text-anchor="middle" x="441.5" y="-643.4" font-family="Helvetica,sans-Serif" font-size="12.00">również zgodność chronologiczną)</text>
<text text-anchor="middle" x="441.5" y="-630.4" font-family="Helvetica,sans-Serif" font-size="12.00"> model wskazuje kandydata lub nie</text>
</g>
<!-- sources&#45;&gt;decision -->
<g id="edge7" class="edge">
<title>sources&#45;&gt;decision</title>
<path fill="none" stroke="#475569" d="M441.5,-755.9C441.5,-742.95 441.5,-725.79 441.5,-709.59"/>
<polygon fill="#475569" stroke="#475569" points="444.3,-709.24 441.5,-701.24 438.7,-709.24 444.3,-709.24"/>
</g>
<!-- sources2 -->
<g id="node11" class="node">
<title>sources2</title>
<path fill="#f8fafc" stroke="#94a3b8" d="M447,-553C447,-553 278,-553 278,-553 272,-553 266,-547 266,-541 266,-541 266,-529 266,-529 266,-523 272,-517 278,-517 278,-517 447,-517 447,-517 453,-517 459,-523 459,-529 459,-529 459,-541 459,-541 459,-547 453,-553 447,-553"/>
<text text-anchor="middle" x="362.5" y="-531.9" font-family="Helvetica,sans-Serif" font-size="12.00">9. Wyszukiwanie w Wikidata</text>
</g>
<!-- decision&#45;&gt;sources2 -->
<g id="edge11" class="edge">
<title>decision&#45;&gt;sources2</title>
<path fill="none" stroke="#475569" d="M415.19,-617.71C402.89,-598.64 388.67,-576.57 378.1,-560.19"/>
<polygon fill="#475569" stroke="#475569" points="380.21,-558.29 373.52,-553.09 375.5,-561.33 380.21,-558.29"/>
<text text-anchor="middle" x="444.5" y="-583" font-family="Helvetica,sans-Serif" font-size="10.00">jeżeli nieskuteczne</text>
</g>
<!-- result -->
<g id="node13" class="node">
<title>result</title>
<path fill="#dcfce7" stroke="#16a34a" d="M538.5,-169C538.5,-169 206.5,-169 206.5,-169 200.5,-169 194.5,-163 194.5,-157 194.5,-157 194.5,-111 194.5,-111 194.5,-105 200.5,-99 206.5,-99 206.5,-99 538.5,-99 538.5,-99 544.5,-99 550.5,-105 550.5,-111 550.5,-111 550.5,-157 550.5,-157 550.5,-163 544.5,-169 538.5,-169"/>
<text text-anchor="middle" x="372.5" y="-150.4" font-family="Helvetica,sans-Serif" font-size="12.00">11. Wynik końcowy</text>
<text text-anchor="middle" x="372.5" y="-137.4" font-family="Helvetica,sans-Serif" font-size="12.00">TEI&#45;XML z wyróżnieniem osób, miejsc i ich identyfikacją</text>
<text text-anchor="middle" x="372.5" y="-124.4" font-family="Helvetica,sans-Serif" font-size="12.00">listy encji (osób i miejsc) zidentyfikowanych</text>
<text text-anchor="middle" x="372.5" y="-111.4" font-family="Helvetica,sans-Serif" font-size="12.00">i niezidentyfikowanych</text>
</g>
<!-- decision&#45;&gt;result -->
<g id="edge8" class="edge">
<title>decision&#45;&gt;result</title>
<path fill="none" stroke="#475569" d="M476.58,-617.68C488.79,-603.46 499.5,-591 499.5,-591 499.5,-591 520.5,-536 520.5,-536 520.5,-536 520.5,-536 520.5,-241 520.5,-241 469.06,-204.16 426.83,-173.91"/>
<polygon fill="#475569" stroke="#475569" points="428.28,-171.5 420.14,-169.12 425.02,-176.06 428.28,-171.5"/>
</g>
<!-- decision2 -->
<g id="node9" class="node">
<title>decision2</title>
<path fill="#f8fafc" stroke="#94a3b8" d="M459.5,-462C459.5,-462 195.5,-462 195.5,-462 189.5,-462 183.5,-456 183.5,-450 183.5,-450 183.5,-438 183.5,-438 183.5,-432 189.5,-426 195.5,-426 195.5,-426 459.5,-426 459.5,-426 465.5,-426 471.5,-432 471.5,-438 471.5,-438 471.5,-450 471.5,-450 471.5,-456 465.5,-462 459.5,-462"/>
<text text-anchor="middle" x="327.5" y="-440.9" font-family="Helvetica,sans-Serif" font-size="12.00">8a. Ocena kandydatów przez model Gemini</text>
</g>
<!-- sources3 -->
<g id="node12" class="node">
<title>sources3</title>
<path fill="#f8fafc" stroke="#94a3b8" d="M311,-361C311,-361 12,-361 12,-361 6,-361 0,-355 0,-349 0,-349 0,-337 0,-337 0,-331 6,-325 12,-325 12,-325 311,-325 311,-325 317,-325 323,-331 323,-337 323,-337 323,-349 323,-349 323,-355 317,-361 311,-361"/>
<text text-anchor="middle" x="161.5" y="-339.9" font-family="Helvetica,sans-Serif" font-size="12.00">10. Wyszukiwanie w polskiej i angielskiej Wikipedii</text>
</g>
<!-- decision2&#45;&gt;sources3 -->
<g id="edge14" class="edge">
<title>decision2&#45;&gt;sources3</title>
<path fill="none" stroke="#475569" d="M298.68,-425.86C277.9,-413.51 253.5,-399 253.5,-399 253.5,-399 223.1,-380.82 197.25,-365.37"/>
<polygon fill="#475569" stroke="#475569" points="198.41,-362.8 190.11,-361.1 195.53,-367.61 198.41,-362.8"/>
<text text-anchor="middle" x="300.5" y="-391" font-family="Helvetica,sans-Serif" font-size="10.00">jeżeli nieskuteczne</text>
</g>
<!-- decision2&#45;&gt;result -->
<g id="edge13" class="edge">
<title>decision2&#45;&gt;result</title>
<path fill="none" stroke="#475569" d="M336.85,-425.86C343.59,-413.51 351.5,-399 351.5,-399 351.5,-399 363.18,-252.21 369.12,-177.54"/>
<polygon fill="#475569" stroke="#475569" points="371.93,-177.44 369.78,-169.24 366.35,-177 371.93,-177.44"/>
<text text-anchor="middle" x="423.5" y="-290" font-family="Helvetica,sans-Serif" font-size="10.00">jeżeli wybrano kandydata</text>
</g>
<!-- decision3 -->
<g id="node10" class="node">
<title>decision3</title>
<path fill="#f8fafc" stroke="#94a3b8" d="M307.5,-260C307.5,-260 43.5,-260 43.5,-260 37.5,-260 31.5,-254 31.5,-248 31.5,-248 31.5,-236 31.5,-236 31.5,-230 37.5,-224 43.5,-224 43.5,-224 307.5,-224 307.5,-224 313.5,-224 319.5,-230 319.5,-236 319.5,-236 319.5,-248 319.5,-248 319.5,-254 313.5,-260 307.5,-260"/>
<text text-anchor="middle" x="175.5" y="-238.9" font-family="Helvetica,sans-Serif" font-size="12.00">8b. Ocena kandydatów przez model Gemini</text>
</g>
<!-- decision3&#45;&gt;result -->
<g id="edge16" class="edge">
<title>decision3&#45;&gt;result</title>
<path fill="none" stroke="#475569" d="M207.15,-223.97C232.63,-210.26 269.42,-190.47 301.82,-173.03"/>
<polygon fill="#475569" stroke="#475569" points="303.37,-175.37 309.09,-169.12 300.72,-170.44 303.37,-175.37"/>
</g>
<!-- sources2&#45;&gt;decision2 -->
<g id="edge12" class="edge">
<title>sources2&#45;&gt;decision2</title>
<path fill="none" stroke="#475569" d="M355.75,-516.84C350.47,-503.42 343.07,-484.58 337.16,-469.56"/>
<polygon fill="#475569" stroke="#475569" points="339.76,-468.53 334.23,-462.11 334.55,-470.58 339.76,-468.53"/>
</g>
<!-- sources3&#45;&gt;decision3 -->
<g id="edge15" class="edge">
<title>sources3&#45;&gt;decision3</title>
<path fill="none" stroke="#475569" d="M163.94,-324.76C166.15,-309.14 169.43,-285.94 171.93,-268.24"/>
<polygon fill="#475569" stroke="#475569" points="174.74,-268.36 173.09,-260.05 169.2,-267.58 174.74,-268.36"/>
</g>
<!-- pdf_after -->
<g id="node14" class="node">
<title>pdf_after</title>
<path fill="#fef3c7" stroke="#d97706" d="M624.5,-44C624.5,-44 120.5,-44 120.5,-44 114.5,-44 108.5,-38 108.5,-32 108.5,-32 108.5,-12 108.5,-12 108.5,-6 114.5,0 120.5,0 120.5,0 624.5,0 624.5,0 630.5,0 636.5,-6 636.5,-12 636.5,-12 636.5,-32 636.5,-32 636.5,-38 630.5,-44 624.5,-44"/>
<text text-anchor="middle" x="372.5" y="-25.4" font-family="Helvetica,sans-Serif" font-size="12.00">12. Eksport PDF</text>
<text text-anchor="middle" x="372.5" y="-12.4" font-family="Helvetica,sans-Serif" font-size="12.00">Plik zawiera tekst z kolorowaniem tagów, listy encji rozpoznanych i nierozpoznanych</text>
</g>
<!-- result&#45;&gt;pdf_after -->
<g id="edge9" class="edge">
<title>result&#45;&gt;pdf_after</title>
<path fill="none" stroke="#475569" d="M372.5,-98.8C372.5,-83.83 372.5,-66.44 372.5,-52.1"/>
<polygon fill="#475569" stroke="#475569" points="375.3,-52.05 372.5,-44.05 369.7,-52.05 375.3,-52.05"/>
</g>
</g>
</svg>
