<?xml version="1.0" encoding="UTF-8" standalone="no"?>
<!DOCTYPE svg PUBLIC "-//W3C//DTD SVG 1.1//EN"
 "http://www.w3.org/Graphics/SVG/1.1/DTD/svg11.dtd">
<!-- Generated by graphviz version 2.42.4 (0)
 -->
<!-- Title: text2ner_process_simple Pages: 1 -->
<svg width="710pt" height="1759pt"
 viewBox="0.00 0.00 710.20 1759.20" xmlns="http://www.w3.org/2000/svg" xmlns:xlink="http://www.w3.org/1999/xlink">
<g id="graph0" class="graph" transform="scale(1 1) rotate(0) translate(21.6 1737.6)">
<title>text2ner_process_simple</title>
<polygon fill="white" stroke="transparent" points="-21.6,21.6 -21.6,-1737.6 688.6,-1737.6 688.6,21.6 -21.6,21.6"/>
<text text-anchor="middle" x="333.5" y="-1696" font-family="Helvetica,sans-Serif" font-size="20.00">TEXT2NER: uproszczony przebieg pracy aplikacji</text>
<!-- start -->
<g id="node1" class="node">
<title>start</title>
<path fill="#e0f2fe" stroke="#0284c7" d="M647,-1662C647,-1662 219,-1662 219,-1662 213,-1662 207,-1656 207,-1650 207,-1650 207,-1638 207,-1638 207,-1632 213,-1626 219,-1626 219,-1626 647,-1626 647,-1626 653,-1626 659,-1632 659,-1638 659,-1638 659,-1650 659,-1650 659,-1656 653,-1662 647,-1662"/>
<text text-anchor="middle" x="433" y="-1640.9" font-family="Helvetica,sans-Serif" font-size="12.00">1. Tekst do analizy wprowadzony do pola tekstowego (do 5000 znaków)</text>
</g>
<!-- settings -->
<g id="node2" class="node">
<title>settings</title>
<path fill="#f8fafc" stroke="#94a3b8" d="M591.5,-1571C591.5,-1571 274.5,-1571 274.5,-1571 268.5,-1571 262.5,-1565 262.5,-1559 262.5,-1559 262.5,-1513 262.5,-1513 262.5,-1507 268.5,-1501 274.5,-1501 274.5,-1501 591.5,-1501 591.5,-1501 597.5,-1501 603.5,-1507 603.5,-1513 603.5,-1513 603.5,-1559 603.5,-1559 603.5,-1565 597.5,-1571 591.5,-1571"/>
<text text-anchor="middle" x="433" y="-1552.4" font-family="Helvetica,sans-Serif" font-size="12.00">2. Parametry analizy:</text>
<text text-anchor="middle" x="433" y="-1539.4" font-family="Helvetica,sans-Serif" font-size="12.00">model Gemini oraz typy tagów,</text>
<text text-anchor="middle" x="433" y="-1526.4" font-family="Helvetica,sans-Serif" font-size="12.00">które mają być rozpoznawane</text>
<text text-anchor="middle" x="433" y="-1513.4" font-family="Helvetica,sans-Serif" font-size="12.00"> (persName, placeName, roleName, date, orgName)</text>
</g>
<!-- start&#45;&gt;settings -->
<g id="edge1" class="edge">
<title>start&#45;&gt;settings</title>
<path fill="none" stroke="#475569" d="M433,-1625.97C433,-1613.41 433,-1595.75 433,-1579.47"/>
<polygon fill="#475569" stroke="#475569" points="435.8,-1579.12 433,-1571.12 430.2,-1579.12 435.8,-1579.12"/>
</g>
<!-- recognize -->
<g id="node3" class="node">
<title>recognize</title>
<path fill="#f8fafc" stroke="#94a3b8" d="M588,-1446C588,-1446 278,-1446 278,-1446 272,-1446 266,-1440 266,-1434 266,-1434 266,-1388 266,-1388 266,-1382 272,-1376 278,-1376 278,-1376 588,-1376 588,-1376 594,-1376 600,-1382 600,-1388 600,-1388 600,-1434 600,-1434 600,-1440 594,-1446 588,-1446"/>
<text text-anchor="middle" x="433" y="-1427.4" font-family="Helvetica,sans-Serif" font-size="12.00">3. Funkcja Rozpoznaj </text>
<text text-anchor="middle" x="433" y="-1414.4" font-family="Helvetica,sans-Serif" font-size="12.00">Aplikacja oznacza osoby, miejsca,</text>
<text text-anchor="middle" x="433" y="-1401.4" font-family="Helvetica,sans-Serif" font-size="12.00">daty, funkcje i instytucje (tagi zależnie od ustawień)</text>
<text text-anchor="middle" x="433" y="-1388.4" font-family="Helvetica,sans-Serif" font-size="12.00"> tworzy zapis w formacie TEI&#45;XML</text>
</g>
<!-- settings&#45;&gt;recognize -->
<g id="edge2" class="edge">
<title>settings&#45;&gt;recognize</title>
<path fill="none" stroke="#475569" d="M433,-1500.74C433,-1486.34 433,-1469.45 433,-1454.3"/>
<polygon fill="#475569" stroke="#475569" points="435.8,-1454.08 433,-1446.08 430.2,-1454.08 435.8,-1454.08"/>
</g>
<!-- preview -->
<g id="node4" class="node">
<title>preview</title>
<path fill="#f8fafc" stroke="#94a3b8" d="M536,-1321C536,-1321 330,-1321 330,-1321 324,-1321 318,-1315 318,-1309 318,-1309 318,-1289 318,-1289 318,-1283 324,-1277 330,-1277 330,-1277 536,-1277 536,-1277 542,-1277 548,-1283 548,-1289 548,-1289 548,-1309 548,-1309 548,-1315 542,-1321 536,-1321"/>
<text text-anchor="middle" x="433" y="-1302.4" font-family="Helvetica,sans-Serif" font-size="12.00">4. Użytkownik może obejrzeć XML</text>
<text text-anchor="middle" x="433" y="-1289.4" font-family="Helvetica,sans-Serif" font-size="12.00">lub kolorowany podgląd tekstu</text>
</g>
<!-- recognize&#45;&gt;preview -->
<g id="edge3" class="edge">
<title>recognize&#45;&gt;preview</title>
<path fill="none" stroke="#475569" d="M433,-1375.8C433,-1360.83 433,-1343.44 433,-1329.1"/>
<polygon fill="#475569" stroke="#475569" points="435.8,-1329.05 433,-1321.05 430.2,-1329.05 435.8,-1329.05"/>
</g>
<!-- manual -->
<g id="node5" class="node">
<title>manual</title>
<path fill="#f8fafc" stroke="#94a3b8" d="M449.5,-1222C449.5,-1222 232.5,-1222 232.5,-1222 226.5,-1222 220.5,-1216 220.5,-1210 220.5,-1210 220.5,-1177 220.5,-1177 220.5,-1171 226.5,-1165 232.5,-1165 232.5,-1165 449.5,-1165 449.5,-1165 455.5,-1165 461.5,-1171 461.5,-1177 461.5,-1177 461.5,-1210 461.5,-1210 461.5,-1216 455.5,-1222 449.5,-1222"/>
<text text-anchor="middle" x="341" y="-1203.4" font-family="Helvetica,sans-Serif" font-size="12.00">5. Podgląd umożliwia korektę tagów</text>
<text text-anchor="middle" x="341" y="-1190.4" font-family="Helvetica,sans-Serif" font-size="12.00">Można usunąć tag,</text>
<text text-anchor="middle" x="341" y="-1177.4" font-family="Helvetica,sans-Serif" font-size="12.00">zmienić jego typ albo dodać nowy</text>
</g>
<!-- preview&#45;&gt;manual -->
<g id="edge4" class="edge">
<title>preview&#45;&gt;manual</title>
<path fill="none" stroke="#475569" d="M414.16,-1276.81C401.82,-1262.92 385.4,-1244.46 371.25,-1228.54"/>
<polygon fill="#475569" stroke="#475569" points="373.16,-1226.47 365.75,-1222.35 368.98,-1230.19 373.16,-1226.47"/>
</g>
<!-- identify -->
<g id="node6" class="node">
<title>identify</title>
<path fill="#f8fafc" stroke="#94a3b8" d="M636.5,-1110C636.5,-1110 229.5,-1110 229.5,-1110 223.5,-1110 217.5,-1104 217.5,-1098 217.5,-1098 217.5,-1000 217.5,-1000 217.5,-994 223.5,-988 229.5,-988 229.5,-988 636.5,-988 636.5,-988 642.5,-988 648.5,-994 648.5,-1000 648.5,-1000 648.5,-1098 648.5,-1098 648.5,-1104 642.5,-1110 636.5,-1110"/>
<text text-anchor="middle" x="433" y="-1091.4" font-family="Helvetica,sans-Serif" font-size="12.00">6. Rozpoznane encje typu persName lub placeName</text>
<text text-anchor="middle" x="433" y="-1078.4" font-family="Helvetica,sans-Serif" font-size="12.00"> można zidentyfikować w bazach referencyjnych</text>
<text text-anchor="middle" x="433" y="-1065.4" font-family="Helvetica,sans-Serif" font-size="12.00">Model określa formę podstawową nazwy,</text>
<text text-anchor="middle" x="433" y="-1052.4" font-family="Helvetica,sans-Serif" font-size="12.00">dodatkowe słowniki pomagają przy utworzeniu polskich wersji nazw</text>
<text text-anchor="middle" x="433" y="-1039.4" font-family="Helvetica,sans-Serif" font-size="12.00"> w przypadku tekstów łacińskich i niemieckich</text>
<text text-anchor="middle" x="433" y="-1026.4" font-family="Helvetica,sans-Serif" font-size="12.00"> model analizuje kontekst wystąpienia encji</text>
<text text-anchor="middle" x="433" y="-1013.4" font-family="Helvetica,sans-Serif" font-size="12.00"> (np. informacje o urzędzie, funkcji dla osoby,</text>
<text text-anchor="middle" x="433" y="-1000.4" font-family="Helvetica,sans-Serif" font-size="12.00"> lub informacje lokalizacyjne dla miejsc)</text>
</g>
<!-- preview&#45;&gt;identify -->
<g id="edge11" class="edge">
<title>preview&#45;&gt;identify</title>
<path fill="none" stroke="#475569" d="M445.26,-1276.83C458.28,-1254.34 477,-1222 477,-1222 477,-1222 477,-1165 477,-1165 477,-1165 468.52,-1142.84 459.01,-1117.98"/>
<polygon fill="#475569" stroke="#475569" points="461.5,-1116.67 456.03,-1110.19 456.27,-1118.67 461.5,-1116.67"/>
<text text-anchor="middle" x="525.5" y="-1191" font-family="Helvetica,sans-Serif" font-size="10.00">jeśli nie ma korekty</text>
</g>
<!-- manual&#45;&gt;identify -->
<g id="edge5" class="edge">
<title>manual&#45;&gt;identify</title>
<path fill="none" stroke="#475569" d="M358.96,-1164.69C367.74,-1151.08 378.73,-1134.05 389.54,-1117.32"/>
<polygon fill="#475569" stroke="#475569" points="392.16,-1118.41 394.15,-1110.17 387.46,-1115.38 392.16,-1118.41"/>
</g>
<!-- identify2 -->
<g id="node7" class="node">
<title>identify2</title>
<path fill="#f8fafc" stroke="#94a3b8" d="M611,-933C611,-933 255,-933 255,-933 249,-933 243,-927 243,-921 243,-921 243,-888 243,-888 243,-882 249,-876 255,-876 255,-876 611,-876 611,-876 617,-876 623,-882 623,-888 623,-888 623,-921 623,-921 623,-927 617,-933 611,-933"/>
<text text-anchor="middle" x="433" y="-914.4" font-family="Helvetica,sans-Serif" font-size="12.00">6a. Przygotowywany jest plan zapytań do instancji wikibase</text>
<text text-anchor="middle" x="433" y="-901.4" font-family="Helvetica,sans-Serif" font-size="12.00"> zapytanie oprócz nazwy osoby może zawierać </text>
<text text-anchor="middle" x="433" y="-888.4" font-family="Helvetica,sans-Serif" font-size="12.00"> dane ujednoznaczniające np. tytuł, urząd itp.</text>
</g>
<!-- identify&#45;&gt;identify2 -->
<g id="edge6" class="edge">
<title>identify&#45;&gt;identify2</title>
<path fill="none" stroke="#475569" d="M433,-987.98C433,-972.08 433,-955.42 433,-941.27"/>
<polygon fill="#475569" stroke="#475569" points="435.8,-941.25 433,-933.25 430.2,-941.25 435.8,-941.25"/>
</g>
<!-- sources -->
<g id="node8" class="node">
<title>sources</title>
<path fill="#f8fafc" stroke="#94a3b8" d="M608,-821C608,-821 258,-821 258,-821 252,-821 246,-815 246,-809 246,-809 246,-776 246,-776 246,-770 252,-764 258,-764 258,-764 608,-764 608,-764 614,-764 620,-770 620,-776 620,-776 620,-809 620,-809 620,-815 614,-821 608,-821"/>
<text text-anchor="middle" x="433" y="-802.4" font-family="Helvetica,sans-Serif" font-size="12.00">7. Wyszukiwanie kandydatów</text>
<text text-anchor="middle" x="433" y="-789.4" font-family="Helvetica,sans-Serif" font-size="12.00">w WikiHum i va.wiki.kul.pl</text>
<text text-anchor="middle" x="433" y="-776.4" font-family="Helvetica,sans-Serif" font-size="12.00">(wyszukiwanie przybliżone [fuzzy] poprzez Special:Search)</text>
</g>
<!-- identify2&#45;&gt;sources -->
<g id="edge7" class="edge">
<title>identify2&#45;&gt;sources</title>
<path fill="none" stroke="#475569" d="M433,-875.74C433,-861.67 433,-844.42 433,-829.36"/>
<polygon fill="#475569" stroke="#475569" points="435.8,-829.25 433,-821.25 430.2,-829.25 435.8,-829.25"/>
</g>
<!-- decision -->
<g id="node9" class="node">
<title>decision</title>
<path fill="#f8fafc" stroke="#94a3b8" d="M539,-709C539,-709 327,-709 327,-709 321,-709 315,-703 315,-697 315,-697 315,-638 315,-638 315,-632 321,-626 327,-626 327,-626 539,-626 539,-626 545,-626 551,-632 551,-638 551,-638 551,-697 551,-697 551,-703 545,-709 539,-709"/>
<text text-anchor="middle" x="433" y="-690.4" font-family="Helvetica,sans-Serif" font-size="12.00">8. Ocena kandydatów</text>
<text text-anchor="middle" x="433" y="-677.4" font-family="Helvetica,sans-Serif" font-size="12.00">Model Gemini porównuje kontekst,</text>
<text text-anchor="middle" x="433" y="-664.4" font-family="Helvetica,sans-Serif" font-size="12.00">warianty nazwy (dla osób</text>
<text text-anchor="middle" x="433" y="-651.4" font-family="Helvetica,sans-Serif" font-size="12.00">również zgodność chronologiczną)</text>
<text text-anchor="middle" x="433" y="-638.4" font-family="Helvetica,sans-Serif" font-size="12.00"> model wskazuje kandydata lub nie</text>
</g>
<!-- sources&#45;&gt;decision -->
<g id="edge8" class="edge">
<title>sources&#45;&gt;decision</title>
<path fill="none" stroke="#475569" d="M433,-763.9C433,-750.14 433,-733.1 433,-717.25"/>
<polygon fill="#475569" stroke="#475569" points="435.8,-717.09 433,-709.09 430.2,-717.09 435.8,-717.09"/>
</g>
<!-- sources2 -->
<g id="node12" class="node">
<title>sources2</title>
<path fill="#f8fafc" stroke="#94a3b8" d="M490,-561C490,-561 140,-561 140,-561 134,-561 128,-555 128,-549 128,-549 128,-529 128,-529 128,-523 134,-517 140,-517 140,-517 490,-517 490,-517 496,-517 502,-523 502,-529 502,-529 502,-549 502,-549 502,-555 496,-561 490,-561"/>
<text text-anchor="middle" x="315" y="-542.4" font-family="Helvetica,sans-Serif" font-size="12.00">9. Wyszukiwanie w Wikidata</text>
<text text-anchor="middle" x="315" y="-529.4" font-family="Helvetica,sans-Serif" font-size="12.00">(wyszukiwanie przybliżone [fuzzy] poprzez Special:Search)</text>
</g>
<!-- decision&#45;&gt;sources2 -->
<g id="edge12" class="edge">
<title>decision&#45;&gt;sources2</title>
<path fill="none" stroke="#475569" d="M395.01,-625.78C377.13,-606.61 356.29,-584.26 340.36,-567.19"/>
<polygon fill="#475569" stroke="#475569" points="342.23,-565.09 334.73,-561.15 338.14,-568.91 342.23,-565.09"/>
<text text-anchor="middle" x="414" y="-591" font-family="Helvetica,sans-Serif" font-size="10.00">jeżeli nieskuteczne</text>
</g>
<!-- result -->
<g id="node14" class="node">
<title>result</title>
<path fill="#dcfce7" stroke="#16a34a" d="M569,-169C569,-169 237,-169 237,-169 231,-169 225,-163 225,-157 225,-157 225,-111 225,-111 225,-105 231,-99 237,-99 237,-99 569,-99 569,-99 575,-99 581,-105 581,-111 581,-111 581,-157 581,-157 581,-163 575,-169 569,-169"/>
<text text-anchor="middle" x="403" y="-150.4" font-family="Helvetica,sans-Serif" font-size="12.00">11. Wynik końcowy</text>
<text text-anchor="middle" x="403" y="-137.4" font-family="Helvetica,sans-Serif" font-size="12.00">TEI&#45;XML z wyróżnieniem osób, miejsc i ich identyfikacją</text>
<text text-anchor="middle" x="403" y="-124.4" font-family="Helvetica,sans-Serif" font-size="12.00">listy encji (osób i miejsc) zidentyfikowanych</text>
<text text-anchor="middle" x="403" y="-111.4" font-family="Helvetica,sans-Serif" font-size="12.00">i niezidentyfikowanych</text>
</g>
<!-- decision&#45;&gt;result -->
<g id="edge9" class="edge">
<title>decision&#45;&gt;result</title>
<path fill="none" stroke="#475569" d="M470.99,-625.78C505.48,-588.8 551,-540 551,-540 551,-540 551,-540 551,-241 551,-241 499.56,-204.16 457.33,-173.91"/>
<polygon fill="#475569" stroke="#475569" points="458.78,-171.5 450.64,-169.12 455.52,-176.06 458.78,-171.5"/>
</g>
<!-- decision2 -->
<g id="node10" class="node">
<title>decision2</title>
<path fill="#f8fafc" stroke="#94a3b8" d="M478.5,-462C478.5,-462 151.5,-462 151.5,-462 145.5,-462 139.5,-456 139.5,-450 139.5,-450 139.5,-438 139.5,-438 139.5,-432 145.5,-426 151.5,-426 151.5,-426 478.5,-426 478.5,-426 484.5,-426 490.5,-432 490.5,-438 490.5,-438 490.5,-450 490.5,-450 490.5,-456 484.5,-462 478.5,-462"/>
<text text-anchor="middle" x="315" y="-440.9" font-family="Helvetica,sans-Serif" font-size="12.00">8a. Ocena kandydatów z wikidata przez model Gemini</text>
</g>
<!-- sources3 -->
<g id="node13" class="node">
<title>sources3</title>
<path fill="#f8fafc" stroke="#94a3b8" d="M337.5,-361C337.5,-361 38.5,-361 38.5,-361 32.5,-361 26.5,-355 26.5,-349 26.5,-349 26.5,-337 26.5,-337 26.5,-331 32.5,-325 38.5,-325 38.5,-325 337.5,-325 337.5,-325 343.5,-325 349.5,-331 349.5,-337 349.5,-337 349.5,-349 349.5,-349 349.5,-355 343.5,-361 337.5,-361"/>
<text text-anchor="middle" x="188" y="-339.9" font-family="Helvetica,sans-Serif" font-size="12.00">10. Wyszukiwanie w polskiej i angielskiej Wikipedii</text>
</g>
<!-- decision2&#45;&gt;sources3 -->
<g id="edge15" class="edge">
<title>decision2&#45;&gt;sources3</title>
<path fill="none" stroke="#475569" d="M293.17,-425.98C272,-409.48 239.76,-384.35 216.56,-366.26"/>
<polygon fill="#475569" stroke="#475569" points="218,-363.84 209.97,-361.13 214.56,-368.25 218,-363.84"/>
<text text-anchor="middle" x="303" y="-391" font-family="Helvetica,sans-Serif" font-size="10.00">jeżeli nieskuteczne</text>
</g>
<!-- decision2&#45;&gt;result -->
<g id="edge14" class="edge">
<title>decision2&#45;&gt;result</title>
<path fill="none" stroke="#475569" d="M331.75,-425.86C343.82,-413.51 358,-399 358,-399 358,-399 365,-361 365,-361 365,-361 384.86,-242.87 395.87,-177.42"/>
<polygon fill="#475569" stroke="#475569" points="398.66,-177.68 397.23,-169.32 393.14,-176.75 398.66,-177.68"/>
<text text-anchor="middle" x="441" y="-290" font-family="Helvetica,sans-Serif" font-size="10.00">jeżeli wybrano kandydata</text>
</g>
<!-- decision3 -->
<g id="node11" class="node">
<title>decision3</title>
<path fill="#f8fafc" stroke="#94a3b8" d="M342,-260C342,-260 12,-260 12,-260 6,-260 0,-254 0,-248 0,-248 0,-236 0,-236 0,-230 6,-224 12,-224 12,-224 342,-224 342,-224 348,-224 354,-230 354,-236 354,-236 354,-248 354,-248 354,-254 348,-260 342,-260"/>
<text text-anchor="middle" x="177" y="-238.9" font-family="Helvetica,sans-Serif" font-size="12.00">8b. Ocena kandydatów z Wikipedii przez model Gemini</text>
</g>
<!-- decision3&#45;&gt;result -->
<g id="edge17" class="edge">
<title>decision3&#45;&gt;result</title>
<path fill="none" stroke="#475569" d="M213.31,-223.97C242.79,-210.14 285.45,-190.13 322.85,-172.59"/>
<polygon fill="#475569" stroke="#475569" points="324.2,-175.05 330.26,-169.12 321.83,-169.98 324.2,-175.05"/>
</g>
<!-- sources2&#45;&gt;decision2 -->
<g id="edge13" class="edge">
<title>sources2&#45;&gt;decision2</title>
<path fill="none" stroke="#475569" d="M315,-516.9C315,-503.1 315,-485 315,-470.41"/>
<polygon fill="#475569" stroke="#475569" points="317.8,-470.28 315,-462.28 312.2,-470.28 317.8,-470.28"/>
</g>
<!-- sources3&#45;&gt;decision3 -->
<g id="edge16" class="edge">
<title>sources3&#45;&gt;decision3</title>
<path fill="none" stroke="#475569" d="M186.08,-324.76C184.35,-309.14 181.77,-285.94 179.8,-268.24"/>
<polygon fill="#475569" stroke="#475569" points="182.56,-267.69 178.89,-260.05 176.99,-268.31 182.56,-267.69"/>
</g>
<!-- pdf_after -->
<g id="node15" class="node">
<title>pdf_after</title>
<path fill="#fef3c7" stroke="#d97706" d="M655,-44C655,-44 151,-44 151,-44 145,-44 139,-38 139,-32 139,-32 139,-12 139,-12 139,-6 145,0 151,0 151,0 655,0 655,0 661,0 667,-6 667,-12 667,-12 667,-32 667,-32 667,-38 661,-44 655,-44"/>
<text text-anchor="middle" x="403" y="-25.4" font-family="Helvetica,sans-Serif" font-size="12.00">12. Eksport PDF</text>
<text text-anchor="middle" x="403" y="-12.4" font-family="Helvetica,sans-Serif" font-size="12.00">Plik zawiera tekst z kolorowaniem tagów, listy encji rozpoznanych i nierozpoznanych</text>
</g>
<!-- result&#45;&gt;pdf_after -->
<g id="edge10" class="edge">
<title>result&#45;&gt;pdf_after</title>
<path fill="none" stroke="#475569" d="M403,-98.8C403,-83.83 403,-66.44 403,-52.1"/>
<polygon fill="#475569" stroke="#475569" points="405.8,-52.05 403,-44.05 400.2,-52.05 405.8,-52.05"/>
</g>
</g>
</svg>
