<?xml version="1.0" encoding="UTF-8" standalone="no"?>
<!DOCTYPE svg PUBLIC "-//W3C//DTD SVG 1.1//EN"
 "http://www.w3.org/Graphics/SVG/1.1/DTD/svg11.dtd">
<!-- Generated by graphviz version 2.42.4 (0)
 -->
<!-- Title: text2ner_process_simple Pages: 1 -->
<svg width="587pt" height="1489pt"
 viewBox="0.00 0.00 586.70 1489.20" xmlns="http://www.w3.org/2000/svg" xmlns:xlink="http://www.w3.org/1999/xlink">
<g id="graph0" class="graph" transform="scale(1 1) rotate(0) translate(21.6 1467.6)">
<title>text2ner_process_simple</title>
<polygon fill="white" stroke="transparent" points="-21.6,21.6 -21.6,-1467.6 565.1,-1467.6 565.1,21.6 -21.6,21.6"/>
<text text-anchor="middle" x="271.75" y="-1426" font-family="Helvetica,sans-Serif" font-size="20.00">TEXT2NER: uproszczony przebieg pracy aplikacji</text>
<!-- start -->
<g id="node1" class="node">
<title>start</title>
<path fill="#e0f2fe" stroke="#0284c7" d="M523.5,-1416C523.5,-1416 63.5,-1416 63.5,-1416 57.5,-1416 51.5,-1410 51.5,-1404 51.5,-1404 51.5,-1392 51.5,-1392 51.5,-1386 57.5,-1380 63.5,-1380 63.5,-1380 523.5,-1380 523.5,-1380 529.5,-1380 535.5,-1386 535.5,-1392 535.5,-1392 535.5,-1404 535.5,-1404 535.5,-1410 529.5,-1416 523.5,-1416"/>
<text text-anchor="middle" x="293.5" y="-1394.9" font-family="Helvetica,sans-Serif" font-size="12.00">1. Dokument do analizy wprowadzony do pola tekstowego (do 5000 znaków)</text>
</g>
<!-- settings -->
<g id="node2" class="node">
<title>settings</title>
<path fill="#f8fafc" stroke="#94a3b8" d="M388,-1325C388,-1325 199,-1325 199,-1325 193,-1325 187,-1319 187,-1313 187,-1313 187,-1280 187,-1280 187,-1274 193,-1268 199,-1268 199,-1268 388,-1268 388,-1268 394,-1268 400,-1274 400,-1280 400,-1280 400,-1313 400,-1313 400,-1319 394,-1325 388,-1325"/>
<text text-anchor="middle" x="293.5" y="-1306.4" font-family="Helvetica,sans-Serif" font-size="12.00">2. Parametry analizy:</text>
<text text-anchor="middle" x="293.5" y="-1293.4" font-family="Helvetica,sans-Serif" font-size="12.00">model Gemini oraz typy tagów,</text>
<text text-anchor="middle" x="293.5" y="-1280.4" font-family="Helvetica,sans-Serif" font-size="12.00">które mają być rozpoznawane</text>
</g>
<!-- start&#45;&gt;settings -->
<g id="edge1" class="edge">
<title>start&#45;&gt;settings</title>
<path fill="none" stroke="#475569" d="M293.5,-1379.67C293.5,-1366.87 293.5,-1348.99 293.5,-1333.18"/>
<polygon fill="#475569" stroke="#475569" points="296.3,-1333.14 293.5,-1325.14 290.7,-1333.14 296.3,-1333.14"/>
</g>
<!-- recognize -->
<g id="node3" class="node">
<title>recognize</title>
<path fill="#f8fafc" stroke="#94a3b8" d="M448.5,-1213C448.5,-1213 138.5,-1213 138.5,-1213 132.5,-1213 126.5,-1207 126.5,-1201 126.5,-1201 126.5,-1155 126.5,-1155 126.5,-1149 132.5,-1143 138.5,-1143 138.5,-1143 448.5,-1143 448.5,-1143 454.5,-1143 460.5,-1149 460.5,-1155 460.5,-1155 460.5,-1201 460.5,-1201 460.5,-1207 454.5,-1213 448.5,-1213"/>
<text text-anchor="middle" x="293.5" y="-1194.4" font-family="Helvetica,sans-Serif" font-size="12.00">3. Funkcja Rozpoznaj encje</text>
<text text-anchor="middle" x="293.5" y="-1181.4" font-family="Helvetica,sans-Serif" font-size="12.00">Aplikacja tworzy TEI&#45;XML</text>
<text text-anchor="middle" x="293.5" y="-1168.4" font-family="Helvetica,sans-Serif" font-size="12.00">i oznacza osoby, miejsca,</text>
<text text-anchor="middle" x="293.5" y="-1155.4" font-family="Helvetica,sans-Serif" font-size="12.00">daty, funkcje i instytucje (tagi zależnie od ustawień)</text>
</g>
<!-- settings&#45;&gt;recognize -->
<g id="edge2" class="edge">
<title>settings&#45;&gt;recognize</title>
<path fill="none" stroke="#475569" d="M293.5,-1267.89C293.5,-1254.04 293.5,-1236.95 293.5,-1221.48"/>
<polygon fill="#475569" stroke="#475569" points="296.3,-1221.07 293.5,-1213.07 290.7,-1221.07 296.3,-1221.07"/>
</g>
<!-- preview -->
<g id="node4" class="node">
<title>preview</title>
<path fill="#f8fafc" stroke="#94a3b8" d="M386,-1088C386,-1088 201,-1088 201,-1088 195,-1088 189,-1082 189,-1076 189,-1076 189,-1043 189,-1043 189,-1037 195,-1031 201,-1031 201,-1031 386,-1031 386,-1031 392,-1031 398,-1037 398,-1043 398,-1043 398,-1076 398,-1076 398,-1082 392,-1088 386,-1088"/>
<text text-anchor="middle" x="293.5" y="-1069.4" font-family="Helvetica,sans-Serif" font-size="12.00">4. Podgląd wyniku</text>
<text text-anchor="middle" x="293.5" y="-1056.4" font-family="Helvetica,sans-Serif" font-size="12.00">Użytkownik ogląda XML</text>
<text text-anchor="middle" x="293.5" y="-1043.4" font-family="Helvetica,sans-Serif" font-size="12.00">lub kolorowany podgląd tekstu</text>
</g>
<!-- recognize&#45;&gt;preview -->
<g id="edge3" class="edge">
<title>recognize&#45;&gt;preview</title>
<path fill="none" stroke="#475569" d="M293.5,-1142.99C293.5,-1128.26 293.5,-1111 293.5,-1096.1"/>
<polygon fill="#475569" stroke="#475569" points="296.3,-1096.09 293.5,-1088.09 290.7,-1096.09 296.3,-1096.09"/>
</g>
<!-- manual -->
<g id="node5" class="node">
<title>manual</title>
<path fill="#f8fafc" stroke="#94a3b8" d="M217,-976C217,-976 12,-976 12,-976 6,-976 0,-970 0,-964 0,-964 0,-931 0,-931 0,-925 6,-919 12,-919 12,-919 217,-919 217,-919 223,-919 229,-925 229,-931 229,-931 229,-964 229,-964 229,-970 223,-976 217,-976"/>
<text text-anchor="middle" x="114.5" y="-957.4" font-family="Helvetica,sans-Serif" font-size="12.00">5. Opcjonalna korekta ręczna</text>
<text text-anchor="middle" x="114.5" y="-944.4" font-family="Helvetica,sans-Serif" font-size="12.00">Można usunąć tag,</text>
<text text-anchor="middle" x="114.5" y="-931.4" font-family="Helvetica,sans-Serif" font-size="12.00">zmienić jego typ albo dodać nowy</text>
</g>
<!-- preview&#45;&gt;manual -->
<g id="edge4" class="edge">
<title>preview&#45;&gt;manual</title>
<path fill="none" stroke="#475569" d="M248.33,-1030.74C223.33,-1015.38 192.15,-996.22 166.17,-980.26"/>
<polygon fill="#475569" stroke="#475569" points="167.63,-977.86 159.34,-976.06 164.69,-982.63 167.63,-977.86"/>
</g>
<!-- pdf_before -->
<g id="node6" class="node">
<title>pdf_before</title>
<path fill="#fef3c7" stroke="#d97706" d="M384.5,-854C384.5,-854 188.5,-854 188.5,-854 182.5,-854 176.5,-848 176.5,-842 176.5,-842 176.5,-809 176.5,-809 176.5,-803 182.5,-797 188.5,-797 188.5,-797 384.5,-797 384.5,-797 390.5,-797 396.5,-803 396.5,-809 396.5,-809 396.5,-842 396.5,-842 396.5,-848 390.5,-854 384.5,-854"/>
<text text-anchor="middle" x="286.5" y="-835.4" font-family="Helvetica,sans-Serif" font-size="12.00">6. Eksport PDF podglądu</text>
<text text-anchor="middle" x="286.5" y="-822.4" font-family="Helvetica,sans-Serif" font-size="12.00">Można pobrać kolorowy podgląd</text>
<text text-anchor="middle" x="286.5" y="-809.4" font-family="Helvetica,sans-Serif" font-size="12.00">aktualnego tekstu i oznaczeń</text>
</g>
<!-- preview&#45;&gt;pdf_before -->
<g id="edge14" class="edge">
<title>preview&#45;&gt;pdf_before</title>
<path fill="none" stroke="#475569" d="M292.67,-1030.98C291.4,-988.97 288.98,-908.85 287.58,-862.35"/>
<polygon fill="#475569" stroke="#475569" points="290.38,-862.26 287.34,-854.35 284.78,-862.43 290.38,-862.26"/>
<text text-anchor="middle" x="343" y="-945" font-family="Helvetica,sans-Serif" font-size="10.00">PDF bez identyfikacji</text>
</g>
<!-- identify -->
<g id="node7" class="node">
<title>identify</title>
<path fill="#f8fafc" stroke="#94a3b8" d="M484,-742C484,-742 247,-742 247,-742 241,-742 235,-736 235,-730 235,-730 235,-697 235,-697 235,-691 241,-685 247,-685 247,-685 484,-685 484,-685 490,-685 496,-691 496,-697 496,-697 496,-730 496,-730 496,-736 490,-742 484,-742"/>
<text text-anchor="middle" x="365.5" y="-723.4" font-family="Helvetica,sans-Serif" font-size="12.00">7. Identyfikacja encji jako zadanie w tle</text>
<text text-anchor="middle" x="365.5" y="-710.4" font-family="Helvetica,sans-Serif" font-size="12.00">Aplikacja przyjmuje XML do kolejki</text>
<text text-anchor="middle" x="365.5" y="-697.4" font-family="Helvetica,sans-Serif" font-size="12.00">i pokazuje pasek postępu</text>
</g>
<!-- preview&#45;&gt;identify -->
<g id="edge13" class="edge">
<title>preview&#45;&gt;identify</title>
<path fill="none" stroke="#475569" d="M330.1,-1030.8C361.76,-1006.83 402.5,-976 402.5,-976 402.5,-976 412.5,-854 412.5,-854 412.5,-854 412.5,-797 412.5,-797 412.5,-797 398.29,-772.06 385.5,-749.6"/>
<polygon fill="#475569" stroke="#475569" points="387.81,-748 381.41,-742.43 382.94,-750.77 387.81,-748"/>
<text text-anchor="middle" x="458" y="-884" font-family="Helvetica,sans-Serif" font-size="10.00">jeśli nie ma korekty</text>
</g>
<!-- manual&#45;&gt;pdf_before -->
<g id="edge5" class="edge">
<title>manual&#45;&gt;pdf_before</title>
<path fill="none" stroke="#475569" d="M153.96,-918.97C179.65,-901.04 213.28,-877.59 240.23,-858.78"/>
<polygon fill="#475569" stroke="#475569" points="241.97,-860.98 246.93,-854.11 238.76,-856.39 241.97,-860.98"/>
</g>
<!-- pdf_before&#45;&gt;identify -->
<g id="edge6" class="edge">
<title>pdf_before&#45;&gt;identify</title>
<path fill="none" stroke="#475569" d="M306.44,-796.74C316.82,-782.28 329.62,-764.46 340.65,-749.11"/>
<polygon fill="#475569" stroke="#475569" points="343.18,-750.38 345.57,-742.25 338.63,-747.11 343.18,-750.38"/>
</g>
<!-- sources -->
<g id="node8" class="node">
<title>sources</title>
<path fill="#f8fafc" stroke="#94a3b8" d="M464.5,-630C464.5,-630 266.5,-630 266.5,-630 260.5,-630 254.5,-624 254.5,-618 254.5,-618 254.5,-572 254.5,-572 254.5,-566 260.5,-560 266.5,-560 266.5,-560 464.5,-560 464.5,-560 470.5,-560 476.5,-566 476.5,-572 476.5,-572 476.5,-618 476.5,-618 476.5,-624 470.5,-630 464.5,-630"/>
<text text-anchor="middle" x="365.5" y="-611.4" font-family="Helvetica,sans-Serif" font-size="12.00">8. Wyszukiwanie kandydatów</text>
<text text-anchor="middle" x="365.5" y="-598.4" font-family="Helvetica,sans-Serif" font-size="12.00">w WikiHum, va.wiki.kul.pl,</text>
<text text-anchor="middle" x="365.5" y="-585.4" font-family="Helvetica,sans-Serif" font-size="12.00">jeżeli nieskuteczna &#45;&gt; Wikidata</text>
<text text-anchor="middle" x="365.5" y="-572.4" font-family="Helvetica,sans-Serif" font-size="12.00">oraz polska i angielska Wikipedia</text>
</g>
<!-- identify&#45;&gt;sources -->
<g id="edge7" class="edge">
<title>identify&#45;&gt;sources</title>
<path fill="none" stroke="#475569" d="M365.5,-684.89C365.5,-671.04 365.5,-653.95 365.5,-638.48"/>
<polygon fill="#475569" stroke="#475569" points="368.3,-638.07 365.5,-630.07 362.7,-638.07 368.3,-638.07"/>
</g>
<!-- decision -->
<g id="node9" class="node">
<title>decision</title>
<path fill="#f8fafc" stroke="#94a3b8" d="M470,-505C470,-505 261,-505 261,-505 255,-505 249,-499 249,-493 249,-493 249,-447 249,-447 249,-441 255,-435 261,-435 261,-435 470,-435 470,-435 476,-435 482,-441 482,-447 482,-447 482,-493 482,-493 482,-499 476,-505 470,-505"/>
<text text-anchor="middle" x="365.5" y="-486.4" font-family="Helvetica,sans-Serif" font-size="12.00">9. Ocena kandydatów</text>
<text text-anchor="middle" x="365.5" y="-473.4" font-family="Helvetica,sans-Serif" font-size="12.00">Model Gemini porównuje kontekst,</text>
<text text-anchor="middle" x="365.5" y="-460.4" font-family="Helvetica,sans-Serif" font-size="12.00">warianty nazwy (dla osób</text>
<text text-anchor="middle" x="365.5" y="-447.4" font-family="Helvetica,sans-Serif" font-size="12.00">również zgodność chronologiczną)</text>
</g>
<!-- sources&#45;&gt;decision -->
<g id="edge8" class="edge">
<title>sources&#45;&gt;decision</title>
<path fill="none" stroke="#475569" d="M365.5,-559.74C365.5,-545.34 365.5,-528.45 365.5,-513.3"/>
<polygon fill="#475569" stroke="#475569" points="368.3,-513.08 365.5,-505.08 362.7,-513.08 368.3,-513.08"/>
</g>
<!-- result -->
<g id="node10" class="node">
<title>result</title>
<path fill="#dcfce7" stroke="#16a34a" d="M531.5,-380C531.5,-380 199.5,-380 199.5,-380 193.5,-380 187.5,-374 187.5,-368 187.5,-368 187.5,-348 187.5,-348 187.5,-342 193.5,-336 199.5,-336 199.5,-336 531.5,-336 531.5,-336 537.5,-336 543.5,-342 543.5,-348 543.5,-348 543.5,-368 543.5,-368 543.5,-374 537.5,-380 531.5,-380"/>
<text text-anchor="middle" x="365.5" y="-361.4" font-family="Helvetica,sans-Serif" font-size="12.00">10. Wynik końcowy</text>
<text text-anchor="middle" x="365.5" y="-348.4" font-family="Helvetica,sans-Serif" font-size="12.00">TEI&#45;XML z wyróżnieniem osób, miejsc i ich identyfikacją</text>
</g>
<!-- decision&#45;&gt;result -->
<g id="edge9" class="edge">
<title>decision&#45;&gt;result</title>
<path fill="none" stroke="#475569" d="M365.5,-434.8C365.5,-419.83 365.5,-402.44 365.5,-388.1"/>
<polygon fill="#475569" stroke="#475569" points="368.3,-388.05 365.5,-380.05 362.7,-388.05 368.3,-388.05"/>
</g>
<!-- lists -->
<g id="node11" class="node">
<title>lists</title>
<path fill="#f8fafc" stroke="#94a3b8" d="M498.5,-281C498.5,-281 232.5,-281 232.5,-281 226.5,-281 220.5,-275 220.5,-269 220.5,-269 220.5,-236 220.5,-236 220.5,-230 226.5,-224 232.5,-224 232.5,-224 498.5,-224 498.5,-224 504.5,-224 510.5,-230 510.5,-236 510.5,-236 510.5,-269 510.5,-269 510.5,-275 504.5,-281 498.5,-281"/>
<text text-anchor="middle" x="365.5" y="-262.4" font-family="Helvetica,sans-Serif" font-size="12.00">11. Dodatkowe wyniki:</text>
<text text-anchor="middle" x="365.5" y="-249.4" font-family="Helvetica,sans-Serif" font-size="12.00">Lista encji (osób i miejsc) zidentyfikowanych</text>
<text text-anchor="middle" x="365.5" y="-236.4" font-family="Helvetica,sans-Serif" font-size="12.00">i niezidentyfikowanych</text>
</g>
<!-- result&#45;&gt;lists -->
<g id="edge10" class="edge">
<title>result&#45;&gt;lists</title>
<path fill="none" stroke="#475569" d="M365.5,-335.81C365.5,-322.53 365.5,-305.08 365.5,-289.66"/>
<polygon fill="#475569" stroke="#475569" points="368.3,-289.35 365.5,-281.35 362.7,-289.35 368.3,-289.35"/>
</g>
<!-- pdf_after -->
<g id="node12" class="node">
<title>pdf_after</title>
<path fill="#f8fafc" stroke="#94a3b8" d="M463,-169C463,-169 268,-169 268,-169 262,-169 256,-163 256,-157 256,-157 256,-137 256,-137 256,-131 262,-125 268,-125 268,-125 463,-125 463,-125 469,-125 475,-131 475,-137 475,-137 475,-157 475,-157 475,-163 469,-169 463,-169"/>
<text text-anchor="middle" x="365.5" y="-150.4" font-family="Helvetica,sans-Serif" font-size="12.00">12. Eksport PDF po identyfikacji</text>
<text text-anchor="middle" x="365.5" y="-137.4" font-family="Helvetica,sans-Serif" font-size="12.00">Podgląd zawiera także listy encji</text>
</g>
<!-- lists&#45;&gt;pdf_after -->
<g id="edge11" class="edge">
<title>lists&#45;&gt;pdf_after</title>
<path fill="none" stroke="#475569" d="M365.5,-223.76C365.5,-209.45 365.5,-191.98 365.5,-177.43"/>
<polygon fill="#475569" stroke="#475569" points="368.3,-177.24 365.5,-169.24 362.7,-177.24 368.3,-177.24"/>
</g>
<!-- log -->
<g id="node13" class="node">
<title>log</title>
<path fill="#fef3c7" stroke="#d97706" d="M438.5,-70C438.5,-70 292.5,-70 292.5,-70 286.5,-70 280.5,-64 280.5,-58 280.5,-58 280.5,-12 280.5,-12 280.5,-6 286.5,0 292.5,0 292.5,0 438.5,0 438.5,0 444.5,0 450.5,-6 450.5,-12 450.5,-12 450.5,-58 450.5,-58 450.5,-64 444.5,-70 438.5,-70"/>
<text text-anchor="middle" x="365.5" y="-51.4" font-family="Helvetica,sans-Serif" font-size="12.00">13. Log diagnostyczny</text>
<text text-anchor="middle" x="365.5" y="-38.4" font-family="Helvetica,sans-Serif" font-size="12.00">Można pobrać pełny log</text>
<text text-anchor="middle" x="365.5" y="-25.4" font-family="Helvetica,sans-Serif" font-size="12.00">lub obejrzeć fragment</text>
<text text-anchor="middle" x="365.5" y="-12.4" font-family="Helvetica,sans-Serif" font-size="12.00">dla konkretnej encji</text>
</g>
<!-- pdf_after&#45;&gt;log -->
<g id="edge12" class="edge">
<title>pdf_after&#45;&gt;log</title>
<path fill="none" stroke="#475569" d="M365.5,-124.79C365.5,-111.61 365.5,-94.19 365.5,-78.28"/>
<polygon fill="#475569" stroke="#475569" points="368.3,-78.13 365.5,-70.13 362.7,-78.13 368.3,-78.13"/>
</g>
</g>
</svg>
