<?xml version="1.0" encoding="UTF-8" standalone="no"?>
<!DOCTYPE svg PUBLIC "-//W3C//DTD SVG 1.1//EN"
 "http://www.w3.org/Graphics/SVG/1.1/DTD/svg11.dtd">
<!-- Generated by graphviz version 2.42.4 (0)
 -->
<!-- Title: text2ner_process_simple Pages: 1 -->
<svg width="587pt" height="1476pt"
 viewBox="0.00 0.00 586.70 1476.20" xmlns="http://www.w3.org/2000/svg" xmlns:xlink="http://www.w3.org/1999/xlink">
<g id="graph0" class="graph" transform="scale(1 1) rotate(0) translate(21.6 1454.6)">
<title>text2ner_process_simple</title>
<polygon fill="white" stroke="transparent" points="-21.6,21.6 -21.6,-1454.6 565.1,-1454.6 565.1,21.6 -21.6,21.6"/>
<text text-anchor="middle" x="271.75" y="-1413" font-family="Helvetica,sans-Serif" font-size="20.00">TEXT2NER: uproszczony przebieg pracy aplikacji</text>
<!-- start -->
<g id="node1" class="node">
<title>start</title>
<path fill="#e0f2fe" stroke="#0284c7" d="M523.5,-1403C523.5,-1403 63.5,-1403 63.5,-1403 57.5,-1403 51.5,-1397 51.5,-1391 51.5,-1391 51.5,-1379 51.5,-1379 51.5,-1373 57.5,-1367 63.5,-1367 63.5,-1367 523.5,-1367 523.5,-1367 529.5,-1367 535.5,-1373 535.5,-1379 535.5,-1379 535.5,-1391 535.5,-1391 535.5,-1397 529.5,-1403 523.5,-1403"/>
<text text-anchor="middle" x="293.5" y="-1381.9" font-family="Helvetica,sans-Serif" font-size="12.00">1. Dokument do analizy wprowadzony do pola tekstowego (do 5000 znaków)</text>
</g>
<!-- settings -->
<g id="node2" class="node">
<title>settings</title>
<path fill="#f8fafc" stroke="#94a3b8" d="M388,-1312C388,-1312 199,-1312 199,-1312 193,-1312 187,-1306 187,-1300 187,-1300 187,-1267 187,-1267 187,-1261 193,-1255 199,-1255 199,-1255 388,-1255 388,-1255 394,-1255 400,-1261 400,-1267 400,-1267 400,-1300 400,-1300 400,-1306 394,-1312 388,-1312"/>
<text text-anchor="middle" x="293.5" y="-1293.4" font-family="Helvetica,sans-Serif" font-size="12.00">2. Parametry analizy:</text>
<text text-anchor="middle" x="293.5" y="-1280.4" font-family="Helvetica,sans-Serif" font-size="12.00">model Gemini oraz typy tagów,</text>
<text text-anchor="middle" x="293.5" y="-1267.4" font-family="Helvetica,sans-Serif" font-size="12.00">które mają być rozpoznawane</text>
</g>
<!-- start&#45;&gt;settings -->
<g id="edge1" class="edge">
<title>start&#45;&gt;settings</title>
<path fill="none" stroke="#475569" d="M293.5,-1366.67C293.5,-1353.87 293.5,-1335.99 293.5,-1320.18"/>
<polygon fill="#475569" stroke="#475569" points="296.3,-1320.14 293.5,-1312.14 290.7,-1320.14 296.3,-1320.14"/>
</g>
<!-- recognize -->
<g id="node3" class="node">
<title>recognize</title>
<path fill="#f8fafc" stroke="#94a3b8" d="M448.5,-1200C448.5,-1200 138.5,-1200 138.5,-1200 132.5,-1200 126.5,-1194 126.5,-1188 126.5,-1188 126.5,-1142 126.5,-1142 126.5,-1136 132.5,-1130 138.5,-1130 138.5,-1130 448.5,-1130 448.5,-1130 454.5,-1130 460.5,-1136 460.5,-1142 460.5,-1142 460.5,-1188 460.5,-1188 460.5,-1194 454.5,-1200 448.5,-1200"/>
<text text-anchor="middle" x="293.5" y="-1181.4" font-family="Helvetica,sans-Serif" font-size="12.00">3. Funkcja Rozpoznaj encje</text>
<text text-anchor="middle" x="293.5" y="-1168.4" font-family="Helvetica,sans-Serif" font-size="12.00">Aplikacja tworzy TEI&#45;XML</text>
<text text-anchor="middle" x="293.5" y="-1155.4" font-family="Helvetica,sans-Serif" font-size="12.00">i oznacza osoby, miejsca,</text>
<text text-anchor="middle" x="293.5" y="-1142.4" font-family="Helvetica,sans-Serif" font-size="12.00">daty, funkcje i instytucje (tagi zależnie od ustawień)</text>
</g>
<!-- settings&#45;&gt;recognize -->
<g id="edge2" class="edge">
<title>settings&#45;&gt;recognize</title>
<path fill="none" stroke="#475569" d="M293.5,-1254.89C293.5,-1241.04 293.5,-1223.95 293.5,-1208.48"/>
<polygon fill="#475569" stroke="#475569" points="296.3,-1208.07 293.5,-1200.07 290.7,-1208.07 296.3,-1208.07"/>
</g>
<!-- preview -->
<g id="node4" class="node">
<title>preview</title>
<path fill="#f8fafc" stroke="#94a3b8" d="M386,-1075C386,-1075 201,-1075 201,-1075 195,-1075 189,-1069 189,-1063 189,-1063 189,-1030 189,-1030 189,-1024 195,-1018 201,-1018 201,-1018 386,-1018 386,-1018 392,-1018 398,-1024 398,-1030 398,-1030 398,-1063 398,-1063 398,-1069 392,-1075 386,-1075"/>
<text text-anchor="middle" x="293.5" y="-1056.4" font-family="Helvetica,sans-Serif" font-size="12.00">4. Podgląd wyniku</text>
<text text-anchor="middle" x="293.5" y="-1043.4" font-family="Helvetica,sans-Serif" font-size="12.00">Użytkownik ogląda XML</text>
<text text-anchor="middle" x="293.5" y="-1030.4" font-family="Helvetica,sans-Serif" font-size="12.00">lub kolorowany podgląd tekstu</text>
</g>
<!-- recognize&#45;&gt;preview -->
<g id="edge3" class="edge">
<title>recognize&#45;&gt;preview</title>
<path fill="none" stroke="#475569" d="M293.5,-1129.99C293.5,-1115.26 293.5,-1098 293.5,-1083.1"/>
<polygon fill="#475569" stroke="#475569" points="296.3,-1083.09 293.5,-1075.09 290.7,-1083.09 296.3,-1083.09"/>
</g>
<!-- manual -->
<g id="node5" class="node">
<title>manual</title>
<path fill="#f8fafc" stroke="#94a3b8" d="M217,-963C217,-963 12,-963 12,-963 6,-963 0,-957 0,-951 0,-951 0,-918 0,-918 0,-912 6,-906 12,-906 12,-906 217,-906 217,-906 223,-906 229,-912 229,-918 229,-918 229,-951 229,-951 229,-957 223,-963 217,-963"/>
<text text-anchor="middle" x="114.5" y="-944.4" font-family="Helvetica,sans-Serif" font-size="12.00">5. Opcjonalna korekta ręczna</text>
<text text-anchor="middle" x="114.5" y="-931.4" font-family="Helvetica,sans-Serif" font-size="12.00">Można usunąć tag,</text>
<text text-anchor="middle" x="114.5" y="-918.4" font-family="Helvetica,sans-Serif" font-size="12.00">zmienić jego typ albo dodać nowy</text>
</g>
<!-- preview&#45;&gt;manual -->
<g id="edge4" class="edge">
<title>preview&#45;&gt;manual</title>
<path fill="none" stroke="#475569" d="M248.33,-1017.74C223.33,-1002.38 192.15,-983.22 166.17,-967.26"/>
<polygon fill="#475569" stroke="#475569" points="167.63,-964.86 159.34,-963.06 164.69,-969.63 167.63,-964.86"/>
</g>
<!-- pdf_before -->
<g id="node6" class="node">
<title>pdf_before</title>
<path fill="#fef3c7" stroke="#d97706" d="M384.5,-841C384.5,-841 188.5,-841 188.5,-841 182.5,-841 176.5,-835 176.5,-829 176.5,-829 176.5,-796 176.5,-796 176.5,-790 182.5,-784 188.5,-784 188.5,-784 384.5,-784 384.5,-784 390.5,-784 396.5,-790 396.5,-796 396.5,-796 396.5,-829 396.5,-829 396.5,-835 390.5,-841 384.5,-841"/>
<text text-anchor="middle" x="286.5" y="-822.4" font-family="Helvetica,sans-Serif" font-size="12.00">6. Eksport PDF podglądu</text>
<text text-anchor="middle" x="286.5" y="-809.4" font-family="Helvetica,sans-Serif" font-size="12.00">Można pobrać kolorowy podgląd</text>
<text text-anchor="middle" x="286.5" y="-796.4" font-family="Helvetica,sans-Serif" font-size="12.00">aktualnego tekstu i oznaczeń</text>
</g>
<!-- preview&#45;&gt;pdf_before -->
<g id="edge14" class="edge">
<title>preview&#45;&gt;pdf_before</title>
<path fill="none" stroke="#475569" d="M292.67,-1017.98C291.4,-975.97 288.98,-895.85 287.58,-849.35"/>
<polygon fill="#475569" stroke="#475569" points="290.38,-849.26 287.34,-841.35 284.78,-849.43 290.38,-849.26"/>
<text text-anchor="middle" x="343" y="-932" font-family="Helvetica,sans-Serif" font-size="10.00">PDF bez identyfikacji</text>
</g>
<!-- identify -->
<g id="node7" class="node">
<title>identify</title>
<path fill="#f8fafc" stroke="#94a3b8" d="M484,-729C484,-729 247,-729 247,-729 241,-729 235,-723 235,-717 235,-717 235,-684 235,-684 235,-678 241,-672 247,-672 247,-672 484,-672 484,-672 490,-672 496,-678 496,-684 496,-684 496,-717 496,-717 496,-723 490,-729 484,-729"/>
<text text-anchor="middle" x="365.5" y="-710.4" font-family="Helvetica,sans-Serif" font-size="12.00">7. Identyfikacja encji jako zadanie w tle</text>
<text text-anchor="middle" x="365.5" y="-697.4" font-family="Helvetica,sans-Serif" font-size="12.00">Aplikacja przyjmuje XML do kolejki</text>
<text text-anchor="middle" x="365.5" y="-684.4" font-family="Helvetica,sans-Serif" font-size="12.00">i pokazuje pasek postępu</text>
</g>
<!-- preview&#45;&gt;identify -->
<g id="edge13" class="edge">
<title>preview&#45;&gt;identify</title>
<path fill="none" stroke="#475569" d="M330.1,-1017.8C361.76,-993.83 402.5,-963 402.5,-963 402.5,-963 412.5,-841 412.5,-841 412.5,-841 412.5,-784 412.5,-784 412.5,-784 398.29,-759.06 385.5,-736.6"/>
<polygon fill="#475569" stroke="#475569" points="387.81,-735 381.41,-729.43 382.94,-737.77 387.81,-735"/>
<text text-anchor="middle" x="458" y="-871" font-family="Helvetica,sans-Serif" font-size="10.00">jeśli nie ma korekty</text>
</g>
<!-- manual&#45;&gt;pdf_before -->
<g id="edge5" class="edge">
<title>manual&#45;&gt;pdf_before</title>
<path fill="none" stroke="#475569" d="M153.96,-905.97C179.65,-888.04 213.28,-864.59 240.23,-845.78"/>
<polygon fill="#475569" stroke="#475569" points="241.97,-847.98 246.93,-841.11 238.76,-843.39 241.97,-847.98"/>
</g>
<!-- pdf_before&#45;&gt;identify -->
<g id="edge6" class="edge">
<title>pdf_before&#45;&gt;identify</title>
<path fill="none" stroke="#475569" d="M306.44,-783.74C316.82,-769.28 329.62,-751.46 340.65,-736.11"/>
<polygon fill="#475569" stroke="#475569" points="343.18,-737.38 345.57,-729.25 338.63,-734.11 343.18,-737.38"/>
</g>
<!-- sources -->
<g id="node8" class="node">
<title>sources</title>
<path fill="#f8fafc" stroke="#94a3b8" d="M521.5,-617C521.5,-617 209.5,-617 209.5,-617 203.5,-617 197.5,-611 197.5,-605 197.5,-605 197.5,-572 197.5,-572 197.5,-566 203.5,-560 209.5,-560 209.5,-560 521.5,-560 521.5,-560 527.5,-560 533.5,-566 533.5,-572 533.5,-572 533.5,-605 533.5,-605 533.5,-611 527.5,-617 521.5,-617"/>
<text text-anchor="middle" x="365.5" y="-598.4" font-family="Helvetica,sans-Serif" font-size="12.00">8. Wyszukiwanie kandydatów</text>
<text text-anchor="middle" x="365.5" y="-585.4" font-family="Helvetica,sans-Serif" font-size="12.00">w WikiHum, va.wiki.kul.pl,</text>
<text text-anchor="middle" x="365.5" y="-572.4" font-family="Helvetica,sans-Serif" font-size="12.00">jeżeli nieskuteczna &#45;&gt; Wikidata i w polskiej Wikipedii</text>
</g>
<!-- identify&#45;&gt;sources -->
<g id="edge7" class="edge">
<title>identify&#45;&gt;sources</title>
<path fill="none" stroke="#475569" d="M365.5,-671.74C365.5,-657.67 365.5,-640.42 365.5,-625.36"/>
<polygon fill="#475569" stroke="#475569" points="368.3,-625.25 365.5,-617.25 362.7,-625.25 368.3,-625.25"/>
</g>
<!-- decision -->
<g id="node9" class="node">
<title>decision</title>
<path fill="#f8fafc" stroke="#94a3b8" d="M470,-505C470,-505 261,-505 261,-505 255,-505 249,-499 249,-493 249,-493 249,-447 249,-447 249,-441 255,-435 261,-435 261,-435 470,-435 470,-435 476,-435 482,-441 482,-447 482,-447 482,-493 482,-493 482,-499 476,-505 470,-505"/>
<text text-anchor="middle" x="365.5" y="-486.4" font-family="Helvetica,sans-Serif" font-size="12.00">9. Ocena kandydatów</text>
<text text-anchor="middle" x="365.5" y="-473.4" font-family="Helvetica,sans-Serif" font-size="12.00">Model Gemini porównuje kontekst,</text>
<text text-anchor="middle" x="365.5" y="-460.4" font-family="Helvetica,sans-Serif" font-size="12.00">warianty nazwy (dla osób</text>
<text text-anchor="middle" x="365.5" y="-447.4" font-family="Helvetica,sans-Serif" font-size="12.00">również zgodność chronologiczną)</text>
</g>
<!-- sources&#45;&gt;decision -->
<g id="edge8" class="edge">
<title>sources&#45;&gt;decision</title>
<path fill="none" stroke="#475569" d="M365.5,-559.89C365.5,-546.04 365.5,-528.95 365.5,-513.48"/>
<polygon fill="#475569" stroke="#475569" points="368.3,-513.07 365.5,-505.07 362.7,-513.07 368.3,-513.07"/>
</g>
<!-- result -->
<g id="node10" class="node">
<title>result</title>
<path fill="#dcfce7" stroke="#16a34a" d="M531.5,-380C531.5,-380 199.5,-380 199.5,-380 193.5,-380 187.5,-374 187.5,-368 187.5,-368 187.5,-348 187.5,-348 187.5,-342 193.5,-336 199.5,-336 199.5,-336 531.5,-336 531.5,-336 537.5,-336 543.5,-342 543.5,-348 543.5,-348 543.5,-368 543.5,-368 543.5,-374 537.5,-380 531.5,-380"/>
<text text-anchor="middle" x="365.5" y="-361.4" font-family="Helvetica,sans-Serif" font-size="12.00">10. Wynik końcowy</text>
<text text-anchor="middle" x="365.5" y="-348.4" font-family="Helvetica,sans-Serif" font-size="12.00">TEI&#45;XML z wyróżnieniem osób, miejsc i ich identyfikacją</text>
</g>
<!-- decision&#45;&gt;result -->
<g id="edge9" class="edge">
<title>decision&#45;&gt;result</title>
<path fill="none" stroke="#475569" d="M365.5,-434.8C365.5,-419.83 365.5,-402.44 365.5,-388.1"/>
<polygon fill="#475569" stroke="#475569" points="368.3,-388.05 365.5,-380.05 362.7,-388.05 368.3,-388.05"/>
</g>
<!-- lists -->
<g id="node11" class="node">
<title>lists</title>
<path fill="#f8fafc" stroke="#94a3b8" d="M498.5,-281C498.5,-281 232.5,-281 232.5,-281 226.5,-281 220.5,-275 220.5,-269 220.5,-269 220.5,-236 220.5,-236 220.5,-230 226.5,-224 232.5,-224 232.5,-224 498.5,-224 498.5,-224 504.5,-224 510.5,-230 510.5,-236 510.5,-236 510.5,-269 510.5,-269 510.5,-275 504.5,-281 498.5,-281"/>
<text text-anchor="middle" x="365.5" y="-262.4" font-family="Helvetica,sans-Serif" font-size="12.00">11. Dodatkowe wyniki:</text>
<text text-anchor="middle" x="365.5" y="-249.4" font-family="Helvetica,sans-Serif" font-size="12.00">Lista encji (osób i miejsc) zidentyfikowanych</text>
<text text-anchor="middle" x="365.5" y="-236.4" font-family="Helvetica,sans-Serif" font-size="12.00">i niezidentyfikowanych</text>
</g>
<!-- result&#45;&gt;lists -->
<g id="edge10" class="edge">
<title>result&#45;&gt;lists</title>
<path fill="none" stroke="#475569" d="M365.5,-335.81C365.5,-322.53 365.5,-305.08 365.5,-289.66"/>
<polygon fill="#475569" stroke="#475569" points="368.3,-289.35 365.5,-281.35 362.7,-289.35 368.3,-289.35"/>
</g>
<!-- pdf_after -->
<g id="node12" class="node">
<title>pdf_after</title>
<path fill="#f8fafc" stroke="#94a3b8" d="M463,-169C463,-169 268,-169 268,-169 262,-169 256,-163 256,-157 256,-157 256,-137 256,-137 256,-131 262,-125 268,-125 268,-125 463,-125 463,-125 469,-125 475,-131 475,-137 475,-137 475,-157 475,-157 475,-163 469,-169 463,-169"/>
<text text-anchor="middle" x="365.5" y="-150.4" font-family="Helvetica,sans-Serif" font-size="12.00">12. Eksport PDF po identyfikacji</text>
<text text-anchor="middle" x="365.5" y="-137.4" font-family="Helvetica,sans-Serif" font-size="12.00">Podgląd zawiera także listy encji</text>
</g>
<!-- lists&#45;&gt;pdf_after -->
<g id="edge11" class="edge">
<title>lists&#45;&gt;pdf_after</title>
<path fill="none" stroke="#475569" d="M365.5,-223.76C365.5,-209.45 365.5,-191.98 365.5,-177.43"/>
<polygon fill="#475569" stroke="#475569" points="368.3,-177.24 365.5,-169.24 362.7,-177.24 368.3,-177.24"/>
</g>
<!-- log -->
<g id="node13" class="node">
<title>log</title>
<path fill="#fef3c7" stroke="#d97706" d="M438.5,-70C438.5,-70 292.5,-70 292.5,-70 286.5,-70 280.5,-64 280.5,-58 280.5,-58 280.5,-12 280.5,-12 280.5,-6 286.5,0 292.5,0 292.5,0 438.5,0 438.5,0 444.5,0 450.5,-6 450.5,-12 450.5,-12 450.5,-58 450.5,-58 450.5,-64 444.5,-70 438.5,-70"/>
<text text-anchor="middle" x="365.5" y="-51.4" font-family="Helvetica,sans-Serif" font-size="12.00">13. Log diagnostyczny</text>
<text text-anchor="middle" x="365.5" y="-38.4" font-family="Helvetica,sans-Serif" font-size="12.00">Można pobrać pełny log</text>
<text text-anchor="middle" x="365.5" y="-25.4" font-family="Helvetica,sans-Serif" font-size="12.00">lub obejrzeć fragment</text>
<text text-anchor="middle" x="365.5" y="-12.4" font-family="Helvetica,sans-Serif" font-size="12.00">dla konkretnej encji</text>
</g>
<!-- pdf_after&#45;&gt;log -->
<g id="edge12" class="edge">
<title>pdf_after&#45;&gt;log</title>
<path fill="none" stroke="#475569" d="M365.5,-124.79C365.5,-111.61 365.5,-94.19 365.5,-78.28"/>
<polygon fill="#475569" stroke="#475569" points="368.3,-78.13 365.5,-70.13 362.7,-78.13 368.3,-78.13"/>
</g>
</g>
</svg>
