<?xml version="1.0" encoding="UTF-8" standalone="no"?>
<!DOCTYPE svg PUBLIC "-//W3C//DTD SVG 1.1//EN"
 "http://www.w3.org/Graphics/SVG/1.1/DTD/svg11.dtd">
<!-- Generated by graphviz version 2.42.4 (0)
 -->
<!-- Title: text2ner_process Pages: 1 -->
<svg width="1304pt" height="2351pt"
 viewBox="0.00 0.00 1304.20 2351.20" xmlns="http://www.w3.org/2000/svg" xmlns:xlink="http://www.w3.org/1999/xlink">
<g id="graph0" class="graph" transform="scale(1 1) rotate(0) translate(21.6 2329.6)">
<title>text2ner_process</title>
<polygon fill="white" stroke="transparent" points="-21.6,21.6 -21.6,-2329.6 1282.6,-2329.6 1282.6,21.6 -21.6,21.6"/>
<text text-anchor="middle" x="630.5" y="-2288" font-family="Helvetica,sans-Serif" font-size="20.00">TEXT2NER: proces przetwarzania tekstu do TEI z identyfikacją encji</text>
<g id="clust1" class="cluster">
<title>cluster_request</title>
<path fill="white" stroke="#cbd5e1" d="M931,-1053C931,-1053 1224,-1053 1224,-1053 1230,-1053 1236,-1059 1236,-1065 1236,-1065 1236,-1830 1236,-1830 1236,-1836 1230,-1842 1224,-1842 1224,-1842 931,-1842 931,-1842 925,-1842 919,-1836 919,-1830 919,-1830 919,-1065 919,-1065 919,-1059 925,-1053 931,-1053"/>
<text text-anchor="middle" x="1077.5" y="-1822" font-family="Helvetica,sans-Serif" font-size="20.00">1. Przyjęcie tekstu i tagowanie</text>
</g>
<g id="clust2" class="cluster">
<title>cluster_entity</title>
<path fill="white" stroke="#cbd5e1" d="M875,-253C875,-253 1219,-253 1219,-253 1225,-253 1231,-259 1231,-265 1231,-265 1231,-1018 1231,-1018 1231,-1024 1225,-1030 1219,-1030 1219,-1030 875,-1030 875,-1030 869,-1030 863,-1024 863,-1018 863,-1018 863,-265 863,-265 863,-259 869,-253 875,-253"/>
<text text-anchor="middle" x="1047" y="-1010" font-family="Helvetica,sans-Serif" font-size="20.00">2. Przetwarzanie pojedynczej encji</text>
</g>
<g id="clust3" class="cluster">
<title>cluster_candidates</title>
<path fill="white" stroke="#cbd5e1" d="M374,-927C374,-927 805,-927 805,-927 811,-927 817,-933 817,-939 817,-939 817,-2258 817,-2258 817,-2264 811,-2270 805,-2270 805,-2270 374,-2270 374,-2270 368,-2270 362,-2264 362,-2258 362,-2258 362,-939 362,-939 362,-933 368,-927 374,-927"/>
<text text-anchor="middle" x="589.5" y="-2250" font-family="Helvetica,sans-Serif" font-size="20.00">3. Wyszukiwanie kandydatów</text>
</g>
<g id="clust4" class="cluster">
<title>cluster_plwiki</title>
<path fill="white" stroke="#cbd5e1" d="M20,-927C20,-927 342,-927 342,-927 348,-927 354,-933 354,-939 354,-939 354,-2068 354,-2068 354,-2074 348,-2080 342,-2080 342,-2080 20,-2080 20,-2080 14,-2080 8,-2074 8,-2068 8,-2068 8,-939 8,-939 8,-933 14,-927 20,-927"/>
<text text-anchor="middle" x="181" y="-2060" font-family="Helvetica,sans-Serif" font-size="20.00">4. Fallback plwiki dla osób</text>
</g>
<g id="clust5" class="cluster">
<title>cluster_finish</title>
<path fill="white" stroke="#cbd5e1" d="M265,-8C265,-8 708,-8 708,-8 714,-8 720,-14 720,-20 720,-20 720,-874 720,-874 720,-880 714,-886 708,-886 708,-886 265,-886 265,-886 259,-886 253,-880 253,-874 253,-874 253,-20 253,-20 253,-14 259,-8 265,-8"/>
<text text-anchor="middle" x="486.5" y="-866" font-family="Helvetica,sans-Serif" font-size="20.00">5. Zapis wyniku i odpowiedź</text>
</g>
<!-- start -->
<g id="node1" class="node">
<title>start</title>
<path fill="#e0f2fe" stroke="#0284c7" d="M1096.5,-1911C1096.5,-1911 963.5,-1911 963.5,-1911 957.5,-1911 951.5,-1905 951.5,-1899 951.5,-1899 951.5,-1885 951.5,-1885 951.5,-1879 957.5,-1873 963.5,-1873 963.5,-1873 1096.5,-1873 1096.5,-1873 1102.5,-1873 1108.5,-1879 1108.5,-1885 1108.5,-1885 1108.5,-1899 1108.5,-1899 1108.5,-1905 1102.5,-1911 1096.5,-1911"/>
<text text-anchor="middle" x="1030" y="-1895.2" font-family="Helvetica,sans-Serif" font-size="11.00">Użytkownik wkleja tekst</text>
<text text-anchor="middle" x="1030" y="-1883.2" font-family="Helvetica,sans-Serif" font-size="11.00">w aplikacji WWW</text>
</g>
<!-- post_process -->
<g id="node2" class="node">
<title>post_process</title>
<path fill="#f8fafc" stroke="#94a3b8" d="M1070,-1804C1070,-1804 990,-1804 990,-1804 984,-1804 978,-1798 978,-1792 978,-1792 978,-1778 978,-1778 978,-1772 984,-1766 990,-1766 990,-1766 1070,-1766 1070,-1766 1076,-1766 1082,-1772 1082,-1778 1082,-1778 1082,-1792 1082,-1792 1082,-1798 1076,-1804 1070,-1804"/>
<text text-anchor="middle" x="1030" y="-1788.2" font-family="Helvetica,sans-Serif" font-size="11.00">POST /process</text>
<text text-anchor="middle" x="1030" y="-1776.2" font-family="Helvetica,sans-Serif" font-size="11.00">we Flask</text>
</g>
<!-- start&#45;&gt;post_process -->
<g id="edge1" class="edge">
<title>start&#45;&gt;post_process</title>
<path fill="none" stroke="#475569" d="M1030,-1872.71C1030,-1855.7 1030,-1830.19 1030,-1811.24"/>
<polygon fill="#475569" stroke="#475569" points="1032.45,-1811.08 1030,-1804.08 1027.55,-1811.08 1032.45,-1811.08"/>
</g>
<!-- log_file -->
<g id="node3" class="node">
<title>log_file</title>
<path fill="#f8fafc" stroke="#94a3b8" d="M1090.5,-1692C1090.5,-1692 969.5,-1692 969.5,-1692 963.5,-1692 957.5,-1686 957.5,-1680 957.5,-1680 957.5,-1666 957.5,-1666 957.5,-1660 963.5,-1654 969.5,-1654 969.5,-1654 1090.5,-1654 1090.5,-1654 1096.5,-1654 1102.5,-1660 1102.5,-1666 1102.5,-1666 1102.5,-1680 1102.5,-1680 1102.5,-1686 1096.5,-1692 1090.5,-1692"/>
<text text-anchor="middle" x="1030" y="-1676.2" font-family="Helvetica,sans-Serif" font-size="11.00">Utworzenie pliku</text>
<text text-anchor="middle" x="1030" y="-1664.2" font-family="Helvetica,sans-Serif" font-size="11.00">logu diagnostycznego</text>
</g>
<!-- post_process&#45;&gt;log_file -->
<g id="edge2" class="edge">
<title>post_process&#45;&gt;log_file</title>
<path fill="none" stroke="#475569" d="M1030,-1765.84C1030,-1747.68 1030,-1719.62 1030,-1699.3"/>
<polygon fill="#475569" stroke="#475569" points="1032.45,-1699.19 1030,-1692.19 1027.55,-1699.19 1032.45,-1699.19"/>
</g>
<!-- trim_input -->
<g id="node4" class="node">
<title>trim_input</title>
<path fill="#f8fafc" stroke="#94a3b8" d="M1080,-1590C1080,-1590 980,-1590 980,-1590 974,-1590 968,-1584 968,-1578 968,-1578 968,-1564 968,-1564 968,-1558 974,-1552 980,-1552 980,-1552 1080,-1552 1080,-1552 1086,-1552 1092,-1558 1092,-1564 1092,-1564 1092,-1578 1092,-1578 1092,-1584 1086,-1590 1080,-1590"/>
<text text-anchor="middle" x="1030" y="-1574.2" font-family="Helvetica,sans-Serif" font-size="11.00">Przycięcie wejścia</text>
<text text-anchor="middle" x="1030" y="-1562.2" font-family="Helvetica,sans-Serif" font-size="11.00">do 5000 znaków</text>
</g>
<!-- log_file&#45;&gt;trim_input -->
<g id="edge3" class="edge">
<title>log_file&#45;&gt;trim_input</title>
<path fill="none" stroke="#475569" d="M1030,-1653.66C1030,-1637.87 1030,-1614.93 1030,-1597.38"/>
<polygon fill="#475569" stroke="#475569" points="1032.45,-1597.23 1030,-1590.23 1027.55,-1597.23 1032.45,-1597.23"/>
</g>
<!-- extract_doc_years -->
<g id="node5" class="node">
<title>extract_doc_years</title>
<path fill="#f8fafc" stroke="#94a3b8" d="M1086,-1478C1086,-1478 974,-1478 974,-1478 968,-1478 962,-1472 962,-1466 962,-1466 962,-1452 962,-1452 962,-1446 968,-1440 974,-1440 974,-1440 1086,-1440 1086,-1440 1092,-1440 1098,-1446 1098,-1452 1098,-1452 1098,-1466 1098,-1466 1098,-1472 1092,-1478 1086,-1478"/>
<text text-anchor="middle" x="1030" y="-1462.2" font-family="Helvetica,sans-Serif" font-size="11.00">Ekstrakcja lat</text>
<text text-anchor="middle" x="1030" y="-1450.2" font-family="Helvetica,sans-Serif" font-size="11.00">z całego dokumentu</text>
</g>
<!-- trim_input&#45;&gt;extract_doc_years -->
<g id="edge4" class="edge">
<title>trim_input&#45;&gt;extract_doc_years</title>
<path fill="none" stroke="#475569" d="M1030,-1551.84C1030,-1533.68 1030,-1505.62 1030,-1485.3"/>
<polygon fill="#475569" stroke="#475569" points="1032.45,-1485.19 1030,-1478.19 1027.55,-1485.19 1032.45,-1485.19"/>
</g>
<!-- tag_gemini -->
<g id="node6" class="node">
<title>tag_gemini</title>
<path fill="#f8fafc" stroke="#94a3b8" d="M1098,-1385C1098,-1385 962,-1385 962,-1385 956,-1385 950,-1379 950,-1373 950,-1373 950,-1359 950,-1359 950,-1353 956,-1347 962,-1347 962,-1347 1098,-1347 1098,-1347 1104,-1347 1110,-1353 1110,-1359 1110,-1359 1110,-1373 1110,-1373 1110,-1379 1104,-1385 1098,-1385"/>
<text text-anchor="middle" x="1030" y="-1369.2" font-family="Helvetica,sans-Serif" font-size="11.00">Gemini:</text>
<text text-anchor="middle" x="1030" y="-1357.2" font-family="Helvetica,sans-Serif" font-size="11.00">tag_entities_with_gemini</text>
</g>
<!-- extract_doc_years&#45;&gt;tag_gemini -->
<g id="edge5" class="edge">
<title>extract_doc_years&#45;&gt;tag_gemini</title>
<path fill="none" stroke="#475569" d="M1030,-1439.58C1030,-1425.93 1030,-1407.15 1030,-1392.12"/>
<polygon fill="#475569" stroke="#475569" points="1032.45,-1392.08 1030,-1385.08 1027.55,-1392.08 1032.45,-1392.08"/>
</g>
<!-- tagged_xml -->
<g id="node7" class="node">
<title>tagged_xml</title>
<path fill="#f8fafc" stroke="#94a3b8" d="M1099.5,-1302C1099.5,-1302 960.5,-1302 960.5,-1302 954.5,-1302 948.5,-1296 948.5,-1290 948.5,-1290 948.5,-1276 948.5,-1276 948.5,-1270 954.5,-1264 960.5,-1264 960.5,-1264 1099.5,-1264 1099.5,-1264 1105.5,-1264 1111.5,-1270 1111.5,-1276 1111.5,-1276 1111.5,-1290 1111.5,-1290 1111.5,-1296 1105.5,-1302 1099.5,-1302"/>
<text text-anchor="middle" x="1030" y="-1286.2" font-family="Helvetica,sans-Serif" font-size="11.00">XML&#45;like output</text>
<text text-anchor="middle" x="1030" y="-1274.2" font-family="Helvetica,sans-Serif" font-size="11.00">z persName i placeName</text>
</g>
<!-- tag_gemini&#45;&gt;tagged_xml -->
<g id="edge6" class="edge">
<title>tag_gemini&#45;&gt;tagged_xml</title>
<path fill="none" stroke="#475569" d="M1030,-1346.62C1030,-1335.56 1030,-1321.34 1030,-1309.24"/>
<polygon fill="#475569" stroke="#475569" points="1032.45,-1309.03 1030,-1302.03 1027.55,-1309.03 1032.45,-1309.03"/>
</g>
<!-- parse_xml -->
<g id="node8" class="node">
<title>parse_xml</title>
<path fill="#f8fafc" stroke="#94a3b8" d="M1104,-1181C1104,-1181 956,-1181 956,-1181 950,-1181 944,-1175 944,-1169 944,-1169 944,-1157 944,-1157 944,-1151 950,-1145 956,-1145 956,-1145 1104,-1145 1104,-1145 1110,-1145 1116,-1151 1116,-1157 1116,-1157 1116,-1169 1116,-1169 1116,-1175 1110,-1181 1104,-1181"/>
<text text-anchor="middle" x="1030" y="-1160.2" font-family="Helvetica,sans-Serif" font-size="11.00">BeautifulSoup parsuje XML</text>
</g>
<!-- tagged_xml&#45;&gt;parse_xml -->
<g id="edge7" class="edge">
<title>tagged_xml&#45;&gt;parse_xml</title>
<path fill="none" stroke="#475569" d="M1030,-1263.82C1030,-1243.61 1030,-1210.86 1030,-1188.42"/>
<polygon fill="#475569" stroke="#475569" points="1032.45,-1188.24 1030,-1181.24 1027.55,-1188.24 1032.45,-1188.24"/>
</g>
<!-- entity_loop -->
<g id="node9" class="node">
<title>entity_loop</title>
<path fill="#f8fafc" stroke="#94a3b8" d="M1092.5,-1099C1092.5,-1099 967.5,-1099 967.5,-1099 961.5,-1099 955.5,-1093 955.5,-1087 955.5,-1087 955.5,-1073 955.5,-1073 955.5,-1067 961.5,-1061 967.5,-1061 967.5,-1061 1092.5,-1061 1092.5,-1061 1098.5,-1061 1104.5,-1067 1104.5,-1073 1104.5,-1073 1104.5,-1087 1104.5,-1087 1104.5,-1093 1098.5,-1099 1092.5,-1099"/>
<text text-anchor="middle" x="1030" y="-1083.2" font-family="Helvetica,sans-Serif" font-size="11.00">Pętla po wszystkich</text>
<text text-anchor="middle" x="1030" y="-1071.2" font-family="Helvetica,sans-Serif" font-size="11.00">encjach w dokumencie</text>
</g>
<!-- parse_xml&#45;&gt;entity_loop -->
<g id="edge8" class="edge">
<title>parse_xml&#45;&gt;entity_loop</title>
<path fill="none" stroke="#475569" d="M1030,-1144.82C1030,-1133.64 1030,-1118.86 1030,-1106.35"/>
<polygon fill="#475569" stroke="#475569" points="1032.45,-1106.28 1030,-1099.28 1027.55,-1106.28 1032.45,-1106.28"/>
</g>
<!-- surface_context -->
<g id="node10" class="node">
<title>surface_context</title>
<path fill="#f8fafc" stroke="#94a3b8" d="M1095.5,-992C1095.5,-992 974.5,-992 974.5,-992 968.5,-992 962.5,-986 962.5,-980 962.5,-980 962.5,-966 962.5,-966 962.5,-960 968.5,-954 974.5,-954 974.5,-954 1095.5,-954 1095.5,-954 1101.5,-954 1107.5,-960 1107.5,-966 1107.5,-966 1107.5,-980 1107.5,-980 1107.5,-986 1101.5,-992 1095.5,-992"/>
<text text-anchor="middle" x="1035" y="-976.2" font-family="Helvetica,sans-Serif" font-size="11.00">Pobranie surface form</text>
<text text-anchor="middle" x="1035" y="-964.2" font-family="Helvetica,sans-Serif" font-size="11.00">i kontekstu encji</text>
</g>
<!-- entity_loop&#45;&gt;surface_context -->
<g id="edge9" class="edge">
<title>entity_loop&#45;&gt;surface_context</title>
<path fill="none" stroke="#475569" d="M1030.87,-1060.71C1031.68,-1043.7 1032.9,-1018.19 1033.8,-999.24"/>
<polygon fill="#475569" stroke="#475569" points="1036.25,-999.19 1034.14,-992.08 1031.36,-998.96 1036.25,-999.19"/>
</g>
<!-- cache_check -->
<g id="node11" class="node">
<title>cache_check</title>
<path fill="#f8fafc" stroke="#94a3b8" d="M1035.46,-876.72C1035.46,-876.72 882.54,-833.28 882.54,-833.28 876.77,-831.64 876.77,-828.36 882.54,-826.72 882.54,-826.72 1035.46,-783.28 1035.46,-783.28 1041.23,-781.64 1052.77,-781.64 1058.54,-783.28 1058.54,-783.28 1211.46,-826.72 1211.46,-826.72 1217.23,-828.36 1217.23,-831.64 1211.46,-833.28 1211.46,-833.28 1058.54,-876.72 1058.54,-876.72 1052.77,-878.36 1041.23,-878.36 1035.46,-876.72"/>
<text text-anchor="middle" x="1047" y="-839.2" font-family="Helvetica,sans-Serif" font-size="11.00">Czy encja była już</text>
<text text-anchor="middle" x="1047" y="-827.2" font-family="Helvetica,sans-Serif" font-size="11.00">skutecznie zidentyfikowana</text>
<text text-anchor="middle" x="1047" y="-815.2" font-family="Helvetica,sans-Serif" font-size="11.00">w tym dokumencie?</text>
</g>
<!-- surface_context&#45;&gt;cache_check -->
<g id="edge10" class="edge">
<title>surface_context&#45;&gt;cache_check</title>
<path fill="none" stroke="#475569" d="M1036.54,-953.86C1038,-936.73 1040.26,-910.16 1042.31,-886.1"/>
<polygon fill="#475569" stroke="#475569" points="1044.76,-886.24 1042.91,-879.06 1039.87,-885.83 1044.76,-886.24"/>
</g>
<!-- cache_hit -->
<g id="node12" class="node">
<title>cache_hit</title>
<path fill="#f8fafc" stroke="#94a3b8" d="M1008.5,-725C1008.5,-725 883.5,-725 883.5,-725 877.5,-725 871.5,-719 871.5,-713 871.5,-713 871.5,-699 871.5,-699 871.5,-693 877.5,-687 883.5,-687 883.5,-687 1008.5,-687 1008.5,-687 1014.5,-687 1020.5,-693 1020.5,-699 1020.5,-699 1020.5,-713 1020.5,-713 1020.5,-719 1014.5,-725 1008.5,-725"/>
<text text-anchor="middle" x="946" y="-709.2" font-family="Helvetica,sans-Serif" font-size="11.00">Użycie wyniku z cache</text>
<text text-anchor="middle" x="946" y="-697.2" font-family="Helvetica,sans-Serif" font-size="11.00">(key/ref)</text>
</g>
<!-- cache_check&#45;&gt;cache_hit -->
<g id="edge11" class="edge">
<title>cache_check&#45;&gt;cache_hit</title>
<path fill="none" stroke="#475569" d="M1013.93,-789.05C998.04,-769.87 979.54,-747.51 965.86,-730.99"/>
<polygon fill="#475569" stroke="#475569" points="967.4,-729.01 961.05,-725.18 963.63,-732.13 967.4,-729.01"/>
<text text-anchor="middle" x="995" y="-750" font-family="Helvetica,sans-Serif" font-size="10.00">tak</text>
</g>
<!-- link_entity -->
<g id="node13" class="node">
<title>link_entity</title>
<path fill="#f1f5f9" stroke="#64748b" d="M1138.5,-724C1138.5,-724 1061.5,-724 1061.5,-724 1055.5,-724 1049.5,-718 1049.5,-712 1049.5,-712 1049.5,-700 1049.5,-700 1049.5,-694 1055.5,-688 1061.5,-688 1061.5,-688 1138.5,-688 1138.5,-688 1144.5,-688 1150.5,-694 1150.5,-700 1150.5,-700 1150.5,-712 1150.5,-712 1150.5,-718 1144.5,-724 1138.5,-724"/>
<text text-anchor="middle" x="1100" y="-703.2" font-family="Helvetica,sans-Serif" font-size="11.00">link_entity(...)</text>
</g>
<!-- cache_check&#45;&gt;link_entity -->
<g id="edge12" class="edge">
<title>cache_check&#45;&gt;link_entity</title>
<path fill="none" stroke="#475569" d="M1065.98,-785.3C1073.97,-766.92 1082.95,-746.25 1089.67,-730.77"/>
<polygon fill="#475569" stroke="#475569" points="1092.05,-731.45 1092.59,-724.05 1087.56,-729.49 1092.05,-731.45"/>
<text text-anchor="middle" x="1089" y="-750" font-family="Helvetica,sans-Serif" font-size="10.00">nie</text>
</g>
<!-- add_resolved -->
<g id="node52" class="node">
<title>add_resolved</title>
<path fill="#f8fafc" stroke="#94a3b8" d="M602,-642C602,-642 470,-642 470,-642 464,-642 458,-636 458,-630 458,-630 458,-616 458,-616 458,-610 464,-604 470,-604 470,-604 602,-604 602,-604 608,-604 614,-610 614,-616 614,-616 614,-630 614,-630 614,-636 608,-642 602,-642"/>
<text text-anchor="middle" x="536" y="-626.2" font-family="Helvetica,sans-Serif" font-size="11.00">Dodanie do listy</text>
<text text-anchor="middle" x="536" y="-614.2" font-family="Helvetica,sans-Serif" font-size="11.00">zidentyfikowanych encji</text>
</g>
<!-- cache_hit&#45;&gt;add_resolved -->
<g id="edge58" class="edge">
<title>cache_hit&#45;&gt;add_resolved</title>
<path fill="none" stroke="#475569" d="M871.28,-690.24C800.68,-676.29 694.89,-655.39 621.09,-640.81"/>
<polygon fill="#475569" stroke="#475569" points="621.39,-638.37 614.05,-639.42 620.44,-643.18 621.39,-638.37"/>
</g>
<!-- analyze_form -->
<g id="node14" class="node">
<title>analyze_form</title>
<path fill="#f8fafc" stroke="#94a3b8" d="M1173.5,-642C1173.5,-642 1028.5,-642 1028.5,-642 1022.5,-642 1016.5,-636 1016.5,-630 1016.5,-630 1016.5,-616 1016.5,-616 1016.5,-610 1022.5,-604 1028.5,-604 1028.5,-604 1173.5,-604 1173.5,-604 1179.5,-604 1185.5,-610 1185.5,-616 1185.5,-616 1185.5,-630 1185.5,-630 1185.5,-636 1179.5,-642 1173.5,-642"/>
<text text-anchor="middle" x="1101" y="-626.2" font-family="Helvetica,sans-Serif" font-size="11.00">Gemini:</text>
<text text-anchor="middle" x="1101" y="-614.2" font-family="Helvetica,sans-Serif" font-size="11.00">analyze_form_with_gemini</text>
</g>
<!-- link_entity&#45;&gt;analyze_form -->
<g id="edge13" class="edge">
<title>link_entity&#45;&gt;analyze_form</title>
<path fill="none" stroke="#475569" d="M1100.21,-687.82C1100.35,-676.64 1100.53,-661.86 1100.69,-649.35"/>
<polygon fill="#475569" stroke="#475569" points="1103.14,-649.31 1100.77,-642.28 1098.24,-649.25 1103.14,-649.31"/>
</g>
<!-- analyze_outputs -->
<g id="node15" class="node">
<title>analyze_outputs</title>
<path fill="#f8fafc" stroke="#94a3b8" d="M1153.5,-559C1153.5,-559 1050.5,-559 1050.5,-559 1044.5,-559 1038.5,-553 1038.5,-547 1038.5,-547 1038.5,-473 1038.5,-473 1038.5,-467 1044.5,-461 1050.5,-461 1050.5,-461 1153.5,-461 1153.5,-461 1159.5,-461 1165.5,-467 1165.5,-473 1165.5,-473 1165.5,-547 1165.5,-547 1165.5,-553 1159.5,-559 1153.5,-559"/>
<text text-anchor="middle" x="1102" y="-543.2" font-family="Helvetica,sans-Serif" font-size="11.00">normalized_best</text>
<text text-anchor="middle" x="1102" y="-531.2" font-family="Helvetica,sans-Serif" font-size="11.00">lemma_candidates</text>
<text text-anchor="middle" x="1102" y="-519.2" font-family="Helvetica,sans-Serif" font-size="11.00">surface_variants</text>
<text text-anchor="middle" x="1102" y="-507.2" font-family="Helvetica,sans-Serif" font-size="11.00">office_terms</text>
<text text-anchor="middle" x="1102" y="-495.2" font-family="Helvetica,sans-Serif" font-size="11.00">place_terms</text>
<text text-anchor="middle" x="1102" y="-483.2" font-family="Helvetica,sans-Serif" font-size="11.00">context_clues</text>
<text text-anchor="middle" x="1102" y="-471.2" font-family="Helvetica,sans-Serif" font-size="11.00">context_years</text>
</g>
<!-- analyze_form&#45;&gt;analyze_outputs -->
<g id="edge14" class="edge">
<title>analyze_form&#45;&gt;analyze_outputs</title>
<path fill="none" stroke="#475569" d="M1101.17,-603.67C1101.26,-593.29 1101.38,-579.69 1101.5,-566.13"/>
<polygon fill="#475569" stroke="#475569" points="1103.95,-566.08 1101.57,-559.06 1099.05,-566.03 1103.95,-566.08"/>
</g>
<!-- build_plan -->
<g id="node16" class="node">
<title>build_plan</title>
<path fill="#f8fafc" stroke="#94a3b8" d="M1148,-405C1148,-405 1056,-405 1056,-405 1050,-405 1044,-399 1044,-393 1044,-393 1044,-381 1044,-381 1044,-375 1050,-369 1056,-369 1056,-369 1148,-369 1148,-369 1154,-369 1160,-375 1160,-381 1160,-381 1160,-393 1160,-393 1160,-399 1154,-405 1148,-405"/>
<text text-anchor="middle" x="1102" y="-384.2" font-family="Helvetica,sans-Serif" font-size="11.00">build_query_plan</text>
</g>
<!-- analyze_outputs&#45;&gt;build_plan -->
<g id="edge15" class="edge">
<title>analyze_outputs&#45;&gt;build_plan</title>
<path fill="none" stroke="#475569" d="M1102,-460.83C1102,-444.26 1102,-426.4 1102,-412.51"/>
<polygon fill="#475569" stroke="#475569" points="1104.45,-412.24 1102,-405.24 1099.55,-412.24 1104.45,-412.24"/>
</g>
<!-- plan_outputs -->
<g id="node17" class="node">
<title>plan_outputs</title>
<path fill="#f8fafc" stroke="#94a3b8" d="M1209.5,-323C1209.5,-323 1010.5,-323 1010.5,-323 1004.5,-323 998.5,-317 998.5,-311 998.5,-311 998.5,-273 998.5,-273 998.5,-267 1004.5,-261 1010.5,-261 1010.5,-261 1209.5,-261 1209.5,-261 1215.5,-261 1221.5,-267 1221.5,-273 1221.5,-273 1221.5,-311 1221.5,-311 1221.5,-317 1215.5,-323 1209.5,-323"/>
<text text-anchor="middle" x="1110" y="-307.2" font-family="Helvetica,sans-Serif" font-size="11.00">forma z tekstu</text>
<text text-anchor="middle" x="1110" y="-295.2" font-family="Helvetica,sans-Serif" font-size="11.00">forma znormalizowana</text>
<text text-anchor="middle" x="1110" y="-283.2" font-family="Helvetica,sans-Serif" font-size="11.00">polskie odpowiedniki</text>
<text text-anchor="middle" x="1110" y="-271.2" font-family="Helvetica,sans-Serif" font-size="11.00">kombinacje: imię + urząd + miejsce</text>
</g>
<!-- build_plan&#45;&gt;plan_outputs -->
<g id="edge16" class="edge">
<title>build_plan&#45;&gt;plan_outputs</title>
<path fill="none" stroke="#475569" d="M1103.47,-368.94C1104.4,-358.15 1105.63,-343.75 1106.78,-330.4"/>
<polygon fill="#475569" stroke="#475569" points="1109.25,-330.31 1107.41,-323.12 1104.37,-329.89 1109.25,-330.31"/>
</g>
<!-- collect_local -->
<g id="node18" class="node">
<title>collect_local</title>
<path fill="#f8fafc" stroke="#94a3b8" d="M797,-2232C797,-2232 691,-2232 691,-2232 685,-2232 679,-2226 679,-2220 679,-2220 679,-2206 679,-2206 679,-2200 685,-2194 691,-2194 691,-2194 797,-2194 797,-2194 803,-2194 809,-2200 809,-2206 809,-2206 809,-2220 809,-2220 809,-2226 803,-2232 797,-2232"/>
<text text-anchor="middle" x="744" y="-2216.2" font-family="Helvetica,sans-Serif" font-size="11.00">collect_candidates:</text>
<text text-anchor="middle" x="744" y="-2204.2" font-family="Helvetica,sans-Serif" font-size="11.00">źródła lokalne</text>
</g>
<!-- plan_outputs&#45;&gt;collect_local -->
<g id="edge17" class="edge">
<title>plan_outputs&#45;&gt;collect_local</title>
<path fill="none" stroke="#475569" d="M1159.03,-323.19C1203.12,-350.35 1261,-386 1261,-386 1261,-2131 1261,-2131 1261,-2131 1261,-2131 958.5,-2178.39 816.28,-2200.68"/>
<polygon fill="#475569" stroke="#475569" points="815.75,-2198.28 809.22,-2201.78 816.51,-2203.12 815.75,-2198.28"/>
</g>
<!-- wikihum_search -->
<g id="node19" class="node">
<title>wikihum_search</title>
<path fill="#f8fafc" stroke="#94a3b8" d="M647,-2149C647,-2149 547,-2149 547,-2149 541,-2149 535,-2143 535,-2137 535,-2137 535,-2123 535,-2123 535,-2117 541,-2111 547,-2111 547,-2111 647,-2111 647,-2111 653,-2111 659,-2117 659,-2123 659,-2123 659,-2137 659,-2137 659,-2143 653,-2149 647,-2149"/>
<text text-anchor="middle" x="597" y="-2133.2" font-family="Helvetica,sans-Serif" font-size="11.00">Special:Search ~2</text>
<text text-anchor="middle" x="597" y="-2121.2" font-family="Helvetica,sans-Serif" font-size="11.00">w WikiHum</text>
</g>
<!-- collect_local&#45;&gt;wikihum_search -->
<g id="edge18" class="edge">
<title>collect_local&#45;&gt;wikihum_search</title>
<path fill="none" stroke="#475569" d="M711.01,-2193.82C688.88,-2181.63 659.63,-2165.51 636.29,-2152.65"/>
<polygon fill="#475569" stroke="#475569" points="637.19,-2150.35 629.88,-2149.12 634.83,-2154.64 637.19,-2150.35"/>
</g>
<!-- kul_search -->
<g id="node20" class="node">
<title>kul_search</title>
<path fill="#f8fafc" stroke="#94a3b8" d="M796,-2149C796,-2149 696,-2149 696,-2149 690,-2149 684,-2143 684,-2137 684,-2137 684,-2123 684,-2123 684,-2117 690,-2111 696,-2111 696,-2111 796,-2111 796,-2111 802,-2111 808,-2117 808,-2123 808,-2123 808,-2137 808,-2137 808,-2143 802,-2149 796,-2149"/>
<text text-anchor="middle" x="746" y="-2133.2" font-family="Helvetica,sans-Serif" font-size="11.00">Special:Search ~2</text>
<text text-anchor="middle" x="746" y="-2121.2" font-family="Helvetica,sans-Serif" font-size="11.00">w va.wiki.kul.pl</text>
</g>
<!-- collect_local&#45;&gt;kul_search -->
<g id="edge19" class="edge">
<title>collect_local&#45;&gt;kul_search</title>
<path fill="none" stroke="#475569" d="M744.45,-2193.62C744.73,-2182.56 745.08,-2168.34 745.38,-2156.24"/>
<polygon fill="#475569" stroke="#475569" points="747.83,-2156.09 745.55,-2149.03 742.93,-2155.97 747.83,-2156.09"/>
</g>
<!-- local_filter -->
<g id="node21" class="node">
<title>local_filter</title>
<path fill="#f8fafc" stroke="#94a3b8" d="M676,-2022C676,-2022 534,-2022 534,-2022 528,-2022 522,-2016 522,-2010 522,-2010 522,-1998 522,-1998 522,-1992 528,-1986 534,-1986 534,-1986 676,-1986 676,-1986 682,-1986 688,-1992 688,-1998 688,-1998 688,-2010 688,-2010 688,-2016 682,-2022 676,-2022"/>
<text text-anchor="middle" x="605" y="-2001.2" font-family="Helvetica,sans-Serif" font-size="11.00">Filtrowanie po instance of</text>
</g>
<!-- wikihum_search&#45;&gt;local_filter -->
<g id="edge20" class="edge">
<title>wikihum_search&#45;&gt;local_filter</title>
<path fill="none" stroke="#475569" d="M598.16,-2110.97C599.55,-2089.42 601.89,-2053.27 603.43,-2029.28"/>
<polygon fill="#475569" stroke="#475569" points="605.88,-2029.4 603.89,-2022.25 600.99,-2029.08 605.88,-2029.4"/>
</g>
<!-- kul_search&#45;&gt;local_filter -->
<g id="edge21" class="edge">
<title>kul_search&#45;&gt;local_filter</title>
<path fill="none" stroke="#475569" d="M725.5,-2110.97C700.25,-2088.77 657.39,-2051.08 630.18,-2027.14"/>
<polygon fill="#475569" stroke="#475569" points="631.49,-2025.04 624.62,-2022.25 628.26,-2028.72 631.49,-2025.04"/>
</g>
<!-- local_rank -->
<g id="node22" class="node">
<title>local_rank</title>
<path fill="#f8fafc" stroke="#94a3b8" d="M673,-1911C673,-1911 537,-1911 537,-1911 531,-1911 525,-1905 525,-1899 525,-1899 525,-1885 525,-1885 525,-1879 531,-1873 537,-1873 537,-1873 673,-1873 673,-1873 679,-1873 685,-1879 685,-1885 685,-1885 685,-1899 685,-1899 685,-1905 679,-1911 673,-1911"/>
<text text-anchor="middle" x="605" y="-1895.2" font-family="Helvetica,sans-Serif" font-size="11.00">Dedup i uporządkowanie</text>
<text text-anchor="middle" x="605" y="-1883.2" font-family="Helvetica,sans-Serif" font-size="11.00">kandydatów lokalnych</text>
</g>
<!-- local_filter&#45;&gt;local_rank -->
<g id="edge22" class="edge">
<title>local_filter&#45;&gt;local_rank</title>
<path fill="none" stroke="#475569" d="M605,-1985.81C605,-1967.73 605,-1939.08 605,-1918.39"/>
<polygon fill="#475569" stroke="#475569" points="607.45,-1918.16 605,-1911.16 602.55,-1918.16 607.45,-1918.16"/>
</g>
<!-- local_candidates -->
<g id="node23" class="node">
<title>local_candidates</title>
<path fill="#f8fafc" stroke="#94a3b8" d="M593.55,-1819.4C593.55,-1819.4 495.45,-1788.6 495.45,-1788.6 489.72,-1786.8 489.72,-1783.2 495.45,-1781.4 495.45,-1781.4 593.55,-1750.6 593.55,-1750.6 599.28,-1748.8 610.72,-1748.8 616.45,-1750.6 616.45,-1750.6 714.55,-1781.4 714.55,-1781.4 720.28,-1783.2 720.28,-1786.8 714.55,-1788.6 714.55,-1788.6 616.45,-1819.4 616.45,-1819.4 610.72,-1821.2 599.28,-1821.2 593.55,-1819.4"/>
<text text-anchor="middle" x="605" y="-1788.2" font-family="Helvetica,sans-Serif" font-size="11.00">Czy są kandydaci</text>
<text text-anchor="middle" x="605" y="-1776.2" font-family="Helvetica,sans-Serif" font-size="11.00">lokalni?</text>
</g>
<!-- local_rank&#45;&gt;local_candidates -->
<g id="edge23" class="edge">
<title>local_rank&#45;&gt;local_candidates</title>
<path fill="none" stroke="#475569" d="M605,-1872.71C605,-1861 605,-1845.26 605,-1830.4"/>
<polygon fill="#475569" stroke="#475569" points="607.45,-1830.2 605,-1823.2 602.55,-1830.2 607.45,-1830.2"/>
</g>
<!-- local_decision -->
<g id="node24" class="node">
<title>local_decision</title>
<path fill="#f8fafc" stroke="#94a3b8" d="M598.5,-1692C598.5,-1692 497.5,-1692 497.5,-1692 491.5,-1692 485.5,-1686 485.5,-1680 485.5,-1680 485.5,-1666 485.5,-1666 485.5,-1660 491.5,-1654 497.5,-1654 497.5,-1654 598.5,-1654 598.5,-1654 604.5,-1654 610.5,-1660 610.5,-1666 610.5,-1666 610.5,-1680 610.5,-1680 610.5,-1686 604.5,-1692 598.5,-1692"/>
<text text-anchor="middle" x="548" y="-1676.2" font-family="Helvetica,sans-Serif" font-size="11.00">Gemini:</text>
<text text-anchor="middle" x="548" y="-1664.2" font-family="Helvetica,sans-Serif" font-size="11.00">build_link_decision</text>
</g>
<!-- local_candidates&#45;&gt;local_decision -->
<g id="edge24" class="edge">
<title>local_candidates&#45;&gt;local_decision</title>
<path fill="none" stroke="#475569" d="M585.42,-1752.77C576.54,-1738.62 568,-1725 568,-1725 568,-1725 562.82,-1711.79 557.73,-1698.82"/>
<polygon fill="#475569" stroke="#475569" points="559.94,-1697.75 555.11,-1692.12 555.38,-1699.54 559.94,-1697.75"/>
<text text-anchor="middle" x="576" y="-1717" font-family="Helvetica,sans-Serif" font-size="10.00">tak</text>
</g>
<!-- wikidata_fallback -->
<g id="node26" class="node">
<title>wikidata_fallback</title>
<path fill="#f8fafc" stroke="#94a3b8" d="M789.5,-1692C789.5,-1692 670.5,-1692 670.5,-1692 664.5,-1692 658.5,-1686 658.5,-1680 658.5,-1680 658.5,-1666 658.5,-1666 658.5,-1660 664.5,-1654 670.5,-1654 670.5,-1654 789.5,-1654 789.5,-1654 795.5,-1654 801.5,-1660 801.5,-1666 801.5,-1666 801.5,-1680 801.5,-1680 801.5,-1686 795.5,-1692 789.5,-1692"/>
<text text-anchor="middle" x="730" y="-1676.2" font-family="Helvetica,sans-Serif" font-size="11.00">Fallback standardowy</text>
<text text-anchor="middle" x="730" y="-1664.2" font-family="Helvetica,sans-Serif" font-size="11.00">do Wikidata</text>
</g>
<!-- local_candidates&#45;&gt;wikidata_fallback -->
<g id="edge25" class="edge">
<title>local_candidates&#45;&gt;wikidata_fallback</title>
<path fill="none" stroke="#475569" d="M636.22,-1756.53C657.11,-1738.15 684.27,-1714.24 703.99,-1696.89"/>
<polygon fill="#475569" stroke="#475569" points="705.7,-1698.65 709.34,-1692.18 702.47,-1694.97 705.7,-1698.65"/>
<text text-anchor="middle" x="690" y="-1717" font-family="Helvetica,sans-Serif" font-size="10.00">nie</text>
</g>
<!-- local_selected -->
<g id="node25" class="node">
<title>local_selected</title>
<path fill="#f8fafc" stroke="#94a3b8" d="M503.39,-1605.96C503.39,-1605.96 381.61,-1574.04 381.61,-1574.04 375.8,-1572.52 375.8,-1569.48 381.61,-1567.96 381.61,-1567.96 503.39,-1536.04 503.39,-1536.04 509.2,-1534.52 520.8,-1534.52 526.61,-1536.04 526.61,-1536.04 648.39,-1567.96 648.39,-1567.96 654.2,-1569.48 654.2,-1572.52 648.39,-1574.04 648.39,-1574.04 526.61,-1605.96 526.61,-1605.96 520.8,-1607.48 509.2,-1607.48 503.39,-1605.96"/>
<text text-anchor="middle" x="515" y="-1574.2" font-family="Helvetica,sans-Serif" font-size="11.00">Czy wybrano</text>
<text text-anchor="middle" x="515" y="-1562.2" font-family="Helvetica,sans-Serif" font-size="11.00">kandydata lokalnego?</text>
</g>
<!-- local_decision&#45;&gt;local_selected -->
<g id="edge26" class="edge">
<title>local_decision&#45;&gt;local_selected</title>
<path fill="none" stroke="#475569" d="M541.95,-1653.66C538.21,-1642.32 533.25,-1627.29 528.6,-1613.22"/>
<polygon fill="#475569" stroke="#475569" points="530.88,-1612.29 526.36,-1606.41 526.22,-1613.83 530.88,-1612.29"/>
</g>
<!-- wikidata_retry -->
<g id="node32" class="node">
<title>wikidata_retry</title>
<path fill="#f8fafc" stroke="#94a3b8" d="M534,-1478C534,-1478 386,-1478 386,-1478 380,-1478 374,-1472 374,-1466 374,-1466 374,-1452 374,-1452 374,-1446 380,-1440 386,-1440 386,-1440 534,-1440 534,-1440 540,-1440 546,-1446 546,-1452 546,-1452 546,-1466 546,-1466 546,-1472 540,-1478 534,-1478"/>
<text text-anchor="middle" x="460" y="-1462.2" font-family="Helvetica,sans-Serif" font-size="11.00">Druga próba:</text>
<text text-anchor="middle" x="460" y="-1450.2" font-family="Helvetica,sans-Serif" font-size="11.00">tylko kandydaci z Wikidata</text>
</g>
<!-- local_selected&#45;&gt;wikidata_retry -->
<g id="edge28" class="edge">
<title>local_selected&#45;&gt;wikidata_retry</title>
<path fill="none" stroke="#475569" d="M498.5,-1537C490.08,-1520.16 480.02,-1500.04 472.29,-1484.59"/>
<polygon fill="#475569" stroke="#475569" points="474.46,-1483.44 469.14,-1478.27 470.08,-1485.63 474.46,-1483.44"/>
<text text-anchor="middle" x="492" y="-1503" font-family="Helvetica,sans-Serif" font-size="10.00">nie</text>
</g>
<!-- selected -->
<g id="node48" class="node">
<title>selected</title>
<path fill="#dcfce7" stroke="#16a34a" d="M585.5,-848C585.5,-848 476.5,-848 476.5,-848 470.5,-848 464.5,-842 464.5,-836 464.5,-836 464.5,-824 464.5,-824 464.5,-818 470.5,-812 476.5,-812 476.5,-812 585.5,-812 585.5,-812 591.5,-812 597.5,-818 597.5,-824 597.5,-824 597.5,-836 597.5,-836 597.5,-842 591.5,-848 585.5,-848"/>
<text text-anchor="middle" x="531" y="-827.2" font-family="Helvetica,sans-Serif" font-size="11.00">decision = selected</text>
</g>
<!-- local_selected&#45;&gt;selected -->
<g id="edge27" class="edge">
<title>local_selected&#45;&gt;selected</title>
<path fill="none" stroke="#475569" d="M571.89,-1547.73C641.44,-1520.5 750,-1478 750,-1478 750,-1478 775,-1460 775,-1460 775,-1460 775,-1460 775,-972 775,-972 634.54,-890.83 566.76,-851.66"/>
<polygon fill="#475569" stroke="#475569" points="567.72,-849.39 560.43,-848.01 565.27,-853.63 567.72,-849.39"/>
<text text-anchor="middle" x="783" y="-1220.5" font-family="Helvetica,sans-Serif" font-size="10.00">tak</text>
</g>
<!-- wikidata_search -->
<g id="node27" class="node">
<title>wikidata_search</title>
<path fill="#f8fafc" stroke="#94a3b8" d="M797,-1590C797,-1590 697,-1590 697,-1590 691,-1590 685,-1584 685,-1578 685,-1578 685,-1564 685,-1564 685,-1558 691,-1552 697,-1552 697,-1552 797,-1552 797,-1552 803,-1552 809,-1558 809,-1564 809,-1564 809,-1578 809,-1578 809,-1584 803,-1590 797,-1590"/>
<text text-anchor="middle" x="747" y="-1574.2" font-family="Helvetica,sans-Serif" font-size="11.00">Special:Search ~2</text>
<text text-anchor="middle" x="747" y="-1562.2" font-family="Helvetica,sans-Serif" font-size="11.00">w Wikidata</text>
</g>
<!-- wikidata_fallback&#45;&gt;wikidata_search -->
<g id="edge29" class="edge">
<title>wikidata_fallback&#45;&gt;wikidata_search</title>
<path fill="none" stroke="#475569" d="M733.12,-1653.66C735.8,-1637.87 739.7,-1614.93 742.69,-1597.38"/>
<polygon fill="#475569" stroke="#475569" points="745.14,-1597.54 743.9,-1590.23 740.31,-1596.72 745.14,-1597.54"/>
</g>
<!-- wikidata_filter -->
<g id="node28" class="node">
<title>wikidata_filter</title>
<path fill="#f8fafc" stroke="#94a3b8" d="M725,-1477C725,-1477 583,-1477 583,-1477 577,-1477 571,-1471 571,-1465 571,-1465 571,-1453 571,-1453 571,-1447 577,-1441 583,-1441 583,-1441 725,-1441 725,-1441 731,-1441 737,-1447 737,-1453 737,-1453 737,-1465 737,-1465 737,-1471 731,-1477 725,-1477"/>
<text text-anchor="middle" x="654" y="-1456.2" font-family="Helvetica,sans-Serif" font-size="11.00">Filtrowanie po instance of</text>
</g>
<!-- wikidata_search&#45;&gt;wikidata_filter -->
<g id="edge30" class="edge">
<title>wikidata_search&#45;&gt;wikidata_filter</title>
<path fill="none" stroke="#475569" d="M731.64,-1551.84C715.61,-1532.87 690.43,-1503.09 673.12,-1482.62"/>
<polygon fill="#475569" stroke="#475569" points="674.85,-1480.87 668.46,-1477.1 671.11,-1484.03 674.85,-1480.87"/>
</g>
<!-- wikidata_rank -->
<g id="node29" class="node">
<title>wikidata_rank</title>
<path fill="#f8fafc" stroke="#94a3b8" d="M696,-1385C696,-1385 560,-1385 560,-1385 554,-1385 548,-1379 548,-1373 548,-1373 548,-1359 548,-1359 548,-1353 554,-1347 560,-1347 560,-1347 696,-1347 696,-1347 702,-1347 708,-1353 708,-1359 708,-1359 708,-1373 708,-1373 708,-1379 702,-1385 696,-1385"/>
<text text-anchor="middle" x="628" y="-1369.2" font-family="Helvetica,sans-Serif" font-size="11.00">Dedup i uporządkowanie</text>
<text text-anchor="middle" x="628" y="-1357.2" font-family="Helvetica,sans-Serif" font-size="11.00">kandydatów Wikidata</text>
</g>
<!-- wikidata_filter&#45;&gt;wikidata_rank -->
<g id="edge31" class="edge">
<title>wikidata_filter&#45;&gt;wikidata_rank</title>
<path fill="none" stroke="#475569" d="M649.11,-1440.88C645.18,-1427.13 639.61,-1407.62 635.17,-1392.1"/>
<polygon fill="#475569" stroke="#475569" points="637.5,-1391.35 633.23,-1385.29 632.79,-1392.69 637.5,-1391.35"/>
</g>
<!-- wikidata_decision -->
<g id="node30" class="node">
<title>wikidata_decision</title>
<path fill="#f8fafc" stroke="#94a3b8" d="M671.5,-1242C671.5,-1242 570.5,-1242 570.5,-1242 564.5,-1242 558.5,-1236 558.5,-1230 558.5,-1230 558.5,-1216 558.5,-1216 558.5,-1210 564.5,-1204 570.5,-1204 570.5,-1204 671.5,-1204 671.5,-1204 677.5,-1204 683.5,-1210 683.5,-1216 683.5,-1216 683.5,-1230 683.5,-1230 683.5,-1236 677.5,-1242 671.5,-1242"/>
<text text-anchor="middle" x="621" y="-1226.2" font-family="Helvetica,sans-Serif" font-size="11.00">Gemini:</text>
<text text-anchor="middle" x="621" y="-1214.2" font-family="Helvetica,sans-Serif" font-size="11.00">build_link_decision</text>
</g>
<!-- wikidata_rank&#45;&gt;wikidata_decision -->
<g id="edge32" class="edge">
<title>wikidata_rank&#45;&gt;wikidata_decision</title>
<path fill="none" stroke="#475569" d="M627.1,-1346.86C625.87,-1322 623.64,-1277.26 622.25,-1249.18"/>
<polygon fill="#475569" stroke="#475569" points="624.69,-1248.94 621.9,-1242.07 619.8,-1249.19 624.69,-1248.94"/>
</g>
<!-- wikidata_selected -->
<g id="node31" class="node">
<title>wikidata_selected</title>
<path fill="#f8fafc" stroke="#94a3b8" d="M519.37,-1008.03C519.37,-1008.03 393.63,-975.97 393.63,-975.97 387.81,-974.48 387.81,-971.52 393.63,-970.03 393.63,-970.03 519.37,-937.97 519.37,-937.97 525.19,-936.48 536.81,-936.48 542.63,-937.97 542.63,-937.97 668.37,-970.03 668.37,-970.03 674.19,-971.52 674.19,-974.48 668.37,-975.97 668.37,-975.97 542.63,-1008.03 542.63,-1008.03 536.81,-1009.52 525.19,-1009.52 519.37,-1008.03"/>
<text text-anchor="middle" x="531" y="-976.2" font-family="Helvetica,sans-Serif" font-size="11.00">Czy wybrano</text>
<text text-anchor="middle" x="531" y="-964.2" font-family="Helvetica,sans-Serif" font-size="11.00">kandydata z Wikidata?</text>
</g>
<!-- wikidata_decision&#45;&gt;wikidata_selected -->
<g id="edge33" class="edge">
<title>wikidata_decision&#45;&gt;wikidata_selected</title>
<path fill="none" stroke="#475569" d="M618.86,-1203.91C613.7,-1160.32 601,-1053 601,-1053 601,-1053 581.12,-1030.56 562.54,-1009.6"/>
<polygon fill="#475569" stroke="#475569" points="564.34,-1007.93 557.86,-1004.32 560.67,-1011.18 564.34,-1007.93"/>
</g>
<!-- person_check -->
<g id="node37" class="node">
<title>person_check</title>
<path fill="#f8fafc" stroke="#94a3b8" d="M169.31,-2039.31C169.31,-2039.31 27.69,-2006.69 27.69,-2006.69 21.85,-2005.35 21.85,-2002.65 27.69,-2001.31 27.69,-2001.31 169.31,-1968.69 169.31,-1968.69 175.15,-1967.35 186.85,-1967.35 192.69,-1968.69 192.69,-1968.69 334.31,-2001.31 334.31,-2001.31 340.15,-2002.65 340.15,-2005.35 334.31,-2006.69 334.31,-2006.69 192.69,-2039.31 192.69,-2039.31 186.85,-2040.65 175.15,-2040.65 169.31,-2039.31"/>
<text text-anchor="middle" x="181" y="-2007.2" font-family="Helvetica,sans-Serif" font-size="11.00">Czy to persName</text>
<text text-anchor="middle" x="181" y="-1995.2" font-family="Helvetica,sans-Serif" font-size="11.00">z urzędem lub miejscem?</text>
</g>
<!-- wikidata_selected&#45;&gt;person_check -->
<g id="edge40" class="edge">
<title>wikidata_selected&#45;&gt;person_check</title>
<path fill="none" stroke="#475569" d="M483.83,-999.02C425.26,-1030.07 333,-1079 333,-1079 333,-1413.5 333,-1413.5 333,-1413.5 333,-1413.5 332,-1570 332,-1570 332,-1893 332,-1893 332,-1893 332,-1893 289,-1944 289,-1944 289,-1944 262.1,-1958.69 235.15,-1973.42"/>
<polygon fill="#475569" stroke="#475569" points="233.65,-1971.44 228.68,-1976.95 236,-1975.74 233.65,-1971.44"/>
<text text-anchor="middle" x="340" y="-1456.5" font-family="Helvetica,sans-Serif" font-size="10.00">nie</text>
</g>
<!-- wikidata_selected&#45;&gt;selected -->
<g id="edge39" class="edge">
<title>wikidata_selected&#45;&gt;selected</title>
<path fill="none" stroke="#475569" d="M531,-934.95C531,-909.85 531,-877.37 531,-855.45"/>
<polygon fill="#475569" stroke="#475569" points="533.45,-855.17 531,-848.17 528.55,-855.17 533.45,-855.17"/>
<text text-anchor="middle" x="539" y="-905" font-family="Helvetica,sans-Serif" font-size="10.00">tak</text>
</g>
<!-- wikidata_retry_search -->
<g id="node33" class="node">
<title>wikidata_retry_search</title>
<path fill="#f8fafc" stroke="#94a3b8" d="M511,-1385C511,-1385 411,-1385 411,-1385 405,-1385 399,-1379 399,-1373 399,-1373 399,-1359 399,-1359 399,-1353 405,-1347 411,-1347 411,-1347 511,-1347 511,-1347 517,-1347 523,-1353 523,-1359 523,-1359 523,-1373 523,-1373 523,-1379 517,-1385 511,-1385"/>
<text text-anchor="middle" x="461" y="-1369.2" font-family="Helvetica,sans-Serif" font-size="11.00">Special:Search ~2</text>
<text text-anchor="middle" x="461" y="-1357.2" font-family="Helvetica,sans-Serif" font-size="11.00">w Wikidata</text>
</g>
<!-- wikidata_retry&#45;&gt;wikidata_retry_search -->
<g id="edge34" class="edge">
<title>wikidata_retry&#45;&gt;wikidata_retry_search</title>
<path fill="none" stroke="#475569" d="M460.2,-1439.58C460.35,-1425.93 460.56,-1407.15 460.72,-1392.12"/>
<polygon fill="#475569" stroke="#475569" points="463.17,-1392.1 460.8,-1385.08 458.27,-1392.05 463.17,-1392.1"/>
</g>
<!-- wikidata_retry_filter -->
<g id="node34" class="node">
<title>wikidata_retry_filter</title>
<path fill="#f8fafc" stroke="#94a3b8" d="M581,-1301C581,-1301 439,-1301 439,-1301 433,-1301 427,-1295 427,-1289 427,-1289 427,-1277 427,-1277 427,-1271 433,-1265 439,-1265 439,-1265 581,-1265 581,-1265 587,-1265 593,-1271 593,-1277 593,-1277 593,-1289 593,-1289 593,-1295 587,-1301 581,-1301"/>
<text text-anchor="middle" x="510" y="-1280.2" font-family="Helvetica,sans-Serif" font-size="11.00">Filtrowanie po instance of</text>
</g>
<!-- wikidata_retry_search&#45;&gt;wikidata_retry_filter -->
<g id="edge35" class="edge">
<title>wikidata_retry_search&#45;&gt;wikidata_retry_filter</title>
<path fill="none" stroke="#475569" d="M472.12,-1346.62C479.14,-1335.01 488.28,-1319.91 495.82,-1307.45"/>
<polygon fill="#475569" stroke="#475569" points="498.07,-1308.46 499.6,-1301.2 493.88,-1305.92 498.07,-1308.46"/>
</g>
<!-- wikidata_retry_rank -->
<g id="node35" class="node">
<title>wikidata_retry_rank</title>
<path fill="#f8fafc" stroke="#94a3b8" d="M578,-1182C578,-1182 442,-1182 442,-1182 436,-1182 430,-1176 430,-1170 430,-1170 430,-1156 430,-1156 430,-1150 436,-1144 442,-1144 442,-1144 578,-1144 578,-1144 584,-1144 590,-1150 590,-1156 590,-1156 590,-1170 590,-1170 590,-1176 584,-1182 578,-1182"/>
<text text-anchor="middle" x="510" y="-1166.2" font-family="Helvetica,sans-Serif" font-size="11.00">Dedup i uporządkowanie</text>
<text text-anchor="middle" x="510" y="-1154.2" font-family="Helvetica,sans-Serif" font-size="11.00">kandydatów</text>
</g>
<!-- wikidata_retry_filter&#45;&gt;wikidata_retry_rank -->
<g id="edge36" class="edge">
<title>wikidata_retry_filter&#45;&gt;wikidata_retry_rank</title>
<path fill="none" stroke="#475569" d="M510,-1264.84C510,-1245 510,-1212.15 510,-1189.36"/>
<polygon fill="#475569" stroke="#475569" points="512.45,-1189.34 510,-1182.34 507.55,-1189.34 512.45,-1189.34"/>
</g>
<!-- wikidata_retry_decision -->
<g id="node36" class="node">
<title>wikidata_retry_decision</title>
<path fill="#f8fafc" stroke="#94a3b8" d="M576.5,-1099C576.5,-1099 475.5,-1099 475.5,-1099 469.5,-1099 463.5,-1093 463.5,-1087 463.5,-1087 463.5,-1073 463.5,-1073 463.5,-1067 469.5,-1061 475.5,-1061 475.5,-1061 576.5,-1061 576.5,-1061 582.5,-1061 588.5,-1067 588.5,-1073 588.5,-1073 588.5,-1087 588.5,-1087 588.5,-1093 582.5,-1099 576.5,-1099"/>
<text text-anchor="middle" x="526" y="-1083.2" font-family="Helvetica,sans-Serif" font-size="11.00">Gemini:</text>
<text text-anchor="middle" x="526" y="-1071.2" font-family="Helvetica,sans-Serif" font-size="11.00">build_link_decision</text>
</g>
<!-- wikidata_retry_rank&#45;&gt;wikidata_retry_decision -->
<g id="edge37" class="edge">
<title>wikidata_retry_rank&#45;&gt;wikidata_retry_decision</title>
<path fill="none" stroke="#475569" d="M513.63,-1143.62C515.83,-1132.46 518.68,-1118.07 521.08,-1105.9"/>
<polygon fill="#475569" stroke="#475569" points="523.49,-1106.37 522.44,-1099.03 518.68,-1105.42 523.49,-1106.37"/>
</g>
<!-- wikidata_retry_decision&#45;&gt;wikidata_selected -->
<g id="edge38" class="edge">
<title>wikidata_retry_decision&#45;&gt;wikidata_selected</title>
<path fill="none" stroke="#475569" d="M526.87,-1060.71C527.43,-1048.89 528.19,-1032.98 528.9,-1018.02"/>
<polygon fill="#475569" stroke="#475569" points="531.36,-1017.88 529.25,-1010.77 526.47,-1017.65 531.36,-1017.88"/>
</g>
<!-- plwiki_fallback -->
<g id="node38" class="node">
<title>plwiki_fallback</title>
<path fill="#f8fafc" stroke="#94a3b8" d="M215,-1911C215,-1911 119,-1911 119,-1911 113,-1911 107,-1905 107,-1899 107,-1899 107,-1885 107,-1885 107,-1879 113,-1873 119,-1873 119,-1873 215,-1873 215,-1873 221,-1873 227,-1879 227,-1885 227,-1885 227,-1899 227,-1899 227,-1905 221,-1911 215,-1911"/>
<text text-anchor="middle" x="167" y="-1895.2" font-family="Helvetica,sans-Serif" font-size="11.00">Uruchom fallback</text>
<text text-anchor="middle" x="167" y="-1883.2" font-family="Helvetica,sans-Serif" font-size="11.00">plwiki</text>
</g>
<!-- person_check&#45;&gt;plwiki_fallback -->
<g id="edge42" class="edge">
<title>person_check&#45;&gt;plwiki_fallback</title>
<path fill="none" stroke="#475569" d="M176.42,-1966.98C174.39,-1951.08 172.06,-1932.77 170.23,-1918.34"/>
<polygon fill="#475569" stroke="#475569" points="172.63,-1917.82 169.31,-1911.18 167.77,-1918.44 172.63,-1917.82"/>
<text text-anchor="middle" x="181" y="-1936" font-family="Helvetica,sans-Serif" font-size="10.00">tak</text>
</g>
<!-- unresolved -->
<g id="node49" class="node">
<title>unresolved</title>
<path fill="#fef3c7" stroke="#d97706" d="M364.5,-848C364.5,-848 275.5,-848 275.5,-848 269.5,-848 263.5,-842 263.5,-836 263.5,-836 263.5,-824 263.5,-824 263.5,-818 269.5,-812 275.5,-812 275.5,-812 364.5,-812 364.5,-812 370.5,-812 376.5,-818 376.5,-824 376.5,-824 376.5,-836 376.5,-836 376.5,-842 370.5,-848 364.5,-848"/>
<text text-anchor="middle" x="320" y="-827.2" font-family="Helvetica,sans-Serif" font-size="11.00">decision = none</text>
</g>
<!-- person_check&#45;&gt;unresolved -->
<g id="edge41" class="edge">
<title>person_check&#45;&gt;unresolved</title>
<path fill="none" stroke="#475569" d="M206.27,-1971.77C232.58,-1939.25 270,-1893 270,-1893 270,-1893 270,-1893 270,-1365 270,-1365 307.91,-960.08 317.71,-855.44"/>
<polygon fill="#475569" stroke="#475569" points="320.18,-855.36 318.39,-848.16 315.3,-854.9 320.18,-855.36"/>
<text text-anchor="middle" x="278" y="-1410" font-family="Helvetica,sans-Serif" font-size="10.00">nie</text>
</g>
<!-- plwiki_queries -->
<g id="node39" class="node">
<title>plwiki_queries</title>
<path fill="#f8fafc" stroke="#94a3b8" d="M220,-1804C220,-1804 80,-1804 80,-1804 74,-1804 68,-1798 68,-1792 68,-1792 68,-1778 68,-1778 68,-1772 74,-1766 80,-1766 80,-1766 220,-1766 220,-1766 226,-1766 232,-1772 232,-1778 232,-1778 232,-1792 232,-1792 232,-1798 226,-1804 220,-1804"/>
<text text-anchor="middle" x="150" y="-1788.2" font-family="Helvetica,sans-Serif" font-size="11.00">Budowa polskich zapytań</text>
<text text-anchor="middle" x="150" y="-1776.2" font-family="Helvetica,sans-Serif" font-size="11.00">encyklopedycznych</text>
</g>
<!-- plwiki_fallback&#45;&gt;plwiki_queries -->
<g id="edge43" class="edge">
<title>plwiki_fallback&#45;&gt;plwiki_queries</title>
<path fill="none" stroke="#475569" d="M164.04,-1872.71C161.27,-1855.62 157.12,-1829.97 154.05,-1810.99"/>
<polygon fill="#475569" stroke="#475569" points="156.46,-1810.6 152.93,-1804.08 151.63,-1811.38 156.46,-1810.6"/>
</g>
<!-- plwiki_examples -->
<g id="node40" class="node">
<title>plwiki_examples</title>
<path fill="#f8fafc" stroke="#94a3b8" d="M219.5,-1692C219.5,-1692 80.5,-1692 80.5,-1692 74.5,-1692 68.5,-1686 68.5,-1680 68.5,-1680 68.5,-1666 68.5,-1666 68.5,-1660 74.5,-1654 80.5,-1654 80.5,-1654 219.5,-1654 219.5,-1654 225.5,-1654 231.5,-1660 231.5,-1666 231.5,-1666 231.5,-1680 231.5,-1680 231.5,-1686 225.5,-1692 219.5,-1692"/>
<text text-anchor="middle" x="150" y="-1676.2" font-family="Helvetica,sans-Serif" font-size="11.00">Np.:</text>
<text text-anchor="middle" x="150" y="-1664.2" font-family="Helvetica,sans-Serif" font-size="11.00">Mikołaj biskup chełmiński</text>
</g>
<!-- plwiki_queries&#45;&gt;plwiki_examples -->
<g id="edge44" class="edge">
<title>plwiki_queries&#45;&gt;plwiki_examples</title>
<path fill="none" stroke="#475569" d="M150,-1765.84C150,-1747.68 150,-1719.62 150,-1699.3"/>
<polygon fill="#475569" stroke="#475569" points="152.45,-1699.19 150,-1692.19 147.55,-1699.19 152.45,-1699.19"/>
</g>
<!-- plwiki_search -->
<g id="node41" class="node">
<title>plwiki_search</title>
<path fill="#f8fafc" stroke="#94a3b8" d="M196.5,-1589C196.5,-1589 103.5,-1589 103.5,-1589 97.5,-1589 91.5,-1583 91.5,-1577 91.5,-1577 91.5,-1565 91.5,-1565 91.5,-1559 97.5,-1553 103.5,-1553 103.5,-1553 196.5,-1553 196.5,-1553 202.5,-1553 208.5,-1559 208.5,-1565 208.5,-1565 208.5,-1577 208.5,-1577 208.5,-1583 202.5,-1589 196.5,-1589"/>
<text text-anchor="middle" x="150" y="-1568.2" font-family="Helvetica,sans-Serif" font-size="11.00">plwiki search API</text>
</g>
<!-- plwiki_examples&#45;&gt;plwiki_search -->
<g id="edge45" class="edge">
<title>plwiki_examples&#45;&gt;plwiki_search</title>
<path fill="none" stroke="#475569" d="M150,-1653.66C150,-1637.57 150,-1614.07 150,-1596.4"/>
<polygon fill="#475569" stroke="#475569" points="152.45,-1596.22 150,-1589.22 147.55,-1596.22 152.45,-1596.22"/>
</g>
<!-- plwiki_meta -->
<g id="node42" class="node">
<title>plwiki_meta</title>
<path fill="#f8fafc" stroke="#94a3b8" d="M204.5,-1478C204.5,-1478 95.5,-1478 95.5,-1478 89.5,-1478 83.5,-1472 83.5,-1466 83.5,-1466 83.5,-1452 83.5,-1452 83.5,-1446 89.5,-1440 95.5,-1440 95.5,-1440 204.5,-1440 204.5,-1440 210.5,-1440 216.5,-1446 216.5,-1452 216.5,-1452 216.5,-1466 216.5,-1466 216.5,-1472 210.5,-1478 204.5,-1478"/>
<text text-anchor="middle" x="150" y="-1462.2" font-family="Helvetica,sans-Serif" font-size="11.00">Pobranie pageprops</text>
<text text-anchor="middle" x="150" y="-1450.2" font-family="Helvetica,sans-Serif" font-size="11.00">i extract</text>
</g>
<!-- plwiki_search&#45;&gt;plwiki_meta -->
<g id="edge46" class="edge">
<title>plwiki_search&#45;&gt;plwiki_meta</title>
<path fill="none" stroke="#475569" d="M150,-1552.81C150,-1534.73 150,-1506.08 150,-1485.39"/>
<polygon fill="#475569" stroke="#475569" points="152.45,-1485.16 150,-1478.16 147.55,-1485.16 152.45,-1485.16"/>
</g>
<!-- plwiki_qid -->
<g id="node43" class="node">
<title>plwiki_qid</title>
<path fill="#f8fafc" stroke="#94a3b8" d="M210.5,-1384C210.5,-1384 89.5,-1384 89.5,-1384 83.5,-1384 77.5,-1378 77.5,-1372 77.5,-1372 77.5,-1360 77.5,-1360 77.5,-1354 83.5,-1348 89.5,-1348 89.5,-1348 210.5,-1348 210.5,-1348 216.5,-1348 222.5,-1354 222.5,-1360 222.5,-1360 222.5,-1372 222.5,-1372 222.5,-1378 216.5,-1384 210.5,-1384"/>
<text text-anchor="middle" x="150" y="-1363.2" font-family="Helvetica,sans-Serif" font-size="11.00">Odczyt wikibase_item</text>
</g>
<!-- plwiki_meta&#45;&gt;plwiki_qid -->
<g id="edge47" class="edge">
<title>plwiki_meta&#45;&gt;plwiki_qid</title>
<path fill="none" stroke="#475569" d="M150,-1439.58C150,-1425.66 150,-1406.41 150,-1391.24"/>
<polygon fill="#475569" stroke="#475569" points="152.45,-1391.16 150,-1384.16 147.55,-1391.16 152.45,-1391.16"/>
</g>
<!-- plwiki_to_wd -->
<g id="node44" class="node">
<title>plwiki_to_wd</title>
<path fill="#f8fafc" stroke="#94a3b8" d="M218,-1302C218,-1302 82,-1302 82,-1302 76,-1302 70,-1296 70,-1290 70,-1290 70,-1276 70,-1276 70,-1270 76,-1264 82,-1264 82,-1264 218,-1264 218,-1264 224,-1264 230,-1270 230,-1276 230,-1276 230,-1290 230,-1290 230,-1296 224,-1302 218,-1302"/>
<text text-anchor="middle" x="150" y="-1286.2" font-family="Helvetica,sans-Serif" font-size="11.00">Konwersja trafień</text>
<text text-anchor="middle" x="150" y="-1274.2" font-family="Helvetica,sans-Serif" font-size="11.00">na kandydatów Wikidata</text>
</g>
<!-- plwiki_qid&#45;&gt;plwiki_to_wd -->
<g id="edge48" class="edge">
<title>plwiki_qid&#45;&gt;plwiki_to_wd</title>
<path fill="none" stroke="#475569" d="M150,-1347.82C150,-1336.64 150,-1321.86 150,-1309.35"/>
<polygon fill="#475569" stroke="#475569" points="152.45,-1309.28 150,-1302.28 147.55,-1309.28 152.45,-1309.28"/>
</g>
<!-- plwiki_enrich -->
<g id="node45" class="node">
<title>plwiki_enrich</title>
<path fill="#f8fafc" stroke="#94a3b8" d="M218.5,-1182C218.5,-1182 81.5,-1182 81.5,-1182 75.5,-1182 69.5,-1176 69.5,-1170 69.5,-1170 69.5,-1156 69.5,-1156 69.5,-1150 75.5,-1144 81.5,-1144 81.5,-1144 218.5,-1144 218.5,-1144 224.5,-1144 230.5,-1150 230.5,-1156 230.5,-1156 230.5,-1170 230.5,-1170 230.5,-1176 224.5,-1182 218.5,-1182"/>
<text text-anchor="middle" x="150" y="-1166.2" font-family="Helvetica,sans-Serif" font-size="11.00">Dołączenie tytułu i leadu</text>
<text text-anchor="middle" x="150" y="-1154.2" font-family="Helvetica,sans-Serif" font-size="11.00">z plwiki</text>
</g>
<!-- plwiki_to_wd&#45;&gt;plwiki_enrich -->
<g id="edge49" class="edge">
<title>plwiki_to_wd&#45;&gt;plwiki_enrich</title>
<path fill="none" stroke="#475569" d="M150,-1263.82C150,-1243.84 150,-1211.61 150,-1189.2"/>
<polygon fill="#475569" stroke="#475569" points="152.45,-1189.01 150,-1182.01 147.55,-1189.01 152.45,-1189.01"/>
</g>
<!-- plwiki_decision -->
<g id="node46" class="node">
<title>plwiki_decision</title>
<path fill="#f8fafc" stroke="#94a3b8" d="M200.5,-1099C200.5,-1099 99.5,-1099 99.5,-1099 93.5,-1099 87.5,-1093 87.5,-1087 87.5,-1087 87.5,-1073 87.5,-1073 87.5,-1067 93.5,-1061 99.5,-1061 99.5,-1061 200.5,-1061 200.5,-1061 206.5,-1061 212.5,-1067 212.5,-1073 212.5,-1073 212.5,-1087 212.5,-1087 212.5,-1093 206.5,-1099 200.5,-1099"/>
<text text-anchor="middle" x="150" y="-1083.2" font-family="Helvetica,sans-Serif" font-size="11.00">Gemini:</text>
<text text-anchor="middle" x="150" y="-1071.2" font-family="Helvetica,sans-Serif" font-size="11.00">build_link_decision</text>
</g>
<!-- plwiki_enrich&#45;&gt;plwiki_decision -->
<g id="edge50" class="edge">
<title>plwiki_enrich&#45;&gt;plwiki_decision</title>
<path fill="none" stroke="#475569" d="M150,-1143.62C150,-1132.56 150,-1118.34 150,-1106.24"/>
<polygon fill="#475569" stroke="#475569" points="152.45,-1106.03 150,-1099.03 147.55,-1106.03 152.45,-1106.03"/>
</g>
<!-- plwiki_selected -->
<g id="node47" class="node">
<title>plwiki_selected</title>
<path fill="#f8fafc" stroke="#94a3b8" d="M137.46,-1007.7C137.46,-1007.7 27.54,-976.3 27.54,-976.3 21.77,-974.65 21.77,-971.35 27.54,-969.7 27.54,-969.7 137.46,-938.3 137.46,-938.3 143.23,-936.65 154.77,-936.65 160.54,-938.3 160.54,-938.3 270.46,-969.7 270.46,-969.7 276.23,-971.35 276.23,-974.65 270.46,-976.3 270.46,-976.3 160.54,-1007.7 160.54,-1007.7 154.77,-1009.35 143.23,-1009.35 137.46,-1007.7"/>
<text text-anchor="middle" x="149" y="-976.2" font-family="Helvetica,sans-Serif" font-size="11.00">Czy wybrano</text>
<text text-anchor="middle" x="149" y="-964.2" font-family="Helvetica,sans-Serif" font-size="11.00">kandydata z plwiki?</text>
</g>
<!-- plwiki_decision&#45;&gt;plwiki_selected -->
<g id="edge51" class="edge">
<title>plwiki_decision&#45;&gt;plwiki_selected</title>
<path fill="none" stroke="#475569" d="M149.83,-1060.71C149.71,-1049 149.56,-1033.26 149.42,-1018.4"/>
<polygon fill="#475569" stroke="#475569" points="151.87,-1018.18 149.35,-1011.2 146.97,-1018.23 151.87,-1018.18"/>
</g>
<!-- plwiki_selected&#45;&gt;selected -->
<g id="edge52" class="edge">
<title>plwiki_selected&#45;&gt;selected</title>
<path fill="none" stroke="#475569" d="M206.49,-951.4C277.49,-925.96 389,-886 389,-886 389,-886 439.4,-866.48 480.14,-850.7"/>
<polygon fill="#475569" stroke="#475569" points="481.21,-852.91 486.85,-848.1 479.44,-848.34 481.21,-852.91"/>
<text text-anchor="middle" x="351" y="-905" font-family="Helvetica,sans-Serif" font-size="10.00">tak</text>
</g>
<!-- plwiki_selected&#45;&gt;unresolved -->
<g id="edge53" class="edge">
<title>plwiki_selected&#45;&gt;unresolved</title>
<path fill="none" stroke="#475569" d="M177.03,-942.72C195.39,-923.54 216,-902 216,-902 216,-902 258.47,-873.01 289.13,-852.07"/>
<polygon fill="#475569" stroke="#475569" points="290.69,-853.98 295.09,-848.01 287.93,-849.93 290.69,-853.98"/>
<text text-anchor="middle" x="224" y="-905" font-family="Helvetica,sans-Serif" font-size="10.00">nie</text>
</g>
<!-- set_key_ref -->
<g id="node50" class="node">
<title>set_key_ref</title>
<path fill="#f8fafc" stroke="#94a3b8" d="M587,-724C587,-724 477,-724 477,-724 471,-724 465,-718 465,-712 465,-712 465,-700 465,-700 465,-694 471,-688 477,-688 477,-688 587,-688 587,-688 593,-688 599,-694 599,-700 599,-700 599,-712 599,-712 599,-718 593,-724 587,-724"/>
<text text-anchor="middle" x="532" y="-703.2" font-family="Helvetica,sans-Serif" font-size="11.00">Ustawienie key i ref</text>
</g>
<!-- selected&#45;&gt;set_key_ref -->
<g id="edge54" class="edge">
<title>selected&#45;&gt;set_key_ref</title>
<path fill="none" stroke="#475569" d="M531.14,-811.78C531.31,-790.8 531.6,-755.21 531.8,-731.41"/>
<polygon fill="#475569" stroke="#475569" points="534.25,-731.15 531.86,-724.13 529.35,-731.11 534.25,-731.15"/>
</g>
<!-- set_key_only -->
<g id="node51" class="node">
<title>set_key_only</title>
<path fill="#f8fafc" stroke="#94a3b8" d="M392.5,-724C392.5,-724 277.5,-724 277.5,-724 271.5,-724 265.5,-718 265.5,-712 265.5,-712 265.5,-700 265.5,-700 265.5,-694 271.5,-688 277.5,-688 277.5,-688 392.5,-688 392.5,-688 398.5,-688 404.5,-694 404.5,-700 404.5,-700 404.5,-712 404.5,-712 404.5,-718 398.5,-724 392.5,-724"/>
<text text-anchor="middle" x="335" y="-703.2" font-family="Helvetica,sans-Serif" font-size="11.00">Ustawienie tylko key</text>
</g>
<!-- unresolved&#45;&gt;set_key_only -->
<g id="edge56" class="edge">
<title>unresolved&#45;&gt;set_key_only</title>
<path fill="none" stroke="#475569" d="M322.12,-811.78C324.71,-790.71 329.11,-754.9 332.04,-731.1"/>
<polygon fill="#475569" stroke="#475569" points="334.47,-731.38 332.89,-724.13 329.61,-730.78 334.47,-731.38"/>
</g>
<!-- set_key_ref&#45;&gt;add_resolved -->
<g id="edge55" class="edge">
<title>set_key_ref&#45;&gt;add_resolved</title>
<path fill="none" stroke="#475569" d="M532.85,-687.82C533.4,-676.64 534.13,-661.86 534.75,-649.35"/>
<polygon fill="#475569" stroke="#475569" points="537.2,-649.39 535.1,-642.28 532.3,-649.15 537.2,-649.39"/>
</g>
<!-- add_unresolved -->
<g id="node53" class="node">
<title>add_unresolved</title>
<path fill="#f8fafc" stroke="#94a3b8" d="M421,-642C421,-642 273,-642 273,-642 267,-642 261,-636 261,-630 261,-630 261,-616 261,-616 261,-610 267,-604 273,-604 273,-604 421,-604 421,-604 427,-604 433,-610 433,-616 433,-616 433,-630 433,-630 433,-636 427,-642 421,-642"/>
<text text-anchor="middle" x="347" y="-626.2" font-family="Helvetica,sans-Serif" font-size="11.00">Dodanie do listy</text>
<text text-anchor="middle" x="347" y="-614.2" font-family="Helvetica,sans-Serif" font-size="11.00">niezidentyfikowanych encji</text>
</g>
<!-- set_key_only&#45;&gt;add_unresolved -->
<g id="edge57" class="edge">
<title>set_key_only&#45;&gt;add_unresolved</title>
<path fill="none" stroke="#475569" d="M337.54,-687.82C339.2,-676.64 341.39,-661.86 343.25,-649.35"/>
<polygon fill="#475569" stroke="#475569" points="345.69,-649.56 344.29,-642.28 340.84,-648.84 345.69,-649.56"/>
</g>
<!-- next_entity -->
<g id="node54" class="node">
<title>next_entity</title>
<path fill="#f8fafc" stroke="#94a3b8" d="M506.73,-543.88C506.73,-543.88 425.27,-514.12 425.27,-514.12 419.64,-512.06 419.64,-507.94 425.27,-505.88 425.27,-505.88 506.73,-476.12 506.73,-476.12 512.36,-474.06 523.64,-474.06 529.27,-476.12 529.27,-476.12 610.73,-505.88 610.73,-505.88 616.36,-507.94 616.36,-512.06 610.73,-514.12 610.73,-514.12 529.27,-543.88 529.27,-543.88 523.64,-545.94 512.36,-545.94 506.73,-543.88"/>
<text text-anchor="middle" x="518" y="-513.2" font-family="Helvetica,sans-Serif" font-size="11.00">Czy są kolejne</text>
<text text-anchor="middle" x="518" y="-501.2" font-family="Helvetica,sans-Serif" font-size="11.00">encje?</text>
</g>
<!-- add_resolved&#45;&gt;next_entity -->
<g id="edge59" class="edge">
<title>add_resolved&#45;&gt;next_entity</title>
<path fill="none" stroke="#475569" d="M533.03,-603.67C530.81,-589.99 527.68,-570.72 524.86,-553.3"/>
<polygon fill="#475569" stroke="#475569" points="527.21,-552.48 523.67,-545.96 522.37,-553.27 527.21,-552.48"/>
</g>
<!-- add_unresolved&#45;&gt;next_entity -->
<g id="edge60" class="edge">
<title>add_unresolved&#45;&gt;next_entity</title>
<path fill="none" stroke="#475569" d="M374.85,-603.92C402.09,-586.24 443.94,-559.07 475.37,-538.67"/>
<polygon fill="#475569" stroke="#475569" points="476.97,-540.56 481.51,-534.69 474.3,-536.45 476.97,-540.56"/>
</g>
<!-- next_entity&#45;&gt;entity_loop -->
<g id="edge61" class="edge">
<title>next_entity&#45;&gt;entity_loop</title>
<path fill="none" stroke="#475569" d="M569.66,-529.21C659.03,-560.7 833,-622 833,-622 833,-753.5 833,-753.5 833,-753.5 833,-753.5 857,-1030 857,-1030 857,-1030 911.32,-1045.38 959.08,-1058.91"/>
<polygon fill="#475569" stroke="#475569" points="958.67,-1061.34 966.07,-1060.89 960.01,-1056.63 958.67,-1061.34"/>
<text text-anchor="middle" x="841" y="-750" font-family="Helvetica,sans-Serif" font-size="10.00">tak</text>
</g>
<!-- build_tei -->
<g id="node55" class="node">
<title>build_tei</title>
<path fill="#f8fafc" stroke="#94a3b8" d="M568,-406C568,-406 456,-406 456,-406 450,-406 444,-400 444,-394 444,-394 444,-380 444,-380 444,-374 450,-368 456,-368 456,-368 568,-368 568,-368 574,-368 580,-374 580,-380 580,-380 580,-394 580,-394 580,-400 574,-406 568,-406"/>
<text text-anchor="middle" x="512" y="-390.2" font-family="Helvetica,sans-Serif" font-size="11.00">Złożenie końcowego</text>
<text text-anchor="middle" x="512" y="-378.2" font-family="Helvetica,sans-Serif" font-size="11.00">TEI XML</text>
</g>
<!-- next_entity&#45;&gt;build_tei -->
<g id="edge62" class="edge">
<title>next_entity&#45;&gt;build_tei</title>
<path fill="none" stroke="#475569" d="M516.18,-472.37C515.24,-453.43 514.12,-430.77 513.27,-413.71"/>
<polygon fill="#475569" stroke="#475569" points="515.7,-413.16 512.91,-406.29 510.81,-413.41 515.7,-413.16"/>
<text text-anchor="middle" x="522" y="-431" font-family="Helvetica,sans-Serif" font-size="10.00">nie</text>
</g>
<!-- sort_entities -->
<g id="node56" class="node">
<title>sort_entities</title>
<path fill="#f8fafc" stroke="#94a3b8" d="M557.5,-310C557.5,-310 450.5,-310 450.5,-310 444.5,-310 438.5,-304 438.5,-298 438.5,-298 438.5,-286 438.5,-286 438.5,-280 444.5,-274 450.5,-274 450.5,-274 557.5,-274 557.5,-274 563.5,-274 569.5,-280 569.5,-286 569.5,-286 569.5,-298 569.5,-298 569.5,-304 563.5,-310 557.5,-310"/>
<text text-anchor="middle" x="504" y="-289.2" font-family="Helvetica,sans-Serif" font-size="11.00">Sortowanie entities</text>
</g>
<!-- build_tei&#45;&gt;sort_entities -->
<g id="edge63" class="edge">
<title>build_tei&#45;&gt;sort_entities</title>
<path fill="none" stroke="#475569" d="M510.42,-367.63C509.18,-353.25 507.45,-333.13 506.1,-317.4"/>
<polygon fill="#475569" stroke="#475569" points="508.51,-316.85 505.47,-310.08 503.63,-317.27 508.51,-316.85"/>
</g>
<!-- sort_unresolved -->
<g id="node57" class="node">
<title>sort_unresolved</title>
<path fill="#f8fafc" stroke="#94a3b8" d="M554,-216C554,-216 446,-216 446,-216 440,-216 434,-210 434,-204 434,-204 434,-190 434,-190 434,-184 440,-178 446,-178 446,-178 554,-178 554,-178 560,-178 566,-184 566,-190 566,-190 566,-204 566,-204 566,-210 560,-216 554,-216"/>
<text text-anchor="middle" x="500" y="-200.2" font-family="Helvetica,sans-Serif" font-size="11.00">Sortowanie</text>
<text text-anchor="middle" x="500" y="-188.2" font-family="Helvetica,sans-Serif" font-size="11.00">unresolved_entities</text>
</g>
<!-- sort_entities&#45;&gt;sort_unresolved -->
<g id="edge64" class="edge">
<title>sort_entities&#45;&gt;sort_unresolved</title>
<path fill="none" stroke="#475569" d="M503.27,-273.94C502.66,-259.75 501.78,-239.35 501.09,-223.27"/>
<polygon fill="#475569" stroke="#475569" points="503.53,-223.11 500.78,-216.22 498.64,-223.32 503.53,-223.11"/>
</g>
<!-- json_response -->
<g id="node58" class="node">
<title>json_response</title>
<path fill="#e0f2fe" stroke="#0284c7" d="M538,-133C538,-133 456,-133 456,-133 450,-133 444,-127 444,-121 444,-121 444,-109 444,-109 444,-103 450,-97 456,-97 456,-97 538,-97 538,-97 544,-97 550,-103 550,-109 550,-109 550,-121 550,-121 550,-127 544,-133 538,-133"/>
<text text-anchor="middle" x="497" y="-112.2" font-family="Helvetica,sans-Serif" font-size="11.00">JSON response</text>
</g>
<!-- sort_unresolved&#45;&gt;json_response -->
<g id="edge65" class="edge">
<title>sort_unresolved&#45;&gt;json_response</title>
<path fill="none" stroke="#475569" d="M499.32,-177.85C498.9,-166.78 498.37,-152.48 497.92,-140.43"/>
<polygon fill="#475569" stroke="#475569" points="500.36,-140.16 497.65,-133.26 495.46,-140.35 500.36,-140.16"/>
</g>
<!-- out_xml -->
<g id="node59" class="node">
<title>out_xml</title>
<path fill="#f8fafc" stroke="#94a3b8" d="M303,-52C303,-52 273,-52 273,-52 267,-52 261,-46 261,-40 261,-40 261,-28 261,-28 261,-22 267,-16 273,-16 273,-16 303,-16 303,-16 309,-16 315,-22 315,-28 315,-28 315,-40 315,-40 315,-46 309,-52 303,-52"/>
<text text-anchor="middle" x="288" y="-31.2" font-family="Helvetica,sans-Serif" font-size="11.00">xml</text>
</g>
<!-- json_response&#45;&gt;out_xml -->
<g id="edge66" class="edge">
<title>json_response&#45;&gt;out_xml</title>
<path fill="none" stroke="#475569" d="M450.37,-96.89C400.35,-78.54 328,-52 328,-52 328,-52 325.58,-50.97 321.92,-49.42"/>
<polygon fill="#475569" stroke="#475569" points="322.74,-47.1 315.34,-46.62 320.83,-51.61 322.74,-47.1"/>
</g>
<!-- out_entities -->
<g id="node60" class="node">
<title>out_entities</title>
<path fill="#f8fafc" stroke="#94a3b8" d="M394,-52C394,-52 352,-52 352,-52 346,-52 340,-46 340,-40 340,-40 340,-28 340,-28 340,-22 346,-16 352,-16 352,-16 394,-16 394,-16 400,-16 406,-22 406,-28 406,-28 406,-40 406,-40 406,-46 400,-52 394,-52"/>
<text text-anchor="middle" x="373" y="-31.2" font-family="Helvetica,sans-Serif" font-size="11.00">entities</text>
</g>
<!-- json_response&#45;&gt;out_entities -->
<g id="edge67" class="edge">
<title>json_response&#45;&gt;out_entities</title>
<path fill="none" stroke="#475569" d="M470.09,-96.86C451.24,-84.85 425.94,-68.73 405.89,-55.96"/>
<polygon fill="#475569" stroke="#475569" points="407.07,-53.8 399.85,-52.11 404.44,-57.94 407.07,-53.8"/>
</g>
<!-- out_unresolved -->
<g id="node61" class="node">
<title>out_unresolved</title>
<path fill="#f8fafc" stroke="#94a3b8" d="M551,-52C551,-52 443,-52 443,-52 437,-52 431,-46 431,-40 431,-40 431,-28 431,-28 431,-22 437,-16 443,-16 443,-16 551,-16 551,-16 557,-16 563,-22 563,-28 563,-28 563,-40 563,-40 563,-46 557,-52 551,-52"/>
<text text-anchor="middle" x="497" y="-31.2" font-family="Helvetica,sans-Serif" font-size="11.00">unresolved_entities</text>
</g>
<!-- json_response&#45;&gt;out_unresolved -->
<g id="edge68" class="edge">
<title>json_response&#45;&gt;out_unresolved</title>
<path fill="none" stroke="#475569" d="M497,-96.86C497,-85.88 497,-71.48 497,-59.33"/>
<polygon fill="#475569" stroke="#475569" points="499.45,-59.11 497,-52.11 494.55,-59.11 499.45,-59.11"/>
</g>
<!-- out_log -->
<g id="node62" class="node">
<title>out_log</title>
<path fill="#f8fafc" stroke="#94a3b8" d="M700,-52C700,-52 600,-52 600,-52 594,-52 588,-46 588,-40 588,-40 588,-28 588,-28 588,-22 594,-16 600,-16 600,-16 700,-16 700,-16 706,-16 712,-22 712,-28 712,-28 712,-40 712,-40 712,-46 706,-52 700,-52"/>
<text text-anchor="middle" x="650" y="-31.2" font-family="Helvetica,sans-Serif" font-size="11.00">diagnostic_log_file</text>
</g>
<!-- json_response&#45;&gt;out_log -->
<g id="edge69" class="edge">
<title>json_response&#45;&gt;out_log</title>
<path fill="none" stroke="#475569" d="M530.2,-96.86C553.76,-84.69 585.48,-68.31 610.37,-55.46"/>
<polygon fill="#475569" stroke="#475569" points="611.77,-57.5 616.87,-52.11 609.52,-53.14 611.77,-57.5"/>
</g>
</g>
</svg>
