<?xml version="1.0" encoding="UTF-8" standalone="no"?>
<!DOCTYPE svg PUBLIC "-//W3C//DTD SVG 1.1//EN"
 "http://www.w3.org/Graphics/SVG/1.1/DTD/svg11.dtd">
<!-- Generated by graphviz version 2.42.4 (0)
 -->
<!-- Title: text2ner_process_simple Pages: 1 -->
<svg width="542pt" height="1268pt"
 viewBox="0.00 0.00 542.20 1268.20" xmlns="http://www.w3.org/2000/svg" xmlns:xlink="http://www.w3.org/1999/xlink">
<g id="graph0" class="graph" transform="scale(1 1) rotate(0) translate(21.6 1246.6)">
<title>text2ner_process_simple</title>
<polygon fill="white" stroke="transparent" points="-21.6,21.6 -21.6,-1246.6 520.6,-1246.6 520.6,21.6 -21.6,21.6"/>
<text text-anchor="middle" x="249.5" y="-1205" font-family="Helvetica,sans-Serif" font-size="20.00">TEXT2NER: uproszczony przebieg pracy aplikacji</text>
<!-- start -->
<g id="node1" class="node">
<title>start</title>
<path fill="#e0f2fe" stroke="#0284c7" d="M479.5,-1195C479.5,-1195 19.5,-1195 19.5,-1195 13.5,-1195 7.5,-1189 7.5,-1183 7.5,-1183 7.5,-1171 7.5,-1171 7.5,-1165 13.5,-1159 19.5,-1159 19.5,-1159 479.5,-1159 479.5,-1159 485.5,-1159 491.5,-1165 491.5,-1171 491.5,-1171 491.5,-1183 491.5,-1183 491.5,-1189 485.5,-1195 479.5,-1195"/>
<text text-anchor="middle" x="249.5" y="-1173.9" font-family="Helvetica,sans-Serif" font-size="12.00">1. Dokument do analizy wprowadzony do pola tekstowego (do 5000 znaków)</text>
</g>
<!-- settings -->
<g id="node2" class="node">
<title>settings</title>
<path fill="#f8fafc" stroke="#94a3b8" d="M344,-1104C344,-1104 155,-1104 155,-1104 149,-1104 143,-1098 143,-1092 143,-1092 143,-1059 143,-1059 143,-1053 149,-1047 155,-1047 155,-1047 344,-1047 344,-1047 350,-1047 356,-1053 356,-1059 356,-1059 356,-1092 356,-1092 356,-1098 350,-1104 344,-1104"/>
<text text-anchor="middle" x="249.5" y="-1085.4" font-family="Helvetica,sans-Serif" font-size="12.00">2. Parametry analizy:</text>
<text text-anchor="middle" x="249.5" y="-1072.4" font-family="Helvetica,sans-Serif" font-size="12.00">model Gemini oraz typy tagów,</text>
<text text-anchor="middle" x="249.5" y="-1059.4" font-family="Helvetica,sans-Serif" font-size="12.00">które mają być rozpoznawane</text>
</g>
<!-- start&#45;&gt;settings -->
<g id="edge1" class="edge">
<title>start&#45;&gt;settings</title>
<path fill="none" stroke="#475569" d="M249.5,-1158.67C249.5,-1145.87 249.5,-1127.99 249.5,-1112.18"/>
<polygon fill="#475569" stroke="#475569" points="252.3,-1112.14 249.5,-1104.14 246.7,-1112.14 252.3,-1112.14"/>
</g>
<!-- recognize -->
<g id="node3" class="node">
<title>recognize</title>
<path fill="#f8fafc" stroke="#94a3b8" d="M404.5,-992C404.5,-992 94.5,-992 94.5,-992 88.5,-992 82.5,-986 82.5,-980 82.5,-980 82.5,-934 82.5,-934 82.5,-928 88.5,-922 94.5,-922 94.5,-922 404.5,-922 404.5,-922 410.5,-922 416.5,-928 416.5,-934 416.5,-934 416.5,-980 416.5,-980 416.5,-986 410.5,-992 404.5,-992"/>
<text text-anchor="middle" x="249.5" y="-973.4" font-family="Helvetica,sans-Serif" font-size="12.00">3. Funkcja Rozpoznaj encje</text>
<text text-anchor="middle" x="249.5" y="-960.4" font-family="Helvetica,sans-Serif" font-size="12.00">Aplikacja tworzy TEI&#45;XML</text>
<text text-anchor="middle" x="249.5" y="-947.4" font-family="Helvetica,sans-Serif" font-size="12.00">i oznacza osoby, miejsca,</text>
<text text-anchor="middle" x="249.5" y="-934.4" font-family="Helvetica,sans-Serif" font-size="12.00">daty, funkcje i instytucje (tagi zależnie od ustawień)</text>
</g>
<!-- settings&#45;&gt;recognize -->
<g id="edge2" class="edge">
<title>settings&#45;&gt;recognize</title>
<path fill="none" stroke="#475569" d="M249.5,-1046.89C249.5,-1033.04 249.5,-1015.95 249.5,-1000.48"/>
<polygon fill="#475569" stroke="#475569" points="252.3,-1000.07 249.5,-992.07 246.7,-1000.07 252.3,-1000.07"/>
</g>
<!-- preview -->
<g id="node4" class="node">
<title>preview</title>
<path fill="#f8fafc" stroke="#94a3b8" d="M342,-867C342,-867 157,-867 157,-867 151,-867 145,-861 145,-855 145,-855 145,-822 145,-822 145,-816 151,-810 157,-810 157,-810 342,-810 342,-810 348,-810 354,-816 354,-822 354,-822 354,-855 354,-855 354,-861 348,-867 342,-867"/>
<text text-anchor="middle" x="249.5" y="-848.4" font-family="Helvetica,sans-Serif" font-size="12.00">4. Podgląd wyniku</text>
<text text-anchor="middle" x="249.5" y="-835.4" font-family="Helvetica,sans-Serif" font-size="12.00">Użytkownik ogląda XML</text>
<text text-anchor="middle" x="249.5" y="-822.4" font-family="Helvetica,sans-Serif" font-size="12.00">lub kolorowany podgląd tekstu</text>
</g>
<!-- recognize&#45;&gt;preview -->
<g id="edge3" class="edge">
<title>recognize&#45;&gt;preview</title>
<path fill="none" stroke="#475569" d="M249.5,-921.99C249.5,-907.26 249.5,-890 249.5,-875.1"/>
<polygon fill="#475569" stroke="#475569" points="252.3,-875.09 249.5,-867.09 246.7,-875.09 252.3,-875.09"/>
</g>
<!-- manual -->
<g id="node5" class="node">
<title>manual</title>
<path fill="#f8fafc" stroke="#94a3b8" d="M263,-755C263,-755 58,-755 58,-755 52,-755 46,-749 46,-743 46,-743 46,-710 46,-710 46,-704 52,-698 58,-698 58,-698 263,-698 263,-698 269,-698 275,-704 275,-710 275,-710 275,-743 275,-743 275,-749 269,-755 263,-755"/>
<text text-anchor="middle" x="160.5" y="-736.4" font-family="Helvetica,sans-Serif" font-size="12.00">5. Opcjonalna korekta ręczna</text>
<text text-anchor="middle" x="160.5" y="-723.4" font-family="Helvetica,sans-Serif" font-size="12.00">Można usunąć tag,</text>
<text text-anchor="middle" x="160.5" y="-710.4" font-family="Helvetica,sans-Serif" font-size="12.00">zmienić jego typ albo dodać nowy</text>
</g>
<!-- preview&#45;&gt;manual -->
<g id="edge4" class="edge">
<title>preview&#45;&gt;manual</title>
<path fill="none" stroke="#475569" d="M227.04,-809.74C215.24,-795.15 200.66,-777.14 188.17,-761.69"/>
<polygon fill="#475569" stroke="#475569" points="190.16,-759.71 182.95,-755.25 185.81,-763.23 190.16,-759.71"/>
</g>
<!-- identify -->
<g id="node6" class="node">
<title>identify</title>
<path fill="#f8fafc" stroke="#94a3b8" d="M374.5,-643C374.5,-643 124.5,-643 124.5,-643 118.5,-643 112.5,-637 112.5,-631 112.5,-631 112.5,-585 112.5,-585 112.5,-579 118.5,-573 124.5,-573 124.5,-573 374.5,-573 374.5,-573 380.5,-573 386.5,-579 386.5,-585 386.5,-585 386.5,-631 386.5,-631 386.5,-637 380.5,-643 374.5,-643"/>
<text text-anchor="middle" x="249.5" y="-624.4" font-family="Helvetica,sans-Serif" font-size="12.00">6. Identyfikacja encji</text>
<text text-anchor="middle" x="249.5" y="-611.4" font-family="Helvetica,sans-Serif" font-size="12.00">Aplikacja próbuje powiązać</text>
<text text-anchor="middle" x="249.5" y="-598.4" font-family="Helvetica,sans-Serif" font-size="12.00">osoby (persName) i miejsca (placeName)</text>
<text text-anchor="middle" x="249.5" y="-585.4" font-family="Helvetica,sans-Serif" font-size="12.00">z rekordami baz referencyjnych</text>
</g>
<!-- preview&#45;&gt;identify -->
<g id="edge11" class="edge">
<title>preview&#45;&gt;identify</title>
<path fill="none" stroke="#475569" d="M263.38,-809.57C275.28,-785.64 290.5,-755 290.5,-755 290.5,-755 290.5,-698 290.5,-698 290.5,-698 279.34,-673.78 268.67,-650.61"/>
<polygon fill="#475569" stroke="#475569" points="271.12,-649.25 265.23,-643.16 266.04,-651.59 271.12,-649.25"/>
<text text-anchor="middle" x="339" y="-724" font-family="Helvetica,sans-Serif" font-size="10.00">jeśli nie ma korekty</text>
</g>
<!-- manual&#45;&gt;identify -->
<g id="edge5" class="edge">
<title>manual&#45;&gt;identify</title>
<path fill="none" stroke="#475569" d="M181.59,-697.89C192.57,-683.53 206.2,-665.68 218.36,-649.76"/>
<polygon fill="#475569" stroke="#475569" points="220.84,-651.13 223.47,-643.07 216.39,-647.73 220.84,-651.13"/>
</g>
<!-- sources -->
<g id="node7" class="node">
<title>sources</title>
<path fill="#f8fafc" stroke="#94a3b8" d="M405.5,-518C405.5,-518 93.5,-518 93.5,-518 87.5,-518 81.5,-512 81.5,-506 81.5,-506 81.5,-473 81.5,-473 81.5,-467 87.5,-461 93.5,-461 93.5,-461 405.5,-461 405.5,-461 411.5,-461 417.5,-467 417.5,-473 417.5,-473 417.5,-506 417.5,-506 417.5,-512 411.5,-518 405.5,-518"/>
<text text-anchor="middle" x="249.5" y="-499.4" font-family="Helvetica,sans-Serif" font-size="12.00">7. Wyszukiwanie kandydatów</text>
<text text-anchor="middle" x="249.5" y="-486.4" font-family="Helvetica,sans-Serif" font-size="12.00">w WikiHum, va.wiki.kul.pl,</text>
<text text-anchor="middle" x="249.5" y="-473.4" font-family="Helvetica,sans-Serif" font-size="12.00">jeżeli nieskuteczna &#45;&gt; Wikidata i w polskiej Wikipedii</text>
</g>
<!-- identify&#45;&gt;sources -->
<g id="edge6" class="edge">
<title>identify&#45;&gt;sources</title>
<path fill="none" stroke="#475569" d="M249.5,-572.99C249.5,-558.26 249.5,-541 249.5,-526.1"/>
<polygon fill="#475569" stroke="#475569" points="252.3,-526.09 249.5,-518.09 246.7,-526.09 252.3,-526.09"/>
</g>
<!-- decision -->
<g id="node8" class="node">
<title>decision</title>
<path fill="#f8fafc" stroke="#94a3b8" d="M354,-406C354,-406 145,-406 145,-406 139,-406 133,-400 133,-394 133,-394 133,-348 133,-348 133,-342 139,-336 145,-336 145,-336 354,-336 354,-336 360,-336 366,-342 366,-348 366,-348 366,-394 366,-394 366,-400 360,-406 354,-406"/>
<text text-anchor="middle" x="249.5" y="-387.4" font-family="Helvetica,sans-Serif" font-size="12.00">8. Ocena kandydatów</text>
<text text-anchor="middle" x="249.5" y="-374.4" font-family="Helvetica,sans-Serif" font-size="12.00">Model Gemini porównuje kontekst,</text>
<text text-anchor="middle" x="249.5" y="-361.4" font-family="Helvetica,sans-Serif" font-size="12.00">warianty nazwy (dla osób</text>
<text text-anchor="middle" x="249.5" y="-348.4" font-family="Helvetica,sans-Serif" font-size="12.00">również zgodność chronologiczną)</text>
</g>
<!-- sources&#45;&gt;decision -->
<g id="edge7" class="edge">
<title>sources&#45;&gt;decision</title>
<path fill="none" stroke="#475569" d="M249.5,-460.89C249.5,-447.04 249.5,-429.95 249.5,-414.48"/>
<polygon fill="#475569" stroke="#475569" points="252.3,-414.07 249.5,-406.07 246.7,-414.07 252.3,-414.07"/>
</g>
<!-- result -->
<g id="node9" class="node">
<title>result</title>
<path fill="#dcfce7" stroke="#16a34a" d="M415.5,-281C415.5,-281 83.5,-281 83.5,-281 77.5,-281 71.5,-275 71.5,-269 71.5,-269 71.5,-249 71.5,-249 71.5,-243 77.5,-237 83.5,-237 83.5,-237 415.5,-237 415.5,-237 421.5,-237 427.5,-243 427.5,-249 427.5,-249 427.5,-269 427.5,-269 427.5,-275 421.5,-281 415.5,-281"/>
<text text-anchor="middle" x="249.5" y="-262.4" font-family="Helvetica,sans-Serif" font-size="12.00">9. Wynik końcowy</text>
<text text-anchor="middle" x="249.5" y="-249.4" font-family="Helvetica,sans-Serif" font-size="12.00">TEI&#45;XML z wyróżnieniem osób, miejsc i ich indetyfikacją</text>
</g>
<!-- decision&#45;&gt;result -->
<g id="edge8" class="edge">
<title>decision&#45;&gt;result</title>
<path fill="none" stroke="#475569" d="M249.5,-335.8C249.5,-320.83 249.5,-303.44 249.5,-289.1"/>
<polygon fill="#475569" stroke="#475569" points="252.3,-289.05 249.5,-281.05 246.7,-289.05 252.3,-289.05"/>
</g>
<!-- lists -->
<g id="node10" class="node">
<title>lists</title>
<path fill="#f8fafc" stroke="#94a3b8" d="M382.5,-182C382.5,-182 116.5,-182 116.5,-182 110.5,-182 104.5,-176 104.5,-170 104.5,-170 104.5,-137 104.5,-137 104.5,-131 110.5,-125 116.5,-125 116.5,-125 382.5,-125 382.5,-125 388.5,-125 394.5,-131 394.5,-137 394.5,-137 394.5,-170 394.5,-170 394.5,-176 388.5,-182 382.5,-182"/>
<text text-anchor="middle" x="249.5" y="-163.4" font-family="Helvetica,sans-Serif" font-size="12.00">10. Dodatkowe wyniki:</text>
<text text-anchor="middle" x="249.5" y="-150.4" font-family="Helvetica,sans-Serif" font-size="12.00">Lista encji (osób i miejsc) zidentyfikowanych</text>
<text text-anchor="middle" x="249.5" y="-137.4" font-family="Helvetica,sans-Serif" font-size="12.00">i niezidentyfikowanych</text>
</g>
<!-- result&#45;&gt;lists -->
<g id="edge9" class="edge">
<title>result&#45;&gt;lists</title>
<path fill="none" stroke="#475569" d="M249.5,-236.81C249.5,-223.53 249.5,-206.08 249.5,-190.66"/>
<polygon fill="#475569" stroke="#475569" points="252.3,-190.35 249.5,-182.35 246.7,-190.35 252.3,-190.35"/>
</g>
<!-- log -->
<g id="node11" class="node">
<title>log</title>
<path fill="#fef3c7" stroke="#d97706" d="M322.5,-70C322.5,-70 176.5,-70 176.5,-70 170.5,-70 164.5,-64 164.5,-58 164.5,-58 164.5,-12 164.5,-12 164.5,-6 170.5,0 176.5,0 176.5,0 322.5,0 322.5,0 328.5,0 334.5,-6 334.5,-12 334.5,-12 334.5,-58 334.5,-58 334.5,-64 328.5,-70 322.5,-70"/>
<text text-anchor="middle" x="249.5" y="-51.4" font-family="Helvetica,sans-Serif" font-size="12.00">11. Log diagnostyczny</text>
<text text-anchor="middle" x="249.5" y="-38.4" font-family="Helvetica,sans-Serif" font-size="12.00">Można pobrać pełny log</text>
<text text-anchor="middle" x="249.5" y="-25.4" font-family="Helvetica,sans-Serif" font-size="12.00">lub obejrzeć fragment</text>
<text text-anchor="middle" x="249.5" y="-12.4" font-family="Helvetica,sans-Serif" font-size="12.00">dla konkretnej encji</text>
</g>
<!-- lists&#45;&gt;log -->
<g id="edge10" class="edge">
<title>lists&#45;&gt;log</title>
<path fill="none" stroke="#475569" d="M249.5,-124.89C249.5,-111.04 249.5,-93.95 249.5,-78.48"/>
<polygon fill="#475569" stroke="#475569" points="252.3,-78.07 249.5,-70.07 246.7,-78.07 252.3,-78.07"/>
</g>
</g>
</svg>
