<?xml version="1.0" encoding="UTF-8" standalone="no"?>
<!DOCTYPE svg PUBLIC "-//W3C//DTD SVG 1.1//EN"
 "http://www.w3.org/Graphics/SVG/1.1/DTD/svg11.dtd">
<!-- Generated by graphviz version 2.42.4 (0)
 -->
<!-- Title: text2ner_process_simple Pages: 1 -->
<svg width="735pt" height="1751pt"
 viewBox="0.00 0.00 735.20 1751.20" xmlns="http://www.w3.org/2000/svg" xmlns:xlink="http://www.w3.org/1999/xlink">
<g id="graph0" class="graph" transform="scale(1 1) rotate(0) translate(21.6 1729.6)">
<title>text2ner_process_simple</title>
<polygon fill="white" stroke="transparent" points="-21.6,21.6 -21.6,-1729.6 713.6,-1729.6 713.6,21.6 -21.6,21.6"/>
<text text-anchor="middle" x="346" y="-1688" font-family="Helvetica,sans-Serif" font-size="20.00">TEXT2NER: uproszczony przebieg pracy aplikacji</text>
<!-- start -->
<g id="node1" class="node">
<title>start</title>
<path fill="#e0f2fe" stroke="#0284c7" d="M680,-1654C680,-1654 252,-1654 252,-1654 246,-1654 240,-1648 240,-1642 240,-1642 240,-1630 240,-1630 240,-1624 246,-1618 252,-1618 252,-1618 680,-1618 680,-1618 686,-1618 692,-1624 692,-1630 692,-1630 692,-1642 692,-1642 692,-1648 686,-1654 680,-1654"/>
<text text-anchor="middle" x="466" y="-1632.9" font-family="Helvetica,sans-Serif" font-size="12.00">1. Tekst do analizy wprowadzony do pola tekstowego (do 5000 znaków)</text>
</g>
<!-- settings -->
<g id="node2" class="node">
<title>settings</title>
<path fill="#f8fafc" stroke="#94a3b8" d="M624.5,-1563C624.5,-1563 307.5,-1563 307.5,-1563 301.5,-1563 295.5,-1557 295.5,-1551 295.5,-1551 295.5,-1505 295.5,-1505 295.5,-1499 301.5,-1493 307.5,-1493 307.5,-1493 624.5,-1493 624.5,-1493 630.5,-1493 636.5,-1499 636.5,-1505 636.5,-1505 636.5,-1551 636.5,-1551 636.5,-1557 630.5,-1563 624.5,-1563"/>
<text text-anchor="middle" x="466" y="-1544.4" font-family="Helvetica,sans-Serif" font-size="12.00">2. Parametry analizy:</text>
<text text-anchor="middle" x="466" y="-1531.4" font-family="Helvetica,sans-Serif" font-size="12.00">model Gemini oraz typy tagów,</text>
<text text-anchor="middle" x="466" y="-1518.4" font-family="Helvetica,sans-Serif" font-size="12.00">które mają być rozpoznawane</text>
<text text-anchor="middle" x="466" y="-1505.4" font-family="Helvetica,sans-Serif" font-size="12.00"> (persName, placeName, roleName, date, orgName)</text>
</g>
<!-- start&#45;&gt;settings -->
<g id="edge1" class="edge">
<title>start&#45;&gt;settings</title>
<path fill="none" stroke="#475569" d="M466,-1617.97C466,-1605.41 466,-1587.75 466,-1571.47"/>
<polygon fill="#475569" stroke="#475569" points="468.8,-1571.12 466,-1563.12 463.2,-1571.12 468.8,-1571.12"/>
</g>
<!-- recognize -->
<g id="node3" class="node">
<title>recognize</title>
<path fill="#f8fafc" stroke="#94a3b8" d="M621,-1438C621,-1438 311,-1438 311,-1438 305,-1438 299,-1432 299,-1426 299,-1426 299,-1380 299,-1380 299,-1374 305,-1368 311,-1368 311,-1368 621,-1368 621,-1368 627,-1368 633,-1374 633,-1380 633,-1380 633,-1426 633,-1426 633,-1432 627,-1438 621,-1438"/>
<text text-anchor="middle" x="466" y="-1419.4" font-family="Helvetica,sans-Serif" font-size="12.00">3. Funkcja Rozpoznaj </text>
<text text-anchor="middle" x="466" y="-1406.4" font-family="Helvetica,sans-Serif" font-size="12.00">Aplikacja oznacza osoby, miejsca,</text>
<text text-anchor="middle" x="466" y="-1393.4" font-family="Helvetica,sans-Serif" font-size="12.00">daty, funkcje i instytucje (tagi zależnie od ustawień)</text>
<text text-anchor="middle" x="466" y="-1380.4" font-family="Helvetica,sans-Serif" font-size="12.00"> tworzy zapis w formacie TEI&#45;XML</text>
</g>
<!-- settings&#45;&gt;recognize -->
<g id="edge2" class="edge">
<title>settings&#45;&gt;recognize</title>
<path fill="none" stroke="#475569" d="M466,-1492.74C466,-1478.34 466,-1461.45 466,-1446.3"/>
<polygon fill="#475569" stroke="#475569" points="468.8,-1446.08 466,-1438.08 463.2,-1446.08 468.8,-1446.08"/>
</g>
<!-- preview -->
<g id="node4" class="node">
<title>preview</title>
<path fill="#f8fafc" stroke="#94a3b8" d="M569,-1313C569,-1313 363,-1313 363,-1313 357,-1313 351,-1307 351,-1301 351,-1301 351,-1281 351,-1281 351,-1275 357,-1269 363,-1269 363,-1269 569,-1269 569,-1269 575,-1269 581,-1275 581,-1281 581,-1281 581,-1301 581,-1301 581,-1307 575,-1313 569,-1313"/>
<text text-anchor="middle" x="466" y="-1294.4" font-family="Helvetica,sans-Serif" font-size="12.00">4. Użytkownik może obejrzeć XML</text>
<text text-anchor="middle" x="466" y="-1281.4" font-family="Helvetica,sans-Serif" font-size="12.00">lub kolorowany podgląd tekstu</text>
</g>
<!-- recognize&#45;&gt;preview -->
<g id="edge3" class="edge">
<title>recognize&#45;&gt;preview</title>
<path fill="none" stroke="#475569" d="M466,-1367.8C466,-1352.83 466,-1335.44 466,-1321.1"/>
<polygon fill="#475569" stroke="#475569" points="468.8,-1321.05 466,-1313.05 463.2,-1321.05 468.8,-1321.05"/>
</g>
<!-- manual -->
<g id="node5" class="node">
<title>manual</title>
<path fill="#f8fafc" stroke="#94a3b8" d="M482.5,-1214C482.5,-1214 265.5,-1214 265.5,-1214 259.5,-1214 253.5,-1208 253.5,-1202 253.5,-1202 253.5,-1169 253.5,-1169 253.5,-1163 259.5,-1157 265.5,-1157 265.5,-1157 482.5,-1157 482.5,-1157 488.5,-1157 494.5,-1163 494.5,-1169 494.5,-1169 494.5,-1202 494.5,-1202 494.5,-1208 488.5,-1214 482.5,-1214"/>
<text text-anchor="middle" x="374" y="-1195.4" font-family="Helvetica,sans-Serif" font-size="12.00">5. Podgląd umożliwia korektę tagów</text>
<text text-anchor="middle" x="374" y="-1182.4" font-family="Helvetica,sans-Serif" font-size="12.00">Można usunąć tag,</text>
<text text-anchor="middle" x="374" y="-1169.4" font-family="Helvetica,sans-Serif" font-size="12.00">zmienić jego typ albo dodać nowy</text>
</g>
<!-- preview&#45;&gt;manual -->
<g id="edge4" class="edge">
<title>preview&#45;&gt;manual</title>
<path fill="none" stroke="#475569" d="M447.16,-1268.81C434.82,-1254.92 418.4,-1236.46 404.25,-1220.54"/>
<polygon fill="#475569" stroke="#475569" points="406.16,-1218.47 398.75,-1214.35 401.98,-1222.19 406.16,-1218.47"/>
</g>
<!-- identify -->
<g id="node6" class="node">
<title>identify</title>
<path fill="#f8fafc" stroke="#94a3b8" d="M669.5,-1102C669.5,-1102 262.5,-1102 262.5,-1102 256.5,-1102 250.5,-1096 250.5,-1090 250.5,-1090 250.5,-992 250.5,-992 250.5,-986 256.5,-980 262.5,-980 262.5,-980 669.5,-980 669.5,-980 675.5,-980 681.5,-986 681.5,-992 681.5,-992 681.5,-1090 681.5,-1090 681.5,-1096 675.5,-1102 669.5,-1102"/>
<text text-anchor="middle" x="466" y="-1083.4" font-family="Helvetica,sans-Serif" font-size="12.00">6. Rozpoznane encje typu persName lub placeName</text>
<text text-anchor="middle" x="466" y="-1070.4" font-family="Helvetica,sans-Serif" font-size="12.00"> można zidentyfikować w bazach referencyjnych</text>
<text text-anchor="middle" x="466" y="-1057.4" font-family="Helvetica,sans-Serif" font-size="12.00">Model określa formę podstawową nazwy,</text>
<text text-anchor="middle" x="466" y="-1044.4" font-family="Helvetica,sans-Serif" font-size="12.00">dodatkowe słowniki pomagają przy utworzeniu polskich wersji nazw</text>
<text text-anchor="middle" x="466" y="-1031.4" font-family="Helvetica,sans-Serif" font-size="12.00"> w przypadku tekstów łacińskich i niemieckich</text>
<text text-anchor="middle" x="466" y="-1018.4" font-family="Helvetica,sans-Serif" font-size="12.00"> model analizuje kontekst wystąpienia encji</text>
<text text-anchor="middle" x="466" y="-1005.4" font-family="Helvetica,sans-Serif" font-size="12.00"> (np. informacje o urzędzie, funkcji dla osoby,</text>
<text text-anchor="middle" x="466" y="-992.4" font-family="Helvetica,sans-Serif" font-size="12.00"> lub informacje lokalizacyjne dla miejsc)</text>
</g>
<!-- preview&#45;&gt;identify -->
<g id="edge11" class="edge">
<title>preview&#45;&gt;identify</title>
<path fill="none" stroke="#475569" d="M478.26,-1268.83C491.28,-1246.34 510,-1214 510,-1214 510,-1214 510,-1157 510,-1157 510,-1157 501.52,-1134.84 492.01,-1109.98"/>
<polygon fill="#475569" stroke="#475569" points="494.5,-1108.67 489.03,-1102.19 489.27,-1110.67 494.5,-1108.67"/>
<text text-anchor="middle" x="558.5" y="-1183" font-family="Helvetica,sans-Serif" font-size="10.00">jeśli nie ma korekty</text>
</g>
<!-- manual&#45;&gt;identify -->
<g id="edge5" class="edge">
<title>manual&#45;&gt;identify</title>
<path fill="none" stroke="#475569" d="M391.96,-1156.69C400.74,-1143.08 411.73,-1126.05 422.54,-1109.32"/>
<polygon fill="#475569" stroke="#475569" points="425.16,-1110.41 427.15,-1102.17 420.46,-1107.38 425.16,-1110.41"/>
</g>
<!-- identify2 -->
<g id="node7" class="node">
<title>identify2</title>
<path fill="#f8fafc" stroke="#94a3b8" d="M644,-925C644,-925 288,-925 288,-925 282,-925 276,-919 276,-913 276,-913 276,-880 276,-880 276,-874 282,-868 288,-868 288,-868 644,-868 644,-868 650,-868 656,-874 656,-880 656,-880 656,-913 656,-913 656,-919 650,-925 644,-925"/>
<text text-anchor="middle" x="466" y="-906.4" font-family="Helvetica,sans-Serif" font-size="12.00">6a. Przygotowywany jest plan zapytań do instancji wikibase</text>
<text text-anchor="middle" x="466" y="-893.4" font-family="Helvetica,sans-Serif" font-size="12.00"> zapytanie oprócz nazwy osoby może zawierać </text>
<text text-anchor="middle" x="466" y="-880.4" font-family="Helvetica,sans-Serif" font-size="12.00"> dane ujednoznaczniające np. tytuł, urząd itp.</text>
</g>
<!-- identify&#45;&gt;identify2 -->
<g id="edge6" class="edge">
<title>identify&#45;&gt;identify2</title>
<path fill="none" stroke="#475569" d="M466,-979.98C466,-964.08 466,-947.42 466,-933.27"/>
<polygon fill="#475569" stroke="#475569" points="468.8,-933.25 466,-925.25 463.2,-933.25 468.8,-933.25"/>
</g>
<!-- sources -->
<g id="node8" class="node">
<title>sources</title>
<path fill="#f8fafc" stroke="#94a3b8" d="M619,-813C619,-813 313,-813 313,-813 307,-813 301,-807 301,-801 301,-801 301,-768 301,-768 301,-762 307,-756 313,-756 313,-756 619,-756 619,-756 625,-756 631,-762 631,-768 631,-768 631,-801 631,-801 631,-807 625,-813 619,-813"/>
<text text-anchor="middle" x="466" y="-794.4" font-family="Helvetica,sans-Serif" font-size="12.00">7. Wyszukiwanie kandydatów</text>
<text text-anchor="middle" x="466" y="-781.4" font-family="Helvetica,sans-Serif" font-size="12.00">w WikiHum i va.wiki.kul.pl</text>
<text text-anchor="middle" x="466" y="-768.4" font-family="Helvetica,sans-Serif" font-size="12.00">(wyszukiwanie przybliżone poprzez Special:Search)</text>
</g>
<!-- identify2&#45;&gt;sources -->
<g id="edge7" class="edge">
<title>identify2&#45;&gt;sources</title>
<path fill="none" stroke="#475569" d="M466,-867.74C466,-853.67 466,-836.42 466,-821.36"/>
<polygon fill="#475569" stroke="#475569" points="468.8,-821.25 466,-813.25 463.2,-821.25 468.8,-821.25"/>
</g>
<!-- decision -->
<g id="node9" class="node">
<title>decision</title>
<path fill="#f8fafc" stroke="#94a3b8" d="M572,-701C572,-701 360,-701 360,-701 354,-701 348,-695 348,-689 348,-689 348,-630 348,-630 348,-624 354,-618 360,-618 360,-618 572,-618 572,-618 578,-618 584,-624 584,-630 584,-630 584,-689 584,-689 584,-695 578,-701 572,-701"/>
<text text-anchor="middle" x="466" y="-682.4" font-family="Helvetica,sans-Serif" font-size="12.00">8. Ocena kandydatów</text>
<text text-anchor="middle" x="466" y="-669.4" font-family="Helvetica,sans-Serif" font-size="12.00">Model Gemini porównuje kontekst,</text>
<text text-anchor="middle" x="466" y="-656.4" font-family="Helvetica,sans-Serif" font-size="12.00">warianty nazwy (dla osób</text>
<text text-anchor="middle" x="466" y="-643.4" font-family="Helvetica,sans-Serif" font-size="12.00">również zgodność chronologiczną)</text>
<text text-anchor="middle" x="466" y="-630.4" font-family="Helvetica,sans-Serif" font-size="12.00"> model wskazuje kandydata lub nie</text>
</g>
<!-- sources&#45;&gt;decision -->
<g id="edge8" class="edge">
<title>sources&#45;&gt;decision</title>
<path fill="none" stroke="#475569" d="M466,-755.9C466,-742.14 466,-725.1 466,-709.25"/>
<polygon fill="#475569" stroke="#475569" points="468.8,-709.09 466,-701.09 463.2,-709.09 468.8,-709.09"/>
</g>
<!-- sources2 -->
<g id="node12" class="node">
<title>sources2</title>
<path fill="#f8fafc" stroke="#94a3b8" d="M467.5,-553C467.5,-553 298.5,-553 298.5,-553 292.5,-553 286.5,-547 286.5,-541 286.5,-541 286.5,-529 286.5,-529 286.5,-523 292.5,-517 298.5,-517 298.5,-517 467.5,-517 467.5,-517 473.5,-517 479.5,-523 479.5,-529 479.5,-529 479.5,-541 479.5,-541 479.5,-547 473.5,-553 467.5,-553"/>
<text text-anchor="middle" x="383" y="-531.9" font-family="Helvetica,sans-Serif" font-size="12.00">9. Wyszukiwanie w Wikidata</text>
</g>
<!-- decision&#45;&gt;sources2 -->
<g id="edge12" class="edge">
<title>decision&#45;&gt;sources2</title>
<path fill="none" stroke="#475569" d="M438.36,-617.71C425.32,-598.46 410.22,-576.18 399.09,-559.74"/>
<polygon fill="#475569" stroke="#475569" points="401.38,-558.14 394.58,-553.09 396.75,-561.28 401.38,-558.14"/>
<text text-anchor="middle" x="467" y="-583" font-family="Helvetica,sans-Serif" font-size="10.00">jeżeli nieskuteczne</text>
</g>
<!-- result -->
<g id="node14" class="node">
<title>result</title>
<path fill="#dcfce7" stroke="#16a34a" d="M567,-169C567,-169 235,-169 235,-169 229,-169 223,-163 223,-157 223,-157 223,-111 223,-111 223,-105 229,-99 235,-99 235,-99 567,-99 567,-99 573,-99 579,-105 579,-111 579,-111 579,-157 579,-157 579,-163 573,-169 567,-169"/>
<text text-anchor="middle" x="401" y="-150.4" font-family="Helvetica,sans-Serif" font-size="12.00">11. Wynik końcowy</text>
<text text-anchor="middle" x="401" y="-137.4" font-family="Helvetica,sans-Serif" font-size="12.00">TEI&#45;XML z wyróżnieniem osób, miejsc i ich identyfikacją</text>
<text text-anchor="middle" x="401" y="-124.4" font-family="Helvetica,sans-Serif" font-size="12.00">listy encji (osób i miejsc) zidentyfikowanych</text>
<text text-anchor="middle" x="401" y="-111.4" font-family="Helvetica,sans-Serif" font-size="12.00">i niezidentyfikowanych</text>
</g>
<!-- decision&#45;&gt;result -->
<g id="edge9" class="edge">
<title>decision&#45;&gt;result</title>
<path fill="none" stroke="#475569" d="M499.87,-617.68C511.66,-603.46 522,-591 522,-591 522,-591 549,-536 549,-536 549,-536 549,-536 549,-241 549,-241 497.56,-204.16 455.33,-173.91"/>
<polygon fill="#475569" stroke="#475569" points="456.78,-171.5 448.64,-169.12 453.52,-176.06 456.78,-171.5"/>
</g>
<!-- decision2 -->
<g id="node10" class="node">
<title>decision2</title>
<path fill="#f8fafc" stroke="#94a3b8" d="M487.5,-462C487.5,-462 160.5,-462 160.5,-462 154.5,-462 148.5,-456 148.5,-450 148.5,-450 148.5,-438 148.5,-438 148.5,-432 154.5,-426 160.5,-426 160.5,-426 487.5,-426 487.5,-426 493.5,-426 499.5,-432 499.5,-438 499.5,-438 499.5,-450 499.5,-450 499.5,-456 493.5,-462 487.5,-462"/>
<text text-anchor="middle" x="324" y="-440.9" font-family="Helvetica,sans-Serif" font-size="12.00">8a. Ocena kandydatów z wikidata przez model Gemini</text>
</g>
<!-- sources3 -->
<g id="node13" class="node">
<title>sources3</title>
<path fill="#f8fafc" stroke="#94a3b8" d="M336.5,-361C336.5,-361 37.5,-361 37.5,-361 31.5,-361 25.5,-355 25.5,-349 25.5,-349 25.5,-337 25.5,-337 25.5,-331 31.5,-325 37.5,-325 37.5,-325 336.5,-325 336.5,-325 342.5,-325 348.5,-331 348.5,-337 348.5,-337 348.5,-349 348.5,-349 348.5,-355 342.5,-361 336.5,-361"/>
<text text-anchor="middle" x="187" y="-339.9" font-family="Helvetica,sans-Serif" font-size="12.00">10. Wyszukiwanie w polskiej i angielskiej Wikipedii</text>
</g>
<!-- decision2&#45;&gt;sources3 -->
<g id="edge15" class="edge">
<title>decision2&#45;&gt;sources3</title>
<path fill="none" stroke="#475569" d="M300.45,-425.98C277.51,-409.41 242.54,-384.13 217.49,-366.03"/>
<polygon fill="#475569" stroke="#475569" points="218.83,-363.54 210.7,-361.13 215.55,-368.08 218.83,-363.54"/>
<text text-anchor="middle" x="307" y="-391" font-family="Helvetica,sans-Serif" font-size="10.00">jeżeli nieskuteczne</text>
</g>
<!-- decision2&#45;&gt;result -->
<g id="edge14" class="edge">
<title>decision2&#45;&gt;result</title>
<path fill="none" stroke="#475569" d="M338.8,-425.86C349.47,-413.51 362,-399 362,-399 362,-399 383.69,-252.21 394.72,-177.54"/>
<polygon fill="#475569" stroke="#475569" points="397.54,-177.57 395.94,-169.24 392,-176.75 397.54,-177.57"/>
<text text-anchor="middle" x="442" y="-290" font-family="Helvetica,sans-Serif" font-size="10.00">jeżeli wybrano kandydata</text>
</g>
<!-- decision3 -->
<g id="node11" class="node">
<title>decision3</title>
<path fill="#f8fafc" stroke="#94a3b8" d="M340,-260C340,-260 12,-260 12,-260 6,-260 0,-254 0,-248 0,-248 0,-236 0,-236 0,-230 6,-224 12,-224 12,-224 340,-224 340,-224 346,-224 352,-230 352,-236 352,-236 352,-248 352,-248 352,-254 346,-260 340,-260"/>
<text text-anchor="middle" x="176" y="-238.9" font-family="Helvetica,sans-Serif" font-size="12.00">8b. Ocena kandydatów z wikipedii przez model Gemini</text>
</g>
<!-- decision3&#45;&gt;result -->
<g id="edge17" class="edge">
<title>decision3&#45;&gt;result</title>
<path fill="none" stroke="#475569" d="M212.15,-223.97C241.5,-210.14 283.97,-190.13 321.21,-172.59"/>
<polygon fill="#475569" stroke="#475569" points="322.54,-175.06 328.58,-169.12 320.15,-169.99 322.54,-175.06"/>
</g>
<!-- sources2&#45;&gt;decision2 -->
<g id="edge13" class="edge">
<title>sources2&#45;&gt;decision2</title>
<path fill="none" stroke="#475569" d="M371.62,-516.84C362.65,-503.3 350.01,-484.24 340.01,-469.15"/>
<polygon fill="#475569" stroke="#475569" points="342.09,-467.23 335.34,-462.11 337.43,-470.32 342.09,-467.23"/>
</g>
<!-- sources3&#45;&gt;decision3 -->
<g id="edge16" class="edge">
<title>sources3&#45;&gt;decision3</title>
<path fill="none" stroke="#475569" d="M185.08,-324.76C183.35,-309.14 180.77,-285.94 178.8,-268.24"/>
<polygon fill="#475569" stroke="#475569" points="181.56,-267.69 177.89,-260.05 175.99,-268.31 181.56,-267.69"/>
</g>
<!-- pdf_after -->
<g id="node15" class="node">
<title>pdf_after</title>
<path fill="#fef3c7" stroke="#d97706" d="M653,-44C653,-44 149,-44 149,-44 143,-44 137,-38 137,-32 137,-32 137,-12 137,-12 137,-6 143,0 149,0 149,0 653,0 653,0 659,0 665,-6 665,-12 665,-12 665,-32 665,-32 665,-38 659,-44 653,-44"/>
<text text-anchor="middle" x="401" y="-25.4" font-family="Helvetica,sans-Serif" font-size="12.00">12. Eksport PDF</text>
<text text-anchor="middle" x="401" y="-12.4" font-family="Helvetica,sans-Serif" font-size="12.00">Plik zawiera tekst z kolorowaniem tagów, listy encji rozpoznanych i nierozpoznanych</text>
</g>
<!-- result&#45;&gt;pdf_after -->
<g id="edge10" class="edge">
<title>result&#45;&gt;pdf_after</title>
<path fill="none" stroke="#475569" d="M401,-98.8C401,-83.83 401,-66.44 401,-52.1"/>
<polygon fill="#475569" stroke="#475569" points="403.8,-52.05 401,-44.05 398.2,-52.05 403.8,-52.05"/>
</g>
</g>
</svg>
